<svg xmlns="http://www.w3.org/2000/svg" width="14" height="13" viewBox="0 0 14 13">
    <path fill="#0FCD64" fill-rule="evenodd" d="M0 11.156L.701 12c1.682-.205 3.424-1.141 5.228-2.808a43.804 43.804 0 0 0 5.089-5.625c-.158.92-.667 1.908-1.528 2.964-.86 1.056-2.519 2.776-4.974 5.16 2.752.952 4.783.689 6.09-.79 1.961-2.22 2.217-4.402 2.311-4.783C13.012 5.736 13.923.486 14 .34c.076-.145-3.873-.765-6.588.145S3.823 2.27 2.789 3.567c-1.034 1.296-.982 4.097-.491 5.256.327.772.545 1.28.654 1.524-.641.423-1.186.67-1.636.74-.45.071-.888.094-1.316.07z"/>
</svg>
