<?xml version="1.0" encoding="UTF-8"?>
<svg width="106px" height="23px" viewBox="0 0 106 23" version="1.1" xmlns="http://www.w3.org/2000/svg" xmlns:xlink="http://www.w3.org/1999/xlink">
    <!-- Generator: Sketch 49 (51002) - http://www.bohemiancoding.com/sketch -->
    <title>E47_new</title>
    <desc>Created with Sketch.</desc>
    <defs></defs>
    <g id="Logo" stroke="none" stroke-width="1" fill="none" fill-rule="evenodd">
        <g id="New" transform="translate(-175.000000, -70.000000)">
            <g id="E47_new" transform="translate(175.000000, 68.000000)">
                <path d="M0.9,4.02 L12.1,4.02 L12.1,7.35 L4.3,7.35 L4.3,12.18 L11.74,12.18 L11.74,15.51 L4.3,15.51 L4.3,20.67 L12.19,20.67 L12.19,24 L0.1,24 L0.1,4.82 C0.1,4.3781722 0.4581722,4.02 0.9,4.02 Z M22.0900031,22.44 C21.2966723,23.0799988 20.6466723,23.5199988 20.1400031,23.76 C19.3799993,24.1200018 18.5000081,24.3 17.5000031,24.3 C16.8599999,24.3 16.2800057,24.195001 15.7600031,23.985 C15.2400005,23.7749989 14.8000049,23.4850018 14.4400031,23.115 C14.0800013,22.7449981 13.8000041,22.3100025 13.6000031,21.81 C13.4000021,21.3099975 13.3000031,20.760003 13.3000031,20.16 C13.3000031,18.8199933 13.7499986,17.8000035 14.6500031,17.1 C15.5500076,16.3999965 16.7799953,16.0000005 18.3400031,15.9 C18.9400061,15.8599998 19.5599999,15.8300001 20.2000031,15.81 C20.8400063,15.7899999 21.4200005,15.7700001 21.9400031,15.75 L21.9400031,15.24 C21.9400031,14.2999953 21.7100054,13.5850024 21.2500031,13.095 C20.7900008,12.6049975 20.070008,12.36 19.0900031,12.36 C18.3299993,12.36 17.6100065,12.4499991 16.9300031,12.63 C16.2499997,12.8100009 15.6500057,13.0399986 15.1300031,13.32 L14.5034756,11.0922255 C14.3965472,10.7120356 14.5830745,10.3107054 14.942638,10.1473283 C15.718941,9.79459451 16.351396,9.55715176 16.8400031,9.435 C17.7600077,9.20499885 18.7499978,9.09 19.8100031,9.09 C21.7500128,9.09 23.2749975,9.6199947 24.3850031,10.68 C25.4950086,11.7400053 26.0500031,13.3099896 26.0500031,15.39 L26.0500031,24 L22.0900031,24 L22.0900031,22.44 Z M19.0100031,21.51 C19.590006,21.51 20.1300006,21.410001 20.6300031,21.21 C21.1300056,21.009999 21.5700012,20.7600015 21.9500031,20.46 L21.9500031,18.15 C21.530001,18.1900002 21.0800055,18.2299998 20.6000031,18.27 C20.1200007,18.3100002 19.6800051,18.3599997 19.2800031,18.42 C18.6800001,18.5200005 18.2000049,18.6849988 17.8400031,18.915 C17.4800013,19.1450011 17.3000031,19.5299973 17.3000031,20.07 C17.3000031,20.5500024 17.4550015,20.9099988 17.7650031,21.15 C18.0750046,21.3900012 18.4900005,21.51 19.0100031,21.51 Z M36.22,12.9 L35.53,12.9 C34.5099949,12.9 33.6600034,13.0599984 32.98,13.38 C32.2999966,13.7000016 31.760002,14.159997 31.36,14.76 L31.36,24 L27.25,24 L27.25,10.19 C27.25,9.7481722 27.6081722,9.39 28.05,9.39 L31.21,9.39 L31.21,11.97 C31.4900014,11.1099957 31.9349969,10.4400024 32.545,9.96 C33.155003,9.4799976 33.9699949,9.24 34.99,9.24 C35.4500023,9.24 35.8599982,9.2899995 36.22,9.39 L36.22,12.9 Z M35.5199999,9.39 L37.8899999,9.39 L37.8899999,6.41 C37.8899999,5.9681722 38.2481721,5.61 38.6899999,5.61 L41.9999999,5.61 L41.9999999,9.39 L46.3799999,9.39 L46.3799999,12.6 L41.9999999,12.6 L41.9999999,18.87 C41.9999999,19.5500034 42.1249987,20.089998 42.3749999,20.49 C42.6250012,20.890002 43.1199962,21.09 43.8599999,21.09 C44.6400038,21.09 45.3799964,20.9800011 46.0799999,20.76 L46.3799999,23.67 C45.9399977,23.8500009 45.3900032,23.9999994 44.7299999,24.12 C44.0699966,24.2400006 43.4100032,24.3 42.7499999,24.3 C41.8699955,24.3 41.125003,24.1650013 40.5149999,23.895 C39.9049969,23.6249986 39.4050019,23.2500024 39.0149999,22.77 C38.624998,22.2899976 38.3400008,21.7300032 38.1599999,21.09 C37.979999,20.4499968 37.8899999,19.7500038 37.8899999,18.99 L37.8899999,12.6 L35.5199999,12.6 L35.5199999,9.39 Z M47.4499999,24 L47.500533,3.61741303 C47.5016265,3.17636094 47.8594771,2.8193964 48.3005306,2.8193964 L51.6125115,2.8193964 L51.5599999,11.16 C52.0400023,10.4599965 52.6349964,9.9400017 53.3449999,9.6 C54.0550035,9.2599983 54.8299957,9.09 55.6699999,9.09 C56.6100046,9.09 57.4149966,9.289998 58.0849999,9.69 C58.7550033,10.090002 59.2999978,10.6249967 59.7199999,11.295 C60.140002,11.9650034 60.4499989,12.7449956 60.6499999,13.635 C60.8500009,14.5250045 60.9499999,15.4499952 60.9499999,16.41 L60.9499999,24 L56.8399999,24 L56.8399999,16.38 C56.8399999,15.0599934 56.635002,14.0600034 56.2249999,13.38 C55.8149979,12.6999966 55.1400046,12.36 54.1999999,12.36 C53.5999969,12.36 53.0800021,12.4999986 52.6399999,12.78 C52.1999977,13.0600014 51.8400013,13.3899981 51.5599999,13.77 L51.5599999,24 L47.4499999,24 Z" id="Combined-Shape" fill="#141419"></path>
                <path d="M78.59,18.9 L78.59,24 L74.54,24 L74.54,18.9 L66.47,18.9 L65.87,15.87 L73.3433576,4.38371101 C73.490962,4.15684825 73.7432642,4.02 74.0139185,4.02 L78.59,4.02 L78.59,15.72 L81.29,15.72 L81.29,18.9 L78.59,18.9 Z M74.54,7.77 L69.71,15.72 L74.54,15.72 L74.54,7.77 Z M92.9470759,7.27730677 L85.2999939,24 L81.1899939,24 L88.9899939,7.32 L80.6499939,7.32 L80.6499939,4.82 C80.6499939,4.3781722 81.0081661,4.02 81.4499939,4.02 L92.5849532,4.02002541 C92.9958074,4.02002541 93.3398625,4.3312542 93.3809228,4.7400515 C93.3842043,4.77272235 93.3865241,4.80247886 93.3878823,4.82932103 C93.410968,5.28556824 93.3959437,5.39760294 93.3715546,5.69615173 C93.3300925,6.20369212 93.1885996,6.73074379 92.9470759,7.27730677 Z" id="47" fill="#141419"></path>
                <circle id="Oval-5-Copy" fill="#35CF00" cx="100.100006" cy="20" r="5"></circle>
                <polygon id="Path-7" fill="#141419" points="36.1813812 12.9000015 38.0095809 12.9000015 38.0095809 11.7994847 35.1718921 11.7994847"></polygon>
                <polygon id="Path-2" fill="#141419" points="35.0863495 9.23999786 38.7887641 9.23999786 37.2092198 10.6954686 34.8149705 10.2336635"></polygon>
                <polygon id="Path-3" fill="#141419" points="35.1547053 10.101546 36.5620156 10.3666188 36.3768664 12.7347702 35.0767462 12.7347702"></polygon>
            </g>
        </g>
    </g>
</svg>