<svg xmlns="http://www.w3.org/2000/svg" viewBox="0 0 354.25 273.25"><defs><style>.cls-1{fill:#fff;}.cls-2{fill:#c9c9c9;}.cls-3{fill:#434343;}.cls-4{fill:#e56e1b;}.cls-5{fill:#424c5c;}.cls-6{fill:#5e6166;}.cls-7{fill:#acb3bc;}.cls-8{fill:#fbfbfb;}.cls-9{fill:#c8d1db;}.cls-10{fill:#6275b4;}.cls-11{fill:#454a50;}.cls-12{fill:#98c12a;}</style></defs><title>Asset 5</title><g id="Layer_2" data-name="Layer 2"><g id="Layer_1-2" data-name="Layer 1"><path class="cls-1" d="M1.69,253a12.12,12.12,0,0,0-.94,1.08,6.67,6.67,0,0,0-.47.92A10.58,10.58,0,0,0,0,256.39c0,.35,0,.68.05,1l.31.81a9.42,9.42,0,0,0,1.06,1.5,16.29,16.29,0,0,0,1.23,1.13l0,0,.4.21a22.72,22.72,0,0,0,2.77,1.34,11.48,11.48,0,0,0,1.63.33c.36,0,.71,0,1-.06a3.71,3.71,0,0,0,1-.39,2.59,2.59,0,0,0,.39-.25,6.48,6.48,0,0,0,.6-.68,12.18,12.18,0,0,0,.77-1.64,10.2,10.2,0,0,0,.33-1.75c0-.47,0-.93-.07-1.37s-.28-.8-.44-1.17a7,7,0,0,0-.56-.89,6.48,6.48,0,0,0-.74-.66A11.21,11.21,0,0,0,8,253a14.05,14.05,0,0,0-2.27-.36H5.31l-1,0-.41,0a5.08,5.08,0,0,1-1.3-.25,6.85,6.85,0,0,0-.94.61Z"/><path class="cls-2" d="M222.94,15.41h-.24l-1.26,0c-.37,0-.74.06-1.1.11s-1,.17-1.5.3l-.92.26a8.28,8.28,0,0,0-1.19.44l-1,.47a4.65,4.65,0,0,0-1,.7,6.82,6.82,0,0,0-.75.77,13.23,13.23,0,0,0-1.19,1.61,14.46,14.46,0,0,0-1.5,3.18,13.1,13.1,0,0,0-.66,2.8c0,.43-.08.86-.1,1.29,0,.22,0,.43,0,.66l.07.38-.52-.07c-.45,0-.9,0-1.34,0l-.66,0a17.75,17.75,0,0,0-1.92.16,12.64,12.64,0,0,0-3.53,1.05,18.47,18.47,0,0,0-2,1A11,11,0,0,0,198.77,32a8.29,8.29,0,0,0-1.14,1.37,8.64,8.64,0,0,0-1,1.77,11.18,11.18,0,0,0-.92,3l0,.39-.06.39c0,.28-.06.54-.08.81s0,.47,0,.7l.05.34h0a3.33,3.33,0,0,1-.78.09l-1.06.06-.81.09-.31.07v0c-.24,0-.49.05-.73.1-.87.13-1.72.27-2.58.45A20.34,20.34,0,0,0,185.06,43a18.14,18.14,0,0,0-2.28,1.27,21.93,21.93,0,0,0-2,1.38l-.83.65-.82.65c-.42.34-.83.71-1.24,1.08-.57.49-.9.82-1.24,1.15l-.29.28a34.42,34.42,0,0,0-2.49,2.84c-.43.53-.83,1.09-1.24,1.65a9.34,9.34,0,0,0-.94,1.93,15,15,0,0,0-.65,2.36c-.05.22-.09.46-.12.69l-.06.36c-.07.39-.11.77-.16,1.18a14.8,14.8,0,0,0,.2,4.72,7,7,0,0,0,.56,1.71c.1.21.2.43.32.63a9,9,0,0,0,.65,1,5.49,5.49,0,0,0,1.27,1.19,2.85,2.85,0,0,0,.54.32l-.12.43h0l-.14.48-.14.52-.11.4a18.61,18.61,0,0,0-.56,3.38,9.8,9.8,0,0,0,.09,1.88,13.76,13.76,0,0,0,.36,1.79,16.5,16.5,0,0,0,.57,1.72c.34.87.67,1.55,1,2.24a19.17,19.17,0,0,0,2.09,3.26,20.23,20.23,0,0,0,1.43,1.64,14.12,14.12,0,0,0,1.61,1.38,12,12,0,0,0,3.6,1.8,12.21,12.21,0,0,0,1.79.41,9.83,9.83,0,0,0,1.08.09l.41,0v0l.24.19.09.21a3.63,3.63,0,0,1,.28.79,9.46,9.46,0,0,1,.22,1l.06.32c.05.29.09.6.14.9.08.63.18,1.15.27,1.68a20.89,20.89,0,0,0,1.36,4.89,20.36,20.36,0,0,0,1.3,2.44,22.25,22.25,0,0,0,1.36,1.87,15.05,15.05,0,0,0,1.67,1.81,19.12,19.12,0,0,0,2.36,1.8,21.83,21.83,0,0,0,4.58,2.19,20.91,20.91,0,0,0,5.07,1.09c.62,0,1.25.07,1.87.07s1,0,1.57,0a5.09,5.09,0,0,0,.56,0l.35,0a9.31,9.31,0,0,0,1.28-.24l.06.32.26.83a14.55,14.55,0,0,0,.76,1.82,14.74,14.74,0,0,0,2.85,3.86,15,15,0,0,0,1.71,1.48c.69.53,1.39,1,2.13,1.46a26.77,26.77,0,0,0,4.66,2.13c.34.12.69.24,1,.34l-.07.39a5.83,5.83,0,0,0,0,1.28,7.44,7.44,0,0,0,.18,1.15,5,5,0,0,0,.44,1.2,9.53,9.53,0,0,0,.73,1.33,20.9,20.9,0,0,0,2.15,2.72l.32.36c.34.39.7.77,1.06,1.15l.43.46.75.81.79.85c.51.55,1.06,1.08,1.6,1.6.28.26.56.5.85.74s.64.54,1,.79.62.45.94.65.61.37.92.55.58.34.89.5.81.4,1.23.6c.68.31,1.37.57,2.07.83s1.17.37,1.76.53l.56.15.62.13.47.09.31,0,.31,0,.53.07,1.11.11.55,0,.53,0c1.71,0,3.28-.09,4.85-.24,1-.1,2-.22,3-.4.48-.08.95-.19,1.43-.29a13,13,0,0,0,2.58-.89l.38-.17.39-.17a9.51,9.51,0,0,0,1.74-1,17.81,17.81,0,0,0,1.44-1.16,8,8,0,0,0,1.19-1.3c.5-.66.85-1.12,1.16-1.61a12.46,12.46,0,0,0,1-1.85l.18-.41a23.56,23.56,0,0,0,1-2.78,18.44,18.44,0,0,0,.69-2.95c.08-.53.16-1,.2-1.56,0-.32.06-.62.08-.93l0-.45c0-.44.06-.9.08-1.35l0-.44,0-.45c0-.36.07-.71.12-1.07a.41.41,0,0,1,.33-.17,1.46,1.46,0,0,1,.22,0,7.38,7.38,0,0,0,1.26.11,6.92,6.92,0,0,0,1-.11c.56-.11,1-.2,1.41-.32a11.71,11.71,0,0,0,2.15-.85,14.31,14.31,0,0,0,1.37-.79,9.65,9.65,0,0,0,1.21-.92c.62-.51,1.1-.93,1.56-1.39a18.73,18.73,0,0,0,2-2.38,31.29,31.29,0,0,0,2.08-3.18,42.43,42.43,0,0,0,3.15-7,23.13,23.13,0,0,0,1-3.56,15,15,0,0,0,.22-1.77,13,13,0,0,0-.06-2.16,14.22,14.22,0,0,0-.76-3.37,11.53,11.53,0,0,0-.62-1.39,6.09,6.09,0,0,0-.63-.93,2.57,2.57,0,0,0,.54-.57l.2-.28a7.81,7.81,0,0,0,.43-.79,17.9,17.9,0,0,0,.71-1.81l.11-.32c.12-.35.22-.7.32-1.06l.14-.5a26.42,26.42,0,0,0,.88-4.55,19.86,19.86,0,0,0,0-4.68,14.23,14.23,0,0,0-1-3.9A18.82,18.82,0,0,0,288.1,72a10.89,10.89,0,0,0-1.34-1.78,9.08,9.08,0,0,0-1.81-1.5,10.32,10.32,0,0,0-1.89-.92.57.57,0,0,1,0-.58l.1-.3.23-.66c.2-.62.38-1.24.55-1.87a15,15,0,0,0,.26-1.49,18.5,18.5,0,0,0,.14-2.14,20,20,0,0,0-.53-4.53,14.75,14.75,0,0,0-.71-2.16,8.87,8.87,0,0,0-.81-1.52,10.15,10.15,0,0,0-1-1.27,6.25,6.25,0,0,0-.65-.61,6.94,6.94,0,0,0-.86-.68,12.75,12.75,0,0,0-3.12-1.73,14.44,14.44,0,0,0-2.37-.76,12.09,12.09,0,0,0-1.79-.27l-.35,0a.63.63,0,0,1-.25-.65v-.32c0-.33,0-.66,0-1a15.48,15.48,0,0,0-.26-2.37,11,11,0,0,0-1.29-3.51,13.16,13.16,0,0,0-1.2-1.68,17.24,17.24,0,0,0-5.06-4,14.11,14.11,0,0,0-4.32-1.46,14.28,14.28,0,0,0-1.86-.17h-.05a16.24,16.24,0,0,0-2.28.19,16.78,16.78,0,0,0-1.89.45l-.65.19,0-.28c0-.52,0-1.05,0-1.58,0-.33,0-.67-.05-1a18.06,18.06,0,0,0-.42-2.67,10.46,10.46,0,0,0-.88-2.27A10.11,10.11,0,0,0,250.19,23a10,10,0,0,0-1.72-1.48,9.58,9.58,0,0,0-2.56-1.23,15.89,15.89,0,0,0-2.49-.57,14.24,14.24,0,0,0-2.26-.17h-.53a15.33,15.33,0,0,0-2,.21,16.24,16.24,0,0,0-3.19.81,13.13,13.13,0,0,0-2.09,1l-1-.74a25.26,25.26,0,0,0-2.63-2.35l-.68-.55-.53-.43a11,11,0,0,0-1.2-.82,5.38,5.38,0,0,0-1-.48l-.75-.31a6.14,6.14,0,0,0-.89-.27,6.61,6.61,0,0,0-1.77-.17Z"/><path class="cls-2" d="M184.22,7.85h-.42a6.68,6.68,0,0,0-2.15.64,8.56,8.56,0,0,0-1.06.61,5.18,5.18,0,0,0-1.06,1,9,9,0,0,0-1.18,1.91,1.57,1.57,0,0,1-.67.23,11.11,11.11,0,0,0-4,1.16c-.19.14-.39.27-.57.42l-.37.35-.39.54a4.27,4.27,0,0,0-.29.61,4.7,4.7,0,0,0-.24,1,4.07,4.07,0,0,0,0,.7,5.1,5.1,0,0,0,.21,1.21,5.12,5.12,0,0,0,.25.53,1.53,1.53,0,0,0,.18.29,7.12,7.12,0,0,0-.43.92c-.09.23-.18.47-.25.71a3.18,3.18,0,0,0-.12,1c0,.21,0,.41.06.6a10,10,0,0,0,.29,1.2l.14.32.27.58.48.69a3.86,3.86,0,0,0,1.18.8,2.83,2.83,0,0,0,1,.27,1.75,1.75,0,0,0,.4,0,3.29,3.29,0,0,0,.54-.05,4.94,4.94,0,0,0,1-.22,7.28,7.28,0,0,0,1-.37c.28-.12.57-.26.85-.41l.38-.26a4.46,4.46,0,0,1,.5-.35l.73.19.52.13a5.24,5.24,0,0,0,.67.12,16.15,16.15,0,0,0,1.61.19h0a4.85,4.85,0,0,0,1-.09,4,4,0,0,0,1-.3,4.62,4.62,0,0,0,.84-.49,7.45,7.45,0,0,0,.69-.57,9.87,9.87,0,0,0,.84-.81c.2-.22.4-.45.59-.69s.26-.38.38-.58l.17-.25.55-.09v0a8.59,8.59,0,0,0,1.12-.24,5.27,5.27,0,0,0,2-.94,2.49,2.49,0,0,0,.51-.54,4.82,4.82,0,0,0,.44-.88,5.59,5.59,0,0,0,.37-2.56l-.08-.46a4.93,4.93,0,0,0-.26-.93,6.7,6.7,0,0,0-.45-1,6.24,6.24,0,0,0-.77-1.17l-.25-.33a10.22,10.22,0,0,0-.72-.88c-.28-.31-.55-.61-.85-.9a11.74,11.74,0,0,0-1.74-1.38,5.33,5.33,0,0,0-1.08-.51c-.42-.17-.83-.33-1.26-.47a6.48,6.48,0,0,0-2.13-.33Z"/><path class="cls-2" d="M302.66,2.14A5.73,5.73,0,0,0,302,2a17.17,17.17,0,0,0-3.42-.26,14,14,0,0,0-2.15.26,12,12,0,0,0-1.3.38c-.4.12-.8.26-1.19.41a3.38,3.38,0,0,0-.44.18,11.18,11.18,0,0,0-1.58-1.34,8.33,8.33,0,0,0-2-1.17,7.1,7.1,0,0,0-1-.32A6.25,6.25,0,0,0,287.14,0a5.29,5.29,0,0,0-1.19.2,5.42,5.42,0,0,0-1.14.52,3.78,3.78,0,0,0-.83.59,9.42,9.42,0,0,0-1.38,1.39,5.83,5.83,0,0,0-1,2,7.63,7.63,0,0,0-.23,1.65l-.32.37c-.49.15-.83.26-1.17.39a7.26,7.26,0,0,0-2.31,1.35l-.37.33a4,4,0,0,0-.66.7,4.37,4.37,0,0,0-.82,1.39,3.55,3.55,0,0,0-.28,1.17,3.91,3.91,0,0,0,.06,1.41,5,5,0,0,0,.78,1.79c.13.18.26.35.41.52a7,7,0,0,0,.59.63c.21.2.44.38.67.56a14.35,14.35,0,0,0,1.47,1,5.5,5.5,0,0,0,1.5.61,4.34,4.34,0,0,0,.79.13,5.58,5.58,0,0,0,1.08,0l.6-.09.39-.11.4-.11.38.07v0c.31.17.61.34.92.53s.31.19.46.29l.26.17.55.37.56.36c.34.24.7.45,1,.67a13,13,0,0,0,2.73,1.25l.25.06a6.9,6.9,0,0,0,.8.15,11.17,11.17,0,0,0,1.65.13,6.52,6.52,0,0,0,2.79-.57,5.33,5.33,0,0,0,.76-.37,5.19,5.19,0,0,0,1.32-1,3.78,3.78,0,0,0,.44-.61l.17-.36v0l.5.23a8.37,8.37,0,0,0,1.31.43l.53.12a9.83,9.83,0,0,0,1.52.12,10.06,10.06,0,0,0,2-.23,6.33,6.33,0,0,0,1.6-.61,12,12,0,0,0,2-1.3,6.32,6.32,0,0,0,1.4-1.39,4.37,4.37,0,0,0,.4-.65,4.1,4.1,0,0,0,.27-.64,4.4,4.4,0,0,0,.25-1.54,7.94,7.94,0,0,0-.07-1.06c0-.37-.09-.74-.15-1.09a12.27,12.27,0,0,0-.39-1.56,12.16,12.16,0,0,0-.46-1.13,14.26,14.26,0,0,0-1.09-2,14.45,14.45,0,0,0-1.31-1.72l-.32-.37a14.68,14.68,0,0,0-1-1.07,8.07,8.07,0,0,0-1.42-1,5.36,5.36,0,0,0-1.23-.57,7.21,7.21,0,0,0-1-.31Z"/><path class="cls-3" d="M120.37,130.62a1.49,1.49,0,0,0-1.31,1.59c-.07,1.81-.12,3.62-.08,5.43,0,1.49.19,3,.36,4.47.07.65.13,1.29.2,1.93s.08,1.39.15,2.09a8.52,8.52,0,0,0,.27,1.39,4,4,0,0,0,.51,1,4.24,4.24,0,0,0,.79.94,8.14,8.14,0,0,0,4,1.88,10.68,10.68,0,0,0,2.19.19c.92,0,1.84,0,2.77,0a24.48,24.48,0,0,0,4.2-.52,5.54,5.54,0,0,0,1.77-.88,6.49,6.49,0,0,0,1.13-1,6.66,6.66,0,0,0,1.32-2.61,16.07,16.07,0,0,0,.55-5c0-.86-.11-1.72-.19-2.59-.17-1.56-.32-3.41-2-4.08a3.11,3.11,0,0,0-2.34-.11,2.93,2.93,0,0,0-1.67,1.55,10.35,10.35,0,0,1-.58,1.32,12.52,12.52,0,0,1-.9,1,1.56,1.56,0,0,0-.2.16,24,24,0,0,0-2.68-.06l-2.56.12a10.06,10.06,0,0,0-4.07.73c0-.11,0-.21,0-.31-.1-2.44,0-4.88.06-7.32a1.47,1.47,0,0,0-1.49-1.32ZM138.21,139c-.1.16-.21.31-.3.47h0l.31-.47Z"/><path class="cls-3" d="M239.28,129.14a3.31,3.31,0,0,0-2.12,2.93,8,8,0,0,0,.08,1.29c0,.35,0,.69,0,1,0-.27,0-.54,0-.8a13.81,13.81,0,0,1-.32,2.65,20,20,0,0,0-.58,2.05,12.37,12.37,0,0,0-.17,2.43c0,.42,0,.83,0,1.25-.52,0-1,.07-1.56.07a4.2,4.2,0,0,0-1.53-.26,9.48,9.48,0,0,0-1.41.13l-1.23-.11a7.51,7.51,0,0,0-3.37,0c0-.2,0-.41,0-.61a2.16,2.16,0,0,0-4.29.42,25.78,25.78,0,0,0,.54,6.08,4.05,4.05,0,0,0,1.09,1.76,4.49,4.49,0,0,0,1.63.94,6.33,6.33,0,0,0,1.6.44,27.27,27.27,0,0,0,6.19-.12c.9-.09,1.82-.17,2.71-.33.65-.12,1.29-.28,1.93-.44l.93-.18a6.25,6.25,0,0,0,1-.27,4.14,4.14,0,0,0,2-2.18,20.9,20.9,0,0,0,1.66-6,30.43,30.43,0,0,0-.14-6.18c-.12-1.8.24-4.17-1.4-5.43a3.46,3.46,0,0,0-2.12-.76,3.09,3.09,0,0,0-1.1.2Z"/><path class="cls-4" d="M162.3,64.33c-1.38,0-2.76.06-4.14.12-1.57.07-3.12.17-4.68.34l-.92.08c-1.28.14-2.55.27-3.84.47-.77.11-1.53.22-2.3.37l-.41.08a18.48,18.48,0,0,0-2.33.36A5,5,0,0,0,141,67.56a9.44,9.44,0,0,0-2,3.49c-.08.24-.15.48-.21.73-.5.9-1,1.84-1.4,2.77l-.2.41c-.32.66-.6,1.34-.89,2l-.14.34c-.35.79-.67,1.57-.95,2.38-1.47,4.08-2.52,7.24-3.37,10.21a1.32,1.32,0,0,0,0,.49,3.12,3.12,0,0,0,0,.81l-.67.5c-.51.39-1,.77-1.52,1.19a17.38,17.38,0,0,0-1.55,1.43l-.34.36c-.3.31-.6.62-.91.92s-.85.64-1.28.95a13.46,13.46,0,0,0-4.89,5.39c-.35.56-.69,1.12-1,1.7a18,18,0,0,0-.91,2,17.57,17.57,0,0,0-.66,2.25,12.34,12.34,0,0,0-.23,2.36c-.06,1.58-.07,3.16-.07,4.75,0,.92.06,1.84.12,2.77,0,.58.07,1.18.09,1.76,0,.86,0,1.7.08,2.55l0,1.91c0,.8.09,1.61.16,2.41s.18,1.51.29,2.26c.27,1.78.4,3.49.53,5.21.08,1.06.16,2.12.27,3.16a9.79,9.79,0,0,0,.32,1.73,4.29,4.29,0,0,0,.86,1.52,5.2,5.2,0,0,0,2.08,1.57,11.15,11.15,0,0,0,2.18.67,17.84,17.84,0,0,0,3,.24c.44,0,.86,0,1.29,0l2.15-.08,2.13-.07c1.55,0,3-.1,4.55-.11h.73c.93,0,1.85,0,2.78.05l1,0,3.35.07,3.33.07c1.2,0,2.39,0,3.58,0,.86,0,1.71,0,2.57-.07h.64c1.36,0,2.7,0,4.05,0l2.89,0,2.3-.08c1,0,2-.07,3.07-.07.43,0,.87,0,1.29,0,.77,0,1.56.08,2.36.1.31,0,.61,0,.9,0l1.66,0,1.65,0h0l1.76.11,2.07.13c1.69.1,3.37.18,5,.26l1.9.12,3.15.18c1.28.06,2.56.1,3.83.14l1.53.05c2,.11,4.25.13,6.45.14l2.1,0c1.59,0,3.16,0,4.74.07,3,.12,6,.13,9.08.14h1.88l3,0c1.48,0,2.95,0,4.42-.06s3-.1,4.42-.25l2.21-.23.88-.09,1.28-.12a6.25,6.25,0,0,0,3.84-1.58,6.62,6.62,0,0,0,1.34-2,14.87,14.87,0,0,0,.51-1.51l.09-.34a18.48,18.48,0,0,0,.66-2.76c.07-.4.12-.81.15-1.22a3.22,3.22,0,0,0-.18-1.59A2.37,2.37,0,0,0,242,132l.05-.35,0-.39c.09-.72.12-1.46.16-2.19l0-.46c.06-1.08.11-2.16.12-3.25,0-.74,0-1.48,0-2.22v-.74c0-.94,0-1.88-.1-2.81-.06-1.16-.05-2.31,0-3.47v.06l.11-2.09c.06-1.19.11-2.36.15-3.57l.05-1.59c.06-1.38.11-2.76,0-4.13a14.27,14.27,0,0,0-.34-2.49c-.1-.55-.24-1.13-.38-1.67a10.11,10.11,0,0,0-.62-1.61,6.07,6.07,0,0,0-1.59-2c-.26-.22-.52-.41-.8-.61l-.31-.23a19.83,19.83,0,0,0-2-1.33l-.65-.44c-.43-.31-.85-.61-1.28-.88l-.62-.4c-.61-.41-1.21-.8-1.83-1.17s-1.22-.64-1.82-.94l-.68-.33-.43-.18h0a2.12,2.12,0,0,0-.08-1.43c-.15-.28-.32-.54-.47-.81l-.32-.53-.34-.66-.21-.42a13.85,13.85,0,0,1-.87-2.4l-.52-1.66c-.35-1.08-.69-2.17-1-3.29l-.12-.38,0,0a27.63,27.63,0,0,0-.54-2.71,20.52,20.52,0,0,0-.95-2.73c-.32-.84-.5-1.39-.67-2-.09-.33-.2-.66-.3-1a9.75,9.75,0,0,0-1.81-3.3l-.46-.48a1.48,1.48,0,0,0-.86-1.36,3,3,0,0,0-1.25-.21h-2.79c-.4,0-.82,0-1.24.1l-.61.06h-.55c-.45,0-.89,0-1.32,0l-1.3-.11c-.59,0-1.2-.09-1.81-.11s-1.41,0-2.13,0h-1.07l-1.13,0-1.16,0-.44,0v0c-.58,0-1.15,0-1.73,0h-.83c-.75,0-1.32-.1-1.9-.15s-1.4-.13-2.1-.16c-1,0-2.06,0-3.08,0h-1q-.85,0-1.71,0c-.81,0-1.62,0-2.43,0l-2.43.11-2.36.09c-.74,0-1.48.06-2.22.09L180,65l-1.2,0-2.38-.09h0c-3-.15-6-.3-8.93-.47-1.18-.06-2.33-.06-3.5-.06H162.3ZM135.66,91.08a.88.88,0,0,1-.18-.3l-.16-.32.11-.34.25-.47c.38-.76.76-1.54,1.12-2.31.7-1.52,1.34-3,2-4.61.18-.46.37-.92.56-1.39s.45-1.07.67-1.62.35-1,.57-1.7l.13-.39c.11-.32.21-.65.34-1a34.2,34.2,0,0,1,2.69-5.59,1.78,1.78,0,0,1,.22-.26l.31-.19a22.38,22.38,0,0,1,3.57-1.17c1.1-.23,2.2-.45,3.29-.6.73-.1,1.47-.18,2.19-.25l.55-.06.74-.07c1.14-.11,2.27-.17,3.42-.21.75,0,1.49-.07,2.22-.12l1.09,0c1.83-.1,3.7-.19,5.56-.19h.85c2.3,0,4.55.07,6.76.14l.94,0,2.89.12,1.31,0,1.07,0,1.09,0c1.91.07,3.82.12,5.73.17l1.43,0c.62,0,1.25,0,1.87,0,1.2,0,2.41,0,3.62-.06l.89,0,1.29,0c2.48-.07,4.95-.15,7.43-.15a29.38,29.38,0,0,1,3,.12h.54l-.21-.07c.91,0,1.8.11,2.7.19l.47,0,.34,0a26.79,26.79,0,0,1,2.68.3l.79.14.38.07,1.11.21.49.07.45.07a8,8,0,0,1,1.25.22,1.22,1.22,0,0,1,.28.14,2.93,2.93,0,0,1,.34.24c.28.39.53.78.77,1.19A14.71,14.71,0,0,1,220,72.7l.22.59c.12.32.24.63.37.93l.25.55c.16.35.31.69.43,1,.19.56.36,1.13.52,1.71l.23,1.09c.12.63.25,1.28.41,1.92s.3,1.25.47,1.87l.2.64c.11.53.17,1,.23,1.54l.09.76c.08.61.18,1.2.3,1.81l.09.63s0,.07,0,.11h0V88a19.93,19.93,0,0,0-2.07-.12,18,18,0,0,0-2.2.15l-1.62.19-2.37.29c-.47,0-1,.08-1.45.12l-.71.06-1.72.14c-1.47.13-3,.26-4.44.36s-3.09.14-4.64.19l-1.09,0c-1.13,0-2.26,0-3.4-.08s-2.13,0-3.2,0c-2,0-4,0-6.23.1-2.64.08-5.28.22-7.92.37s-6.55.35-10.18.4l-4.33,0h-3c-.8,0-1.61,0-2.41,0-2.77,0-5.87.17-9.46.43-1.33.09-2.67.2-4,.32l-.51,0c-2.33.2-5,.44-7.58.44h-.7a22.34,22.34,0,0,1-3-.33Zm91.25,24.08a19.74,19.74,0,0,1-4-2.1,6.35,6.35,0,0,1-1-.71,7.84,7.84,0,0,1-.48-.76,22.09,22.09,0,0,1-1-2.51,7,7,0,0,1-.13-1.12,11.33,11.33,0,0,1,.39-1.68,15.68,15.68,0,0,1,1.43-3.23c.15-.25.33-.49.65-.93l.33-.43a8.87,8.87,0,0,1,.83-1A11.74,11.74,0,0,1,225,100a9.8,9.8,0,0,1,2-.76c.23,0,.45-.07.67-.08h0l.26.17.33.19,1.26.69c.81.63,1.47,1.13,2.07,1.7a21.92,21.92,0,0,1,2.25,3.39,11.58,11.58,0,0,1,.93,2.14,5.92,5.92,0,0,1,.09,1,13,13,0,0,1-.37,1.75,12.86,12.86,0,0,1-.81,1.67,16.1,16.1,0,0,1-1.89,2.28,8.3,8.3,0,0,1-.87.63c-.36.16-.72.3-1.09.44a10,10,0,0,1-1.45.12,8.37,8.37,0,0,1-1.53-.24Zm-93.81,2.19a10.83,10.83,0,0,1-1.7-.66c-.43-.22-.86-.46-1.27-.72a12.62,12.62,0,0,1-1.7-1.35,6.19,6.19,0,0,1-.62-.87,16.55,16.55,0,0,1-.81-2.41,13.6,13.6,0,0,1-.25-1.58c0-.6,0-1.19,0-1.8a8,8,0,0,1,.15-1.4,16,16,0,0,1,.44-1.75,8.2,8.2,0,0,1,.55-1.16,13.83,13.83,0,0,1,2-2.51,11.8,11.8,0,0,1,1.32-.85,9,9,0,0,1,1.3-.5,12.61,12.61,0,0,1,2-.22l0,.05a2.69,2.69,0,0,0,1.06,1.08,10.86,10.86,0,0,1,1.36.69,12.44,12.44,0,0,1,1.5,1.19l.74.66c.36.31.72.62,1.05,1a17.27,17.27,0,0,1,1.89,2.75,9.45,9.45,0,0,1,.52,1.44,11.94,11.94,0,0,1,.21,1.81,8.72,8.72,0,0,1-.31,1.6,16.66,16.66,0,0,1-1.05,2.17,17,17,0,0,1-1.57,1.83,11.14,11.14,0,0,1-1.24.89,13,13,0,0,1-2.13.8,9.47,9.47,0,0,1-1.84.17,7.53,7.53,0,0,1-1.63-.31ZM186,124.71c1.67.15,3.52.35,5.35.55l.43,0c2,.2,4.05.36,6.09.51,1.34.11,2.7.17,4,.21l2.36.12a19.34,19.34,0,0,1,4.21.65,4.75,4.75,0,0,1,.78.36c0,.47,0,1,0,1.47-.08,1.44-.2,2.85-.41,4.28a15.67,15.67,0,0,1-.49,2.18l-.2.45-.27.35-.39.51-.68.77c-.19.13-.37.25-.65.42a10.53,10.53,0,0,1-1.62.65,12.4,12.4,0,0,1-2.47.17h-.87c-.81,0-1.63.08-2.45.14l-1.53.1-2.17.12-2.18.12c-1.7.1-3.4.12-5.12.12h-.46l-.47,0h-6c-1.44,0-2.88,0-4.25-.06l-2.27,0-1.81,0c-2.14-.13-4.28-.19-6.43-.25l-.9,0h-.82c-.83,0-1.67-.05-2.51-.05h-2.75a20.74,20.74,0,0,1-2.21-.17,17.18,17.18,0,0,1-2-.49,8.64,8.64,0,0,1-1-.42c-.12-.1-.24-.19-.35-.3a15.67,15.67,0,0,1-1.53-2.31,12.91,12.91,0,0,1-.94-2.88c-.14-.63-.33-1.25-.52-1.87l-.25-.82-.11-.36a13.44,13.44,0,0,1-.23-2.6,2,2,0,0,1,1.11-.38l.64-.06c.67-.06,1.31-.07,2-.09l.7,0h.68l.69,0,.58,0c.37,0,.74,0,1.11,0h.38c.82,0,1.64,0,2.45-.06l.62,0,1,0c1.5,0,3-.1,4.5-.17l1.83-.08c.93,0,1.85-.07,2.76-.12l1.58-.1c1.08-.06,2.15-.12,3.22-.15l3.1-.13,1.26,0c1.63-.07,3.26-.13,4.91-.18h.46l.41,0s0-.08.05-.08Zm36.55,10.82c-.21,0-.46,0-.72-.05a9.91,9.91,0,0,1-1.25-.3,6.56,6.56,0,0,1-1.13-.52,2.85,2.85,0,0,1-.5-.38l-.2-.29-.18-.44a11,11,0,0,1-.08-1.53c0-.81.08-1.63.09-2.42a14.57,14.57,0,0,1,.33-2.35s0,0,0-.07a.64.64,0,0,1,0-.07c.32,0,.67,0,1-.06l1-.09.5,0c1-.06,2.09-.19,3.12-.33s2.17-.27,3.32-.33c.82-.06,1.63-.11,2.44-.11a8,8,0,0,1,2.19.36,6.09,6.09,0,0,1,.07,1.19,14.23,14.23,0,0,1-.46,2.42,24.67,24.67,0,0,1-1.69,4.21l-.24.24a15.34,15.34,0,0,1-2.07.73,35.32,35.32,0,0,1-4.32.25l-1.27,0Zm-92.1-1a10.52,10.52,0,0,1-1.55-.64,5.59,5.59,0,0,1-.6-.46,8.61,8.61,0,0,1-.81-1.22c-.24-.49-.46-1-.65-1.48s-.35-1.09-.56-1.82a8.61,8.61,0,0,1-.16-1.37,5.27,5.27,0,0,1,.12-.73s0,0,0,0l1.14,0H130c2.15.1,4.31.18,6.67.26a24.07,24.07,0,0,1,2.48.22l.39,0,0,0,.07,0a1.54,1.54,0,0,0-.39,1.27l.22.95.12.43a16.82,16.82,0,0,1,.27,3.39,5.67,5.67,0,0,1-.22,1.43,11.52,11.52,0,0,1-2.23.17h-.44c-.46,0-.93,0-1.4,0s-1.11,0-1.68,0a15.35,15.35,0,0,1-3.33-.58Z"/><path class="cls-4" d="M232.82,81.42a3.36,3.36,0,0,0-1.79.65,4.86,4.86,0,0,0-.6.6,11.66,11.66,0,0,0-1.34,2.91c-.37.89-.87,1.73-1.27,2.61S227,90.1,226.52,91a2.17,2.17,0,0,0,3.92,1.85,33.63,33.63,0,0,0,1.81-4.4c.2-.63.36-1.29.53-1.93a9.89,9.89,0,0,0,2.61.1c1.21,0,2.44.06,3.65,0a5.19,5.19,0,0,0,2.53-.53,2.48,2.48,0,0,0,1.06-2.21,3.16,3.16,0,0,0-.46-1.61,2,2,0,0,0-1.32-.86,5.06,5.06,0,0,0-.87,0c-1.41-.07-2.81-.06-4.22-.09H234.7a16.79,16.79,0,0,0-1.88.09Zm7.45,0h0Z"/><path class="cls-4" d="M125.4,81.67a10.85,10.85,0,0,0-2,.26,10.11,10.11,0,0,0-1,.29,1.41,1.41,0,0,0-1.63.39,8.88,8.88,0,0,0-1.3,1.9,2,2,0,0,0-.59,1.1,2,2,0,0,0,1.63,2.3,7.8,7.8,0,0,0,1.36.11,13.83,13.83,0,0,0,2.73,0c.54-.06,1.09-.15,1.62-.2.35,0,.7-.06,1-.08l.09.37a13.24,13.24,0,0,0,.86,2.53,8.87,8.87,0,0,0,1.13,1.81A5.47,5.47,0,0,0,131,94a1.75,1.75,0,0,0,2.46-1.74,7,7,0,0,0-.3-1.26c0-.1,0-.2,0-.3a9.77,9.77,0,0,0,0-1.21,13.21,13.21,0,0,0-.46-2.25,10.65,10.65,0,0,0-.69-2,7.8,7.8,0,0,0-.74-1.32c0-.1,0-.19-.07-.29a3.09,3.09,0,0,0-.76-1.26,1.29,1.29,0,0,0-.37-.33,2,2,0,0,0-.92-.4c-.39,0-.79,0-1.18,0-.86,0-1.71,0-2.58.11Z"/><path class="cls-5" d="M166.87,67.89h0c-1.86,0-3.73.1-5.56.19l-1.09.06c-.73,0-1.47.1-2.22.12-1.15,0-2.28.09-3.43.2l-.73.07-.55.06c-.73.07-1.46.16-2.19.25-1.1.16-2.19.37-3.29.61a20.43,20.43,0,0,0-3.57,1.16l-.32.19a2.78,2.78,0,0,0-.21.27A31.59,31.59,0,0,0,141,76.66c-.13.32-.24.65-.35,1l-.13.38c-.21.68-.38,1.19-.57,1.71s-.44,1.08-.66,1.61-.38.93-.56,1.4c-.62,1.55-1.26,3.08-2,4.6-.35.77-.73,1.54-1.11,2.31l-.25.47-.11.34.15.32a2.63,2.63,0,0,0,.18.3,24.51,24.51,0,0,0,3,.32h.7c2.6,0,5.25-.23,7.59-.43l.51,0c1.33-.12,2.66-.24,4-.32,3.59-.26,6.69-.4,9.46-.43.8,0,1.61,0,2.41,0h3l4.34,0c3.63,0,7.57-.26,10.17-.41s5.28-.28,7.92-.37c2.2,0,4.21-.09,6.23-.09,1.07,0,2.14,0,3.2,0s2.27.09,3.4.09l1.1,0c1.54,0,3.09-.09,4.64-.19s3-.22,4.44-.35l1.71-.15.71-.06c.49,0,1-.07,1.46-.12l2.36-.28,1.62-.19a17.86,17.86,0,0,1,2.2-.16,19.93,19.93,0,0,1,2.07.12l-.11-.8c-.11-.61-.22-1.21-.3-1.81l-.09-.76c-.06-.52-.12-1-.23-1.53l-.19-.65c-.17-.61-.34-1.23-.48-1.86s-.29-1.3-.41-1.94l-.23-1.07c-.16-.59-.32-1.16-.51-1.72-.12-.34-.28-.69-.43-1l-.25-.56c-.13-.29-.25-.6-.37-.92L220,72.7a14.71,14.71,0,0,0-.62-1.47c-.24-.41-.49-.8-.77-1.19a2.8,2.8,0,0,0-.33-.24l-.29-.15a9.32,9.32,0,0,0-1.25-.21l-.45-.06-.49-.07-1.1-.22-.38-.07-.79-.14a27,27,0,0,0-2.69-.3l-.33,0-.48,0c-.89-.08-1.79-.17-2.7-.19l.44.14a26,26,0,0,0-3.74-.2c-2.47,0-4.95.07-7.42.14l-1.3,0-.89,0c-1.21,0-2.42.06-3.62.06l-1.87,0-1.43,0c-1.91,0-3.82-.09-5.73-.16l-1.08,0-1.07,0-1.31,0c-1,0-1.93-.07-2.89-.12l-.94,0c-2.22-.07-4.47-.1-6.76-.14Z"/><path class="cls-5" d="M126.32,126.77l-.06,0a6.45,6.45,0,0,0-.11.73,8.36,8.36,0,0,0,.16,1.37,17.78,17.78,0,0,0,.55,1.82c.19.5.41,1,.65,1.48a8.61,8.61,0,0,0,.81,1.22,6.8,6.8,0,0,0,.6.46,11,11,0,0,0,1.55.64,14.77,14.77,0,0,0,3.33.58c.58,0,1.14,0,1.68,0l1.41-.05h.44a12.34,12.34,0,0,0,2.23-.16,5.55,5.55,0,0,0,.21-1.42,16.86,16.86,0,0,0-.27-3.4l-.11-.42-.23-1a1.53,1.53,0,0,1,.39-1.28,22.6,22.6,0,0,0-2.91-.28c-2.37-.08-4.52-.17-6.68-.26h-1.07l-1.08,0h-.37l-1.12,0Z"/><path class="cls-5" d="M230.36,126.17c-.81,0-1.62.06-2.44.12-1.15.06-2.23.18-3.32.32s-2.07.27-3.11.33l-.5,0-1,.08a9.26,9.26,0,0,1-1,.06,15.1,15.1,0,0,0-.36,2.49c0,.79,0,1.61-.09,2.42a11.19,11.19,0,0,0,.08,1.54l.17.44.21.27a2.4,2.4,0,0,0,.49.39,7.23,7.23,0,0,0,1.14.53,10.16,10.16,0,0,0,1.24.29c.26,0,.52,0,.72.05l1.27,0a33.48,33.48,0,0,0,4.33-.25,12.53,12.53,0,0,0,2.06-.72l.24-.24a23.61,23.61,0,0,0,1.7-4.21,14.43,14.43,0,0,0,.45-2.41,6.14,6.14,0,0,0-.07-1.2,8.27,8.27,0,0,0-2.18-.36Z"/><path class="cls-5" d="M186,124.72s-.05,0-.05.07l-.41,0h-.47c-1.64,0-3.27.1-4.9.18l-1.26,0-3.11.13c-1.07,0-2.14.1-3.21.16l-1.58.09c-.92,0-1.83.09-2.76.12l-1.84.09c-1.49.07-3,.11-4.49.16l-1,0-.62,0c-.8,0-1.62.06-2.45.06h-1.48l-.58,0-.69,0h-1.39c-.66,0-1.31,0-2,.08l-.65.06a2,2,0,0,0-1.1.38,13.68,13.68,0,0,0,.23,2.61l.11.35.24.82c.19.62.38,1.24.52,1.86a13.35,13.35,0,0,0,.94,2.89,16.36,16.36,0,0,0,1.54,2.3c.11.11.23.21.35.31a9.14,9.14,0,0,0,1,.43,18.26,18.26,0,0,0,2,.48,20.71,20.71,0,0,0,2.22.16l.92,0H161l.92,0c.83,0,1.68,0,2.51,0h.82l.89,0c2.16.06,4.3.12,6.44.25l1.81,0,2.27.05c1.37.05,2.81.06,4.25.06h7c1.71,0,3.41,0,5.12-.12l2.17-.12,2.18-.12,1.52-.09c.83-.06,1.65-.12,2.45-.14l.87,0a13.38,13.38,0,0,0,2.48-.16,10,10,0,0,0,1.62-.65c.29-.17.46-.29.66-.42l.67-.78.39-.51.26-.34.21-.45a15.83,15.83,0,0,0,.48-2.17c.21-1.43.33-2.85.41-4.29,0-.49,0-1,0-1.47a3.81,3.81,0,0,0-.77-.37,19.56,19.56,0,0,0-4.21-.63l-2.36-.12c-1.34-.05-2.7-.11-4-.21-2-.16-4.07-.31-6.09-.52l-.43,0c-1.84-.21-3.68-.41-5.35-.55Z"/><path class="cls-1" d="M227.71,99.18h0l-.67.09a10.22,10.22,0,0,0-2,.75,9.76,9.76,0,0,0-1,.68,11.68,11.68,0,0,0-.84,1l-.32.42c-.32.44-.49.68-.65.92a15.54,15.54,0,0,0-1.43,3.24,10.44,10.44,0,0,0-.39,1.68,7,7,0,0,0,.13,1.12,20.35,20.35,0,0,0,1,2.51,6.78,6.78,0,0,0,.48.76,7.88,7.88,0,0,0,1,.72,20.51,20.51,0,0,0,4,2.09,7.46,7.46,0,0,0,1.53.23,9,9,0,0,0,1.46-.12c.36-.13.72-.26,1.08-.43a7.27,7.27,0,0,0,.86-.63,15.46,15.46,0,0,0,1.9-2.27,13.64,13.64,0,0,0,.81-1.68,10.45,10.45,0,0,0,.36-1.75,5.83,5.83,0,0,0-.09-1,11.4,11.4,0,0,0-.91-2.14,22.19,22.19,0,0,0-2.26-3.39c-.61-.57-1.26-1.07-2.07-1.7-.49-.26-.88-.48-1.25-.7l-.34-.19-.26-.16Z"/><path class="cls-1" d="M134.49,99.58h0a12.83,12.83,0,0,0-2,.21,8.21,8.21,0,0,0-1.29.49,10.29,10.29,0,0,0-1.32.86,13.83,13.83,0,0,0-2,2.51,7.23,7.23,0,0,0-.55,1.16,14.26,14.26,0,0,0-.43,1.74,8.11,8.11,0,0,0-.16,1.41,17.94,17.94,0,0,0,.06,1.8,12.84,12.84,0,0,0,.25,1.57,15.05,15.05,0,0,0,.8,2.43,6.08,6.08,0,0,0,.62.86,13.28,13.28,0,0,0,1.7,1.35c.4.26.83.5,1.26.73a10.51,10.51,0,0,0,1.71.65,6.94,6.94,0,0,0,1.63.3,10.43,10.43,0,0,0,1.85-.16,14.18,14.18,0,0,0,2.12-.79,11.45,11.45,0,0,0,1.23-.9,15.34,15.34,0,0,0,1.58-1.84,13.88,13.88,0,0,0,1.05-2.16,7.83,7.83,0,0,0,.3-1.6,11,11,0,0,0-.2-1.82,7.87,7.87,0,0,0-.52-1.43,17.27,17.27,0,0,0-1.89-2.75c-.34-.34-.7-.65-1.05-1l-.74-.66a15.23,15.23,0,0,0-1.49-1.19,11,11,0,0,0-1.37-.69,2.62,2.62,0,0,1-1.06-1.08l0,0Z"/><path class="cls-6" d="M210.08,214.54a2.29,2.29,0,0,0-1.57.74,2.41,2.41,0,0,0-.59,1.69c0,1.45-.13,2.91-.06,4.37.06,1.3.17,2.6.24,3.89,0,.6,0,1.2.05,1.8a5.81,5.81,0,0,0,.19,1.38,4.8,4.8,0,0,0,1.17,2,7,7,0,0,0,2.24,1.51c.34.15.69.28,1.05.4a16.76,16.76,0,0,0,2.42.7l.85.18a20.07,20.07,0,0,0,3.13.75,19.69,19.69,0,0,0,4.79.2c.25,0,.49-.06.72-.1,1.25,0,2.49-.15,3.74-.25a5.73,5.73,0,0,0,1.88-.29,2.74,2.74,0,0,0,1.52-1.66,7.52,7.52,0,0,0,.51-1.84c.12-.81.18-1.61.26-2.4.11-1.34.5-2.9-.63-3.94a2.25,2.25,0,0,0-2.71-.23,2.91,2.91,0,0,0-.87.95l-.77-.52c-.58-.36-1.18-.66-1.77-1-1.25-.64-2.56-1.09-3.84-1.61s-2.6-1.29-3.9-2l-1.77-.84-1-.41a13.22,13.22,0,0,0-1.87-.7,4.57,4.57,0,0,0-1-.12c0-.18,0-.35,0-.52a2.29,2.29,0,0,0-2.31-2.16Z"/><path class="cls-6" d="M347.6,216.25a3.7,3.7,0,0,0-1.7.57l-.21.12c-1.85.2-3.76.13-5.62.19-1.62.05-3.23.14-4.84.31-2.54.28-5.17,1-6.84,3.06a12.37,12.37,0,0,0-1,1.4,9,9,0,0,0-.63,1.72,7,7,0,0,0-.21,2,4.23,4.23,0,0,0,.74,2.29,1.93,1.93,0,0,1,0,.24,2.73,2.73,0,0,0,0,2.27,4.76,4.76,0,0,0,1.42,3.64,8.25,8.25,0,0,0,3.1,1.37,19,19,0,0,0,2.11.49,31.66,31.66,0,0,0,4.95.39c2,0,4.27.15,6.14-.63a18.25,18.25,0,0,1,1.73-.68,4.79,4.79,0,0,0,2.39-1.41c1.89-2.17,2-5.11,2-7.84,0-1.23,0-2.45.06-3.68.05-.7.11-1.43.09-2.13a3.8,3.8,0,0,0-2-3.28,3.39,3.39,0,0,0-1.61-.39Zm-3.19,3.84c0,.26.09.52.14.78h0c-.05-.25-.1-.5-.14-.77Zm.15.81h0V221h0l0-.09Zm-4.3,3.81-.41.15c-1,.08-1.93.12-2.9.19l-1,.07c1.42-.2,2.86-.31,4.29-.41Zm-.19.12h0Z"/><path class="cls-7" d="M232.12,164.37c1.12,2.06,2.27,4.12,3.45,6.15a62.46,62.46,0,0,1,3.28,6.13c.47,1.07,1,2.12,1.5,3.14a16.5,16.5,0,0,0,1.45,2.3c.66.83,1.37,1.59,2.1,2.35l.45.48.33.36c.83.9,1.57,1.67,2.4,2.41a17.62,17.62,0,0,0,2.56,1.47,44.53,44.53,0,0,0,9.7,2.56q3,.36,5.93.58l1.86.14c1.5.13,3,.25,4.52.31,2.22.1,4.45.12,6.66.15h2.24c3.05,0,6.08,0,9.12.18l2.47.13.67,0c1.82.09,3.64.18,5.47.2v0h.58c1.91,0,4.15-.12,6.86-.39l.34-.11a18.72,18.72,0,0,0,4.52-.93,12.77,12.77,0,0,0,2-1.22,35.45,35.45,0,0,0,3.76-3.66l.31-.33a57,57,0,0,0,3.87-4.44,37.48,37.48,0,0,0,2.89-4.33l.9-1.63.41-.75.39-.67c.32-.6.66-1.2,1-1.8,1-1.64,1.87-3.33,2.75-5l.6-1.14c.55-1,1.11-2.11,1.57-2.91l.08-.35a26.47,26.47,0,0,0,1.1-3.24l.08-.33.06-.3-.12,0H332l-.36,0-.35,0c-1.47-.14-3.18-.22-5.88-.26h-1.58q-3.17,0-6.34.11c-.84,0-1.66.07-2.66.14l-1.05.05c-1.34.08-2.69.16-4,.19l-8.41.26c-4.61.15-9.23.21-13.85.27l-4.26.06-4.5.12-1.5,0-.88,0c-2.62.08-5.24.16-7.85.16-1.26,0-2.52,0-3.78-.07l-3.38-.09c-2.07-.05-4.13-.1-6.2-.2-1.06-.05-2.13-.14-3.21-.23l-1.06-.09-1.11-.08c-1.11-.08-2.23-.16-3.35-.28l-.92-.1-.38,0c-1-.11-2.09-.22-3.14-.28-1.56-.07-3.12-.12-4.69-.17s-3.06-.11-4.58-.25c-1.13-.1-2.25-.21-3.38-.39.89,2.06,1.9,3.93,2.85,5.67Z"/><path class="cls-6" d="M247.68,209.8l-1.91.13c-1,.07-1.92.13-2.88.17l-1,0H240.5l-2.1,0c-.82,0-1.62.06-2.65.12l-1.59.05c-1.59.06-3.19.06-4.79.06s-3.41.07-5.11.14l-.65,0-.66,0-.62,0-.5.15a16.25,16.25,0,0,1,.64,1.57c.12.36.24.69.43,1.18a8.7,8.7,0,0,0,.72,1.27,22.43,22.43,0,0,0,2.5,2.37,9.84,9.84,0,0,0,1.69,1,16.88,16.88,0,0,0,3.22.89c1.19.25,2.41.47,3.63.66l.61,0c.37,0,.7.07,1,.13l.31.06.33.06a10.57,10.57,0,0,0,1.13,0h3.1c1.72,0,3.45.09,5.18.17,1.43.06,2.87.08,4.33.09h2.63a19.93,19.93,0,0,0,2.3-.17l1.56-.23a30.24,30.24,0,0,1,4.33-.33c1.29,0,2.57.08,3.85.14l.72,0c1.84.08,3.67.13,5.51.17l1.11,0,2.18,0c1.12,0,2.22.05,3.34.05,1.76,0,3.54,0,5.3-.13,1.6-.06,3.18-.18,4.9-.3l1.09-.07,2.73-.19,1.51-.1c1-.08,2-.15,3-.21,1.15,0,2.32-.05,3.47-.05h2.89c2.33,0,4.64,0,7-.06l.67,0c2.71-.06,5.37-.13,8-.28,1.47-.09,2.93-.2,4.38-.35,1-.11,2.06-.23,3.09-.37l1-.13.57-.08a26.64,26.64,0,0,0,6.56-1.43,9.56,9.56,0,0,0,1.1-.57,12.13,12.13,0,0,0,1.15-.77,9.93,9.93,0,0,0,1.44-1.34,5.53,5.53,0,0,0,.46-.88c.07-.26.14-.51.19-.79s0-.45,0-.71h0a8.14,8.14,0,0,0-1.65-.4c-.39,0-.8-.06-1.28-.07h-.31l-.44,0c-.85,0-1.7,0-2.56-.06h-2.23c-1.85,0-3.69,0-5.53.05h-1.12c-2.19,0-4.21.07-6.25.07-.87,0-1.71,0-2.58,0-1.52,0-3-.06-4.57-.11h-1.27c-1,0-2,0-3,0l-3.2.12h-.61l-.58,0-.95,0c-1.46.05-2.93.12-4.37.28l-.6.08a4.38,4.38,0,0,0-.2.91l-.12.84a8.2,8.2,0,0,1-.52,2,2.64,2.64,0,0,1-.86,1.27,2,2,0,0,1-1,.33c-1.33.19-2.68.26-4,.32l-.63,0c-1.28,0-2.57.09-3.84.09H283l-3.29,0c-3.5,0-6.34-.13-8.94-.31a15.24,15.24,0,0,1-2.34-.27,4.6,4.6,0,0,1-1.95-.8,3.88,3.88,0,0,1-1.14-2.32l-.12-.44-.12-.62-.17-.91a7.09,7.09,0,0,1-.13-.94s0-.09,0-.14a21.41,21.41,0,0,0-3.23-.36H259.9c-1.14,0-2.27,0-3.4,0l-4.37-.08c-.7,0-1.41,0-2.12,0s-1.55,0-2.33.05Z"/><path class="cls-8" d="M333.13,179.41a10.71,10.71,0,0,0-1.48.38,9.88,9.88,0,0,0-1.45.92,13.3,13.3,0,0,0-1.47,1.43,20.86,20.86,0,0,0-1.55,2.57,8.52,8.52,0,0,0-.43,1.26c-.05.24-.1.49-.17.85a18.5,18.5,0,0,0-.07,3.22,10.46,10.46,0,0,0,.51,1.76,5.56,5.56,0,0,0,.45.79,7.41,7.41,0,0,0,1.25,1.15,17,17,0,0,0,1.54,1.08,19.58,19.58,0,0,0,2.13,1.11,10.92,10.92,0,0,0,1.78.59c.69.16,1.35.28,2.27.41.36,0,.73,0,1.1,0a12.73,12.73,0,0,0,1.48-.1,11.22,11.22,0,0,0,2.09-.54,14.13,14.13,0,0,0,2.15-1.26,5.16,5.16,0,0,0,.59-.51c.13-.22.23-.41.39-.71l.13-.28a23.6,23.6,0,0,0,.95-3.77,15.22,15.22,0,0,0,.07-2.34,21,21,0,0,0-.88-3.27l-.17-.44a10.65,10.65,0,0,0-.85-1.56,12.23,12.23,0,0,0-1.15-1.22l-.57-.3a21,21,0,0,0-4.07-1c-.51-.07-1-.13-1.54-.16a2.4,2.4,0,0,1-1-.29c-.63,0-1.23.08-2,.18Z"/><path class="cls-8" d="M219.54,177.39a8.72,8.72,0,0,0-1.73,1,13.4,13.4,0,0,0-1.76,1.84,21.05,21.05,0,0,0-1.83,3.11,12.9,12.9,0,0,0-.55,2c-.06.62-.1,1.25-.11,1.91a23.43,23.43,0,0,0,.15,2.59,13.54,13.54,0,0,0,.52,2.2,11.15,11.15,0,0,0,.84,1.37,15,15,0,0,0,1.47,1.51,19.68,19.68,0,0,0,2.34,1.35,18.33,18.33,0,0,0,1.74.61c.59.16,1.19.29,1.78.4.43,0,.84.06,1.26.06a11.41,11.41,0,0,0,1.16-.06c1-.19,1.92-.38,2.88-.61a17.44,17.44,0,0,0,2.1-.74,9.33,9.33,0,0,0,1.79-.95,7.86,7.86,0,0,0,.87-.86,13,13,0,0,0,1-1.68,15.31,15.31,0,0,0,.55-2.09,14.59,14.59,0,0,0,.08-2.34,13.41,13.41,0,0,0-.4-1.36,19.31,19.31,0,0,0-2-3.29,28.19,28.19,0,0,0-3.8-3.75,18.81,18.81,0,0,0-2.37-1.44l-.33-.17a10.33,10.33,0,0,0-1.87-.53l-.52,0a6.27,6.27,0,0,0-.75.05,2.06,2.06,0,0,1-1.33-.54,10.62,10.62,0,0,0-1.13.37Z"/><path class="cls-9" d="M267.4,119.78c-3.36.11-6.91.36-10.86.75l-6.6.12c-1.8,0-3.34.08-4.87.24-1.72.23-3.51.56-5.8,1.08l-.63,0h-.07a2.47,2.47,0,0,0-1.56.41l-.29.21a2.83,2.83,0,0,0-2.43,2.5l-.44.73a16.75,16.75,0,0,0-1,2l-.14.34c-.61,1.4-1.21,2.82-1.71,4.27l-.5,1.46c-.72,2.14-1.44,4.29-2.23,6.41l-.53,1.41c-.71,1.88-1.43,3.75-2.07,5.66a56.05,56.05,0,0,0-5.65.6l-.93.11c-.83.09-1.65.18-2.47.35a9.12,9.12,0,0,0-1.43.45c-.52.19-.86.3-1.21.4a4.22,4.22,0,0,0-3.19,2.8,3.59,3.59,0,0,0,.35,2.88c.23.32.47.63.72.94a5.2,5.2,0,0,0,1.95,1.16,14,14,0,0,0,5.23.85h.48c.87,0,1.75-.06,2.62-.11l.75-.06.42,0c.54,1.62,1.18,3.28,1.84,4.93h-.34a17.43,17.43,0,0,0-2.7.24A30.75,30.75,0,0,0,218,164c-.73.24-1.43.51-2.13.79l-.57.24-.28.13-.36.17a11.79,11.79,0,0,0-2.67,1.78,13.24,13.24,0,0,0-2.58,2.84,23.31,23.31,0,0,0-1.29,2,27.86,27.86,0,0,0-2.07,4.66A38.11,38.11,0,0,0,205,181a47.72,47.72,0,0,0-.71,9.09c0,3,.08,6.1.31,9.16.16,1.81.36,3.36.6,4.74.18,1.12.44,2.22.69,3.3l.09.4.19.78a55.18,55.18,0,0,0,2.86,8.71,17.41,17.41,0,0,0,2.5,3.93A13.19,13.19,0,0,0,216,224.8a23.63,23.63,0,0,0,4.71,1.53l.89.22c.92.24,1.83.45,2.76.67l1.77.39.64.15c1.3.32,2.6.62,3.93.85a40,40,0,0,0,4.88.47c2.12.1,4.24.16,6.36.22l2.71.06c1.91.06,3.83.1,5.74.12l1.16,0,2.59,0c3.08,0,6.16.09,9.24.18l2.81.11c2.11.09,4.22.16,6.34.19,1.84,0,3.68,0,5.52,0l6.2,0c2.07,0,4.13,0,6.2,0a88.1,88.1,0,0,0,9-.46c2.92-.29,6.05-.59,9.19-.79q4.47-.27,8.95-.63l3.32-.29c1.79-.17,3.58-.34,5.37-.45,3-.2,6.55-.47,10.06-1,1.62-.26,3.23-.53,4.84-.84a16.75,16.75,0,0,0,1.72-.46,1.86,1.86,0,0,0,1.19.42,3.28,3.28,0,0,0,.59-.06,8.72,8.72,0,0,0,3.25-1.08,8.85,8.85,0,0,0,2.17-2,13.74,13.74,0,0,0,2.45-4.3,10,10,0,0,0,.44-1.73c.08-.46.15-.92.2-1.39l.1-.66a73.43,73.43,0,0,0,.72-9c.1-2.85.2-5.69.23-8.54,0-2.5,0-5.06-.12-7.53l0-.4,0-.56c-.1-3.12-.28-5.7-.59-8.1a38.25,38.25,0,0,0-.91-5,17.43,17.43,0,0,0-1.77-4.22,34.19,34.19,0,0,0-2.69-3.81,12.64,12.64,0,0,0-4.05-3.47,18.88,18.88,0,0,0-2-.83l-.54-.22a10.91,10.91,0,0,0-2.78-.57l-.45-.07-.71-.09-.35-.06a13,13,0,0,0,.9-2l.13-.31.45-1.13A14.54,14.54,0,0,1,342,158c1.6-.13,3-.24,4.4-.46a6.25,6.25,0,0,0,3.92-1.6,3.59,3.59,0,0,0,.85-3.32,5.21,5.21,0,0,0-1.12-2c-2-2.21-5.15-2.5-7.68-2.5h-.75c-2.46,0-4.93.19-7.4.34l-.09-.85-.26-1.59a74.56,74.56,0,0,0-2.09-8.36c-.38-1.26-.83-2.53-1.39-3.92-.3-.71-.62-1.41-1-2.11-.27-.53-.59-1.05-.91-1.56l-.15-.25c-.39-.62-.75-1.24-1.11-1.86a13.78,13.78,0,0,0-1.48-2.14,10,10,0,0,0-.8-.79,1.1,1.1,0,0,0,0-.78,2.48,2.48,0,0,0-.92-1.21,2.31,2.31,0,0,0-.58-.27,4.58,4.58,0,0,0-.84-.22l-.43-.11-.29-.06c-.47-.13-.87-.24-1.29-.33a19.8,19.8,0,0,0-2.44-.28l-4.27-.26-1.6-.07c-.9,0-1.79-.07-2.69-.12l-.39,0c-.87-.12-1.77-.19-2.65-.23q-.6-.06-1.2-.09c-.66,0-1.33-.08-2-.12-.83,0-1.67-.08-2.49-.15l-.95-.09c-1.12-.12-2.25-.23-3.39-.25s-2.56,0-3.84,0c-1,0-1.7,0-2.39.06l-1.49,0c-.58,0-1.16,0-1.73,0s-1.4,0-2.1,0l-1.13-.07-.47,0c-4.24-.31-8.65-.63-13-.63-1,0-2,0-3,.06Zm-38.54,34.59.22-.43c.31-.59.5-1,.68-1.35a3.53,3.53,0,0,0,.61-1.47c.12-.31.24-.62.34-1l.51-1.58c.48-1.54,1-3.29,1.8-5.15l.72-1.58c.77-1.69,1.59-3.48,2.21-5.3.21-.66.42-1.32.61-2l.42-1.36c.34-1.12.74-2.22,1.16-3.31a15.39,15.39,0,0,1,1-1.89c3.21-.12,5.87-.3,8.37-.56,3.42-.3,6.37-.45,9-.45s5.29.07,7.81.15l.76,0,.86,0c2.51.09,5,.14,7.55.18l1.48,0c2.54,0,5.06.17,7.62.29h.3l1,0c3.23.16,6.47.32,9.7.35,1.64,0,3.28,0,4.91,0,3.6,0,6.71-.06,9.59-.15a.67.67,0,0,0,.59.32,10.58,10.58,0,0,0,1.17-.06l.57,0c.61,0,1.21-.05,1.81-.06l1.87,0,1.88,0c.84,0,1.69,0,2.68,0l1.56.13.65.07c.47,0,.92.08,1.39.1a3.83,3.83,0,0,1,1.14,1c.66.92,1.29,1.88,1.87,2.84a19.91,19.91,0,0,1,1.38,2.73c.44,1.09.85,2.2,1.25,3.31l.34.94.11.32c.34.94.6,1.69.84,2.45.3.94.51,1.9.72,2.87l.06.34.2,1.09.17.9.35,1.79.14.85a3.08,3.08,0,0,0-.92,2.27,4,4,0,0,0,.73,2.18,3.74,3.74,0,0,0,.27.31h-.05l.05.06c-.7.09-1.46.18-2.45.22-.66,0-1.33,0-2,0l-.5,0h-2.1c-2.89,0-5.78,0-8.67.1-1.67,0-3.36,0-5,.07H305.8c-1.13,0-2.24,0-3.54,0h-1.79l-4,0-3.43,0h-1.72l-3.86,0c-3.07,0-6.13.05-9.2.14l-1.3,0c-2.52.09-5,.17-7.58.17H269c-1.38,0-2.79,0-4.19-.07h-1.07c-1.4,0-2.77-.08-4.13-.1-2.61,0-5.22-.1-7.83-.19s-5.29-.19-7.92-.23h-.5c-.59,0-1.17,0-1.74,0l-1.42,0H238.4l-2.54,0a51.8,51.8,0,0,1-6.38-.5l-.58-.07h0Zm42.79,38.38c-1.5-.06-3-.18-4.52-.31l-1.86-.14c-2-.15-3.95-.34-5.93-.58a44.53,44.53,0,0,1-9.7-2.56,18.17,18.17,0,0,1-2.56-1.47c-.83-.74-1.57-1.51-2.4-2.41l-.33-.36-.45-.48c-.72-.76-1.43-1.52-2.1-2.35a16.5,16.5,0,0,1-1.45-2.3c-.54-1-1-2.07-1.5-3.14a62.25,62.25,0,0,0-3.27-6.13c-1.19-2-2.34-4.09-3.46-6.15-1-1.74-2-3.61-2.85-5.67,1.12.18,2.25.29,3.38.39,1.53.14,3,.19,4.59.25s3.12.1,4.68.17c1.05.06,2.1.17,3.14.28l.39,0,.91.1c1.12.12,2.24.2,3.36.28l1.1.08,1.06.09c1.08.09,2.15.18,3.21.23,2.07.1,4.14.15,6.2.2l3.38.09c1.26,0,2.52.07,3.78.07,2.61,0,5.23-.08,7.85-.16l.88,0,1.51,0c1.49,0,3-.09,4.49-.12l4.26-.06c4.62-.06,9.24-.12,13.86-.27l8.4-.26c1.36,0,2.7-.11,4-.19l1.05-.05c1-.07,1.81-.12,2.66-.14,2.12-.07,4.23-.11,6.35-.11h1.58c2.68,0,4.4.12,5.87.26l.35,0,.36,0h.43l-.07.32-.08.33a22.18,22.18,0,0,1-1.1,3.24l-.08.35c-.44.8-1,1.86-1.56,2.91l-.6,1.14c-.88,1.7-1.77,3.39-2.74,5q-.53.9-1,1.8l-.38.67-.42.75-.89,1.63a38.91,38.91,0,0,1-2.9,4.33c-1.06,1.36-2.23,2.71-3.87,4.44l-.31.33a34.52,34.52,0,0,1-3.76,3.66,12.77,12.77,0,0,1-2,1.22,18.82,18.82,0,0,1-4.52.93l-.33.11c-2.73.27-5,.39-6.87.39h-.58v0c-1.83,0-3.65-.11-5.46-.2l-.68,0-2.46-.13c-3-.14-6.08-.16-9.13-.18h-2.24c-2.21,0-4.44-.05-6.66-.15Zm-49.24,4.6c-.61-.11-1.21-.24-1.8-.4s-1.09-.36-1.73-.61a18.89,18.89,0,0,1-2.33-1.35,14,14,0,0,1-1.47-1.51,10.11,10.11,0,0,1-.85-1.37,13.57,13.57,0,0,1-.53-2.2,23.43,23.43,0,0,1-.15-2.59c0-.66,0-1.29.12-1.91a12.9,12.9,0,0,1,.55-2,22,22,0,0,1,1.83-3.11,13.9,13.9,0,0,1,1.75-1.84,8.79,8.79,0,0,1,1.74-1c.38-.15.77-.27,1.12-.37a2.11,2.11,0,0,0,1.34.54,6.29,6.29,0,0,1,.76-.05l.52,0a10.46,10.46,0,0,1,1.86.53l.33.17a18.09,18.09,0,0,1,2.36,1.44,28.43,28.43,0,0,1,3.82,3.75,19.28,19.28,0,0,1,2,3.29,13.41,13.41,0,0,1,.4,1.36,13.39,13.39,0,0,1-.06,2.34,19,19,0,0,1-.57,2.09,11.86,11.86,0,0,1-1,1.68,7.08,7.08,0,0,1-.87.86,9.33,9.33,0,0,1-1.79.95,16.3,16.3,0,0,1-2.1.74c-1,.23-1.9.42-2.89.61a11.07,11.07,0,0,1-1.15.06c-.42,0-.82,0-1.25-.06Zm114-.42c-.92-.13-1.59-.25-2.28-.41a10.81,10.81,0,0,1-1.77-.59,20.4,20.4,0,0,1-2.12-1.11,18.8,18.8,0,0,1-1.56-1.08,6.88,6.88,0,0,1-1.23-1.15,4.74,4.74,0,0,1-.45-.79,9.63,9.63,0,0,1-.52-1.76,19.49,19.49,0,0,1,.06-3.22c.08-.36.13-.61.18-.85a9.86,9.86,0,0,1,.43-1.26,22.18,22.18,0,0,1,1.55-2.57,15.2,15.2,0,0,1,1.46-1.43,10.64,10.64,0,0,1,1.47-.92,10,10,0,0,1,1.48-.38c.79-.1,1.38-.15,2-.18a2.32,2.32,0,0,0,1,.29c.52,0,1,.09,1.53.16a21.08,21.08,0,0,1,4.09,1l.56.3a11.17,11.17,0,0,1,1.15,1.22,9.74,9.74,0,0,1,.84,1.56l.17.44a19,19,0,0,1,.89,3.27,14.05,14.05,0,0,1-.07,2.34,22.57,22.57,0,0,1-1,3.77l-.12.28c-.16.3-.26.49-.39.71a6,6,0,0,1-.58.51,15.25,15.25,0,0,1-2.16,1.26,10.74,10.74,0,0,1-2.1.54,12.21,12.21,0,0,1-1.47.1c-.37,0-.73,0-1.1,0ZM237,220l-.33-.06-.31-.06c-.34-.06-.67-.09-1-.13l-.61,0c-1.22-.19-2.44-.41-3.64-.66a16.86,16.86,0,0,1-3.2-.89,10.28,10.28,0,0,1-1.7-1,20.64,20.64,0,0,1-2.49-2.37,7.91,7.91,0,0,1-.73-1.27c-.19-.49-.31-.82-.43-1.18a14,14,0,0,0-.64-1.57l.5-.15.62,0,.67,0,.64,0c1.7-.07,3.41-.14,5.12-.14s3.19,0,4.78-.06l1.6-.05c1-.06,1.83-.1,2.64-.12l2.1,0h1.38c.34,0,.68,0,1,0,1,0,1.92-.1,2.88-.17l1.91-.13c.78,0,1.55-.05,2.33-.05s1.42,0,2.12,0l4.37.08c1.13,0,2.26,0,3.4,0h1.69a21.29,21.29,0,0,1,3.22.36,7.82,7.82,0,0,0,.14,1.08l.17.91.13.62.1.44a4,4,0,0,0,1.15,2.32,4.5,4.5,0,0,0,1.95.8,15.1,15.1,0,0,0,2.34.27c2.6.18,5.43.28,8.95.31l3.28,0h1.36c1.27,0,2.56,0,3.84-.09l.63,0c1.36-.06,2.7-.13,4-.32a2.08,2.08,0,0,0,1-.33,2.71,2.71,0,0,0,.86-1.27,8.22,8.22,0,0,0,.5-2l.12-.84a5.18,5.18,0,0,1,.21-.91l.6-.08c1.45-.16,2.91-.23,4.37-.28l.95,0,.59,0h.61l3.19-.12c1,0,2,0,3,0h1.28c1.52,0,3.05.09,4.56.11.87,0,1.72,0,2.59,0,2,0,4,0,6.24-.07h1.12c1.84,0,3.68-.05,5.53-.05h2.23c.86,0,1.7,0,2.56.06l.44,0h.31c.47,0,.89,0,1.29.07a8,8,0,0,1,1.64.4c0,.26,0,.48,0,.71s-.12.53-.19.79a5.53,5.53,0,0,1-.45.88,10,10,0,0,1-1.45,1.34c-.38.27-.77.55-1.15.77a8.8,8.8,0,0,1-1.1.57,26.72,26.72,0,0,1-6.57,1.43l-.57.08-1,.13c-1,.14-2.05.26-3.07.37-1.46.15-2.92.26-4.39.35-2.6.15-5.27.22-8,.28l-.67,0c-2.34,0-4.65.05-7,.06H300.2c-1.15,0-2.31,0-3.47.05l-3,.21-1.51.1-2.72.19-1.1.07c-1.71.12-3.31.24-4.9.3-1.76.09-3.54.13-5.3.13-1.12,0-2.22,0-3.34-.05l-2.18,0-1.11,0c-1.84,0-3.67-.09-5.51-.17l-.72,0c-1.28-.06-2.55-.11-3.85-.14a30.48,30.48,0,0,0-4.34.33l-1.56.23a19.28,19.28,0,0,1-2.29.17h-2.63c-1.46,0-2.89,0-4.33-.09-1.73-.08-3.45-.15-5.18-.17h-3.1a10.67,10.67,0,0,1-1.13,0Z"/><path class="cls-6" d="M256.48,127c-2.63,0-5.58.15-9,.45-2.5.25-5.16.43-8.37.57a12.9,12.9,0,0,0-1,1.88c-.42,1.09-.83,2.19-1.17,3.31l-.42,1.37c-.19.65-.39,1.32-.61,2a53.15,53.15,0,0,1-2.21,5.3l-.71,1.58c-.77,1.86-1.32,3.61-1.81,5.15l-.51,1.58c-.1.33-.21.64-.33,1a3.51,3.51,0,0,1-.61,1.46c-.18.39-.38.77-.68,1.36l-.23.43a50.7,50.7,0,0,0,7,.58c.85,0,1.69,0,2.54,0l1.78,0,1.42,0q.85,0,1.74,0h.5c2.63,0,5.25.12,7.92.22s5.22.17,7.83.2c1.36,0,2.73,0,4.13.1h1.07c1.4,0,2.8.07,4.19.07h.4c2.53,0,5.06-.08,7.58-.17l1.3-.05c3.07-.09,6.13-.13,9.2-.13l3.86,0H293l3.43,0,4,0h1.79l3.54,0h4.35c1.67,0,3.35,0,5-.08,2.89-.08,5.78-.09,8.67-.1h2.6c.66,0,1.32,0,2-.05a23.68,23.68,0,0,0,2.45-.21,4.2,4.2,0,0,1-1-2.55,3.08,3.08,0,0,1,.92-2.27l-.14-.85-.35-1.8-.17-.9-.21-1.08-.05-.34a27.82,27.82,0,0,0-.72-2.86c-.23-.77-.49-1.52-.83-2.46l-.11-.32-.34-.94c-.41-1.11-.82-2.22-1.26-3.31a20.63,20.63,0,0,0-1.38-2.74c-.57-1-1.21-1.92-1.87-2.82a3.85,3.85,0,0,0-1.14-1c-.47,0-.92-.05-1.39-.1l-.64-.06-1.57-.14c-1,0-1.84,0-2.69,0l-1.87,0-1.87,0c-.6,0-1.2,0-1.81.07l-.57,0a8.57,8.57,0,0,1-1.17.06.64.64,0,0,1-.58-.32c-2.89.09-6,.15-9.6.15l-4.91,0c-3.23,0-6.47-.2-9.7-.35l-1,0h-.31c-2.57-.12-5.08-.24-7.62-.28l-1.48,0c-2.52,0-5-.09-7.55-.19l-.86,0-.76,0c-2.52-.08-5.05-.16-7.81-.16Z"/><path class="cls-2" d="M177.2,134.67a13.41,13.41,0,0,0-1.67.13,5.25,5.25,0,0,0-.73.14,4.16,4.16,0,0,0-.86.34,8.08,8.08,0,0,0-1.85,1.18,7.67,7.67,0,0,0-1.41,1.55,5.19,5.19,0,0,0-.68,1.35,4.61,4.61,0,0,0-1-.28l-.48-.06-.47-.05H168a5.16,5.16,0,0,0-.78.06,7.22,7.22,0,0,0-1.6.47,12.05,12.05,0,0,0-1.3.64,10.54,10.54,0,0,0-1.16.82,14,14,0,0,0-3.92,5,12.18,12.18,0,0,0-1.07,3.73,13,13,0,0,0-.1,2.07,9.79,9.79,0,0,0,.23,1.7,7.24,7.24,0,0,0,.51,1.53,4.72,4.72,0,0,0,.35.69,6.69,6.69,0,0,0-1.37.72,5.2,5.2,0,0,0-.59.46,5.53,5.53,0,0,0-.9,1l-.16.26a5.35,5.35,0,0,0-.59,1.17,8,8,0,0,0-.51,2.25,11.23,11.23,0,0,0,.14,3,22.53,22.53,0,0,0,.6,2.68,15.85,15.85,0,0,0,1,2.42,11,11,0,0,0,1.47,2.23,29.35,29.35,0,0,0,4.73,4.33,34.31,34.31,0,0,0,5.73,3.59,17,17,0,0,0,2.41.91,14.7,14.7,0,0,0,2.57.49,3.46,3.46,0,0,0,.46,0,6.13,6.13,0,0,0,.74-.05,6,6,0,0,0,.74-.13,2,2,0,0,0,.29.42,7,7,0,0,0,.49.59,4.88,4.88,0,0,0,.48.47l.25.24a13.26,13.26,0,0,0,3.84,2.47,20.8,20.8,0,0,0,4.52,1.42,20.17,20.17,0,0,0,4.05.37c.34,0,.69,0,1,0,.66,0,1.32-.06,2-.11l.5,0c.69-.06,1.38-.16,2.07-.26a7.94,7.94,0,0,0,2.18-.6,4.06,4.06,0,0,0,.87-.47,5.89,5.89,0,0,0,.74-.6,7.21,7.21,0,0,0,.92-1,1.77,1.77,0,0,0,.36.07,3.77,3.77,0,0,0,.47,0,3.85,3.85,0,0,0,.48,0c.19,0,.38,0,.57-.09a13,13,0,0,0,3-.93l.3-.11c.5-.2,1-.43,1.44-.67a6.83,6.83,0,0,0,1.39-.89A10.3,10.3,0,0,0,209,180a16.78,16.78,0,0,0,1.07-1.62,15.19,15.19,0,0,0,.72-1.53q.38-.91.66-1.86a8.24,8.24,0,0,0,.3-1.68c0-.34,0-.66,0-1a7.36,7.36,0,0,0-.48-2.45,4.63,4.63,0,0,0-.76-1.29,4.22,4.22,0,0,0-.56-.56,4.62,4.62,0,0,0-.4-.29,1.83,1.83,0,0,0-.3-.18,3.14,3.14,0,0,0,.17-.67,5.53,5.53,0,0,0,0-1.86,6.32,6.32,0,0,0-.51-1.84,10.31,10.31,0,0,0-.68-1.22c-.18-.28-.39-.54-.59-.8a8.8,8.8,0,0,0-2-1.82,3,3,0,0,0-.65-.32,3.9,3.9,0,0,0-1.11-.31,3.07,3.07,0,0,0-.53-.05l-.47.05a2.62,2.62,0,0,0-.07-.64l-.13-.53a4.14,4.14,0,0,0-.19-.53c-.16-.38-.3-.66-.45-1s-.43-.8-.67-1.19A12,12,0,0,0,200,153.1a6,6,0,0,0-.92-.84,5.47,5.47,0,0,0-1.13-.68,3.69,3.69,0,0,0-1.63-.36,4.66,4.66,0,0,0-1,.14l-.32,0,0-.13a7.66,7.66,0,0,0-.66-1.14,6.47,6.47,0,0,0-1.8-1.58,4.76,4.76,0,0,0-.82-.45,12.29,12.29,0,0,0,.46-2.76,5.8,5.8,0,0,0,0-.59c0-.23-.05-.46-.09-.68a3.07,3.07,0,0,0-.28-.88,2.86,2.86,0,0,0-.38-.67,4.29,4.29,0,0,0-.63-.79,7.84,7.84,0,0,0-1.65-1.37,4.07,4.07,0,0,0-1.53-.54,3.83,3.83,0,0,0-.83-.08c-.23,0-.46,0-.69,0a9.65,9.65,0,0,0-2.07.47,4.23,4.23,0,0,0-.19-.76,7.54,7.54,0,0,0-.61-1.37c-.16-.28-.31-.55-.49-.81s-.23-.34-.35-.49l-.29-.36a3.93,3.93,0,0,0-.68-.67,4.79,4.79,0,0,0-1.75-.87,4.1,4.1,0,0,0-.61-.11c-.44,0-.88-.07-1.32-.1l-.48,0Z"/><path class="cls-10" d="M153.25,155.46l-.75,0c-.75,0-1.5,0-2.25,0h-3.9c-1.33.06-2.66.2-4,.35l-.39,0-1.52.17c-1.57.18-3.13.31-4.69.43l-1.56.13c-1.81.16-3.59.34-5.39.53l-3.94.38c-2.57.24-5.14.4-7.69.54l-2,.11c-1,.07-2,.09-2.94.12l-1.7,0c-1.57.06-3.14.13-4.71.22-3,.15-6.41.26-10.51.27l-.09.14v0l0,0-.1.15,0,.12-.34.5c-.42,1-.85,2-1.34,3-.31.58-.64,1.13-1,1.69l-.58.92a25.61,25.61,0,0,0-1.26,2.46l-.13.32a18.53,18.53,0,0,0-.91,2.83c-.27.89-.55,1.76-.84,2.63l-.2.62-.19.59-.19.54c-.64,1.94-1.12,3.6-1.51,5.22-.24,1-.5,2-.8,2.95l-.27.89-.24.79c-.19.63-.37,1.2-.55,1.75l-.2.55-.17.42c-.17.5-.35,1-.51,1.38l.37.05a50.82,50.82,0,0,0,5.12.55c3.46.25,7.54.57,11.59,1,2.6.28,5.23.53,7.85.77l1.62.17c1,.07,1.95.17,2.93.28l.9.1,1.15.12.62.06.7.07,2.49.24c3.15.14,6,.22,8.78.22q3.18,0,6.36-.09c1.52,0,3-.12,4.54-.19s3-.14,4.5-.18c2.14-.09,4.27-.23,6.4-.37l3-.19c2.66-.16,5.37-.25,8.08-.25h1.44c1.84,0,3.7,0,5.55,0,1.35,0,2.69,0,4,0,2.79-.05,5.59-.14,8.38-.25.92,0,1.84-.05,2.77-.05l1.9,0h1.51c.5,0,1,0,1.51,0h2.56c.74,0,1.47-.12,2.21-.2l.43,0c.45-.06.89-.09,1.35-.13l.4-.07.21-.64a4.71,4.71,0,0,1,.27-.56l-.19-.65c-.11-.33-.22-.63-.34-.94-.41-1.15-.75-2.3-1.06-3.47-.37-1.4-.75-2.8-1.15-4.21-.27-.95-.58-1.89-.89-2.83l-.37-1.08c-.29-.87-.53-1.75-.75-2.63l-.16-.55-.31-1.1c-.35-1.22-.71-2.45-1-3.67l-.52-1.75-.27-.91-.2-.7-.28-.91a37.34,37.34,0,0,0-1.22-3.61,19,19,0,0,0-.89-1.93,16.6,16.6,0,0,0-1-1.63l-.21-.28a3.17,3.17,0,0,0-1.05-.94l-.32.09-.63.3a4.33,4.33,0,0,1-1.22.17l-1.08-.07c-.26,0-.53-.05-.8-.06l-.79,0h-2.91l-1.15.05c-.74,0-1.48,0-2.21,0a15.66,15.66,0,0,1-1.94-.09l-4.11-.33-1.26-.11c-1-.07-2-.1-3-.14h-.54c-.72,0-1.46-.06-2.19-.12-1.6-.12-3.21-.23-5.08-.23l-1,0Z"/><path class="cls-1" d="M77.56,201.9a10.07,10.07,0,0,0-1.38.94l-.6.62-.22.23-.24.25c-.4.46-.79.94-1.19,1.45a17.13,17.13,0,0,0-1.45,2.94l-.2.53a23.3,23.3,0,0,0-1,4.56,14.58,14.58,0,0,0,.15,1.87,14.31,14.31,0,0,0,.72,2,14.49,14.49,0,0,0,1.52,2.21,15.55,15.55,0,0,0,2,1.73,26.22,26.22,0,0,0,2.4,1.28l.68.33.55.25,1,.46a6.75,6.75,0,0,0,.76.14,15.51,15.51,0,0,0,2.07-.15,15.22,15.22,0,0,0,2-.75,18.28,18.28,0,0,0,2.42-1.63,13.44,13.44,0,0,0,1.15-1.35A13.54,13.54,0,0,0,90,217.14a24.07,24.07,0,0,0,.91-4.83,13.67,13.67,0,0,0-.1-1.58,13.1,13.1,0,0,0-.7-1.94c-.12-.21-.24-.43-.37-.64a41.38,41.38,0,0,0-3.43-4.85,12.13,12.13,0,0,0-1.1-1,9.65,9.65,0,0,0-1.16-.58,12,12,0,0,0-2-.34,10,10,0,0,0-1.57.14,1.73,1.73,0,0,1-1-.29,11.75,11.75,0,0,0-1.87.63Z"/><path class="cls-1" d="M198.69,203.64a12.63,12.63,0,0,0-2.47,1,11.86,11.86,0,0,0-1.24.8,8.16,8.16,0,0,0-1,1.08,12.11,12.11,0,0,0-.92,1.93,30.78,30.78,0,0,0-1.05,5.52h0l0,.51a12.91,12.91,0,0,0,.09,1.52,20.18,20.18,0,0,0,1,2.79c.31.58.63,1.14,1,1.71a12.68,12.68,0,0,0,1.19,1.64,24.8,24.8,0,0,0,3.32,2.94l.35.19c.55.17,1.09.31,1.63.43s1.26.27,1.9.35a2.62,2.62,0,0,0,.71-.11,5.89,5.89,0,0,0,.55-.38,17.42,17.42,0,0,0,1.82-2.12,17.85,17.85,0,0,0,1.54-3.25,26.2,26.2,0,0,0,1.17-5.76v-.46a22.32,22.32,0,0,0-.25-3.29,15.19,15.19,0,0,0-.87-2.43,9.94,9.94,0,0,0-.71-1.11c-.17-.17-.34-.32-.5-.47a8.88,8.88,0,0,1-1.39-.91,7.39,7.39,0,0,1-.72-.77l-.27-.31a18,18,0,0,0-1.74-.77,8.21,8.21,0,0,0-1.49-.31,15.81,15.81,0,0,0-1.69.09Z"/><path class="cls-1" d="M201.3,240.91c-.26.16-.49.32-.77.52s-.44.49-.65.74-.25.51-.35.76a8.78,8.78,0,0,0-.25,1.24c0,.39,0,.76.08,1.11,0,0,.15.38.25.55s.18.29.38.55a8.71,8.71,0,0,0,.86.75c.37.22.74.44,1.1.61l.49,0a6.07,6.07,0,0,0,1-.07,5.35,5.35,0,0,0,1-.4,5.6,5.6,0,0,0,.49-.36,9.38,9.38,0,0,0,.77-.9,8.25,8.25,0,0,0,.56-1.11,4,4,0,0,0,.19-1,2.4,2.4,0,0,0-.06-.57c-.12-.3-.22-.57-.35-.83a9.08,9.08,0,0,0-1-1.46l-.61-.56c-.26-.13-.48-.23-1-.45-.72.25-1.44.53-2.15.84Z"/><path class="cls-1" d="M73.93,238.93c-.26.26-.48.54-.71.82a6.66,6.66,0,0,0-.36.7,9.12,9.12,0,0,0-.21,1,6.34,6.34,0,0,0,0,.76l.23.62a7.59,7.59,0,0,0,.81,1.14c.3.31.61.58.93.86l0,0,.31.16a18.43,18.43,0,0,0,2.1,1,8.78,8.78,0,0,0,1.24.25,6.7,6.7,0,0,0,.79,0,2.43,2.43,0,0,0,.74-.3,1,1,0,0,0,.3-.19,3.65,3.65,0,0,0,.45-.51,8.88,8.88,0,0,0,.59-1.25,7.43,7.43,0,0,0,.25-1.33c0-.36,0-.7,0-1s-.21-.6-.33-.89a7,7,0,0,0-.43-.68,6.47,6.47,0,0,0-.56-.5,9.13,9.13,0,0,0-1.3-.64,10.37,10.37,0,0,0-1.72-.27h-.34l-.73,0-.31,0a4.16,4.16,0,0,1-1-.19,6.23,6.23,0,0,0-.72.46Z"/><path class="cls-11" d="M150.29,214.26h-.62c-1.94,0-3.87.12-5.79.28-.88.07-1.78.12-2.66.15l-2.2.12-1,.08c-1.23.09-2.46.17-3.69.21-.74,0-1.47,0-2.2,0s-1.69,0-2.51.06l-2.32.09-2.32.07-1.46.06-2.92.12c-.54,0-1.06.08-1.59.13-.88.08-1.71.14-2.54.15h-.53l-.52,0H115c-.91,0-1.81,0-2.72.07a36,36,0,0,0-4,.49,13.74,13.74,0,0,0-2.64.94,10.93,10.93,0,0,0-2,1.39,69.35,69.35,0,0,0-5,5c-.24.26-.46.52-.69.81l-.25.29h1.41l2.41.06c1.8,0,3.58,0,5.38,0s3.61,0,5.4,0c1.39,0,2.79.15,4.17.27l1,.08q1.41.06,2.76.06h.44c.88,0,1.75,0,2.62,0l1.08,0c2.63,0,5.26.14,7.89.28l2.66.17,1.28.08c3,.17,5.81.23,8.59.25H146c1.13,0,2.26,0,3.39.07.85,0,1.69.08,2.54.13l1.24.09c2.4.11,4.8.15,7.21.15h9.18l3.24-.05c1.55,0,3.06,0,4.57,0l3.56,0h.72l.61-.11c0-.15-.09-.28-.14-.43s-.16-.38-.25-.56a16.65,16.65,0,0,0-1.23-2.11c-.5-.71-1-1.37-1.56-2a15.34,15.34,0,0,0-2.15-1.9l0,0h0l-.31-.19a20.75,20.75,0,0,0-2.83-1.51l-.75-.28.06,0,.32.14-.23-.08.07,0c-1.09-.41-2.22-.75-3.35-1.06v0h0l-.49-.1c-1.34-.34-2.71-.61-4.07-.86a76.34,76.34,0,0,0-9.92-1.11c-1.59-.07-3-.13-4.48-.13Z"/><path class="cls-11" d="M130.18,242.87l-1.2,0c-1.19,0-2.39,0-3.58,0l-1.64,0-2,0H121L118,243c-1.83.07-3.65.13-5.48.13l-1.22,0c-2.16,0-4.32-.08-6.47-.13l-4.27-.1a1,1,0,0,1-.42.15l-.61.1h0l.14.32.46,1.29.27.65c.38,1,.77,2,1.21,2.91a5.86,5.86,0,0,0,.45.69l.36.34c.59.34,1.17.66,1.87,1a18.42,18.42,0,0,0,2,.89,14,14,0,0,1,1.85.71,8.32,8.32,0,0,0,1.29.67,14.82,14.82,0,0,0,2,.49l.73.13c.68.13,1.28.23,1.9.31l.32,0,2,.11,2.5.14c1.86.09,3.79.13,5.71.13H131c.94,0,1.88,0,2.82,0,.75,0,1.49-.07,2.29-.14l1.39-.08c1.17-.06,2.33-.12,3.5-.22s2.27-.16,3.4-.16,2.05,0,3,.1l.9.06,1,0c.89,0,1.78.07,2.69.17l1,.09.61.07c.68.07,1.3.14,1.94.18,1.06,0,2.12.07,3.18.07h.87c.58,0,1.18,0,1.76,0h2.34c1.17,0,2.05-.05,2.93-.1l.73,0h.34a21.64,21.64,0,0,0,2.41-.19l.31,0a17.34,17.34,0,0,0,3.56-1.17,13,13,0,0,0,2.41-1.77,18,18,0,0,0,2.07-2.56l.64-1,.33-.52a12,12,0,0,0,1-1.86,1.28,1.28,0,0,0,0-1h-1.82c-.71,0-1.41.06-2.1.12l-1.18.07-1.34.08c-1,0-2,.11-3,.22a37.48,37.48,0,0,1-4,.28c-.59,0-1.19,0-1.78,0l-.62,0-1.46-.06-2.29-.06-2.23-.07c-1.74-.06-3.49-.13-5.23-.23l-3.45-.25-1.15-.1-3.36-.24c-1.91-.15-3.84-.3-5.76-.41q-3.3-.14-6.62-.14l-2.73,0Z"/><path class="cls-11" d="M65.32,255.35h0l-.24.07a1.68,1.68,0,0,0-.76.51,1.77,1.77,0,0,0-.37,1.74c0,1.3.08,2.44.1,3.6,0,.55,0,1.1,0,1.65s0,.91,0,1.38a9.32,9.32,0,0,0,.81,3.69,3.92,3.92,0,0,0,.47.89,5,5,0,0,0,2.09,1.51,14,14,0,0,0,2,.71,11,11,0,0,0,1.9.34,67.26,67.26,0,0,0,7.59.35h1.34c1.3,0,2.58,0,3.87-.09a10.57,10.57,0,0,0,1.85-.26,2.79,2.79,0,0,0,2-1.66,6,6,0,0,0,.46-2.25,13.1,13.1,0,0,0,0-2.17c0-.37-.09-.75-.15-1.12l-.11-.5h0a4.72,4.72,0,0,0-.15-.65,1.85,1.85,0,0,0-.26-.55h-.05a2,2,0,0,0-.65-.58,1.41,1.41,0,0,0-.69-.16,1.63,1.63,0,0,0-.55.09,1.6,1.6,0,0,0-.41.21,6.94,6.94,0,0,0-.93-.15l-.49-.05c-.82-.09-1.62-.19-2.44-.36-1-.22-2.09-.47-3.13-.73-.83-.2-1.69-.42-2.52-.65l-.79-.31-.77-.31c-.7-.26-1.42-.48-2.13-.69a8.85,8.85,0,0,1-1.77-.88l-.59-.42-.59-.42c-.31-.21-.62-.4-.94-.59l-.54-.36a6.7,6.7,0,0,0-.7-.5,3.55,3.55,0,0,0-.84-.32l-.42,0-.5,0Z"/><path class="cls-11" d="M215.77,257.62a1.81,1.81,0,0,0-1,.29l0,0-.32.29v0l0,0-.2.29-.17.26c-.09.19-.19.38-.27.58l0,0-.12.29-.17.52,0,0a1.47,1.47,0,0,1-.49.4,5.94,5.94,0,0,1-1,.42c-.45.1-.83.14-1.21.19l-.68.1-2.72.39c-.8.11-1.6.19-2.41.25l-.58.05c-.65.06-1.3.1-2,.1H202l-1.38-.11-1.31-.11h-.27l-.37,0c-.37,0-.72,0-1.09,0h-3.07a2.49,2.49,0,0,0-1.09-.24,2.66,2.66,0,0,0-1,.18,2.75,2.75,0,0,0-.59.2,2.42,2.42,0,0,0-.3.23h0a1.15,1.15,0,0,0-.14.17,3.05,3.05,0,0,0-.79,1.57,7.86,7.86,0,0,0-.07,1.18,8.91,8.91,0,0,0,.07,1c.07.64.2,1.24.33,1.86a8.93,8.93,0,0,0,.89,2.16,3.72,3.72,0,0,0,.7.88,3.9,3.9,0,0,0,.84.65l.26.17a5,5,0,0,0,1.33.51,5.68,5.68,0,0,0,1.51.19h.37l1,0,1.1.07c1.15.08,2.31.17,3.47.21l2,0c1,0,2,.05,3,.11.54,0,1.06.07,1.6.13s1.33.12,2,.15l.56,0a5.56,5.56,0,0,0,2.7-.59,5.22,5.22,0,0,0,2.08-2.44,9.12,9.12,0,0,0,.85-2.9,23.81,23.81,0,0,0,.1-3.87c0-.75,0-1.48,0-2.22v-.63c0-.42,0-.85,0-1.26a1.82,1.82,0,0,0-1-1.57,1.34,1.34,0,0,0-.69-.18l0,0Z"/><path class="cls-12" d="M156.07,151.16c-1,0-2,.05-3,.1-2.28.15-4.55.24-6.84.31-1.23,0-2.46.13-3.68.21s-2.3.16-3.44.2l-.36,0v0l-2.41,0c-1.34,0-2.68,0-4,.06-2.38.09-4.82.37-6.93.63l-1.51.19c-1.52.19-3,.38-4.55.55l-3.32.12c-1.46.05-2.91.13-4.37.2l-2.53.13-.76,0-1.94,0h-3.06q-3.48,0-6.94-.13h0a.84.84,0,0,0-.57.16.74.74,0,0,0-.28.53,5.68,5.68,0,0,0-1.17.43,1.22,1.22,0,0,0-.79.66c-.6,1.18-1.09,2.4-1.59,3.62l-.47,1.16c-.37.79-.81,1.54-1.24,2.29s-.76,1.3-1.09,2c-.64,1.26-1.16,2.6-1.68,3.92L87,169.77c-.38.82-.78,1.61-1.23,2.38-.21.36-.43.7-.65,1s-.56.89-.82,1.35A33.1,33.1,0,0,0,82,180.34l-.72,2-.19.55a22.1,22.1,0,0,0-.79,2.75,6.59,6.59,0,0,0-1.14-1.35,15.37,15.37,0,0,0-4-2.6,19.08,19.08,0,0,0-2.48-1,12.34,12.34,0,0,0-3.43-.43,10.94,10.94,0,0,0-2.33.35,10.13,10.13,0,0,0-2.78,1,7.16,7.16,0,0,0-2.91,3,8,8,0,0,0-.62,2.12,6.62,6.62,0,0,0,.23,2.79,8,8,0,0,0,1.26,2.54,8.86,8.86,0,0,0,.83.91,8.46,8.46,0,0,0,4.76,2.19,13.79,13.79,0,0,0,1.82.11,27.83,27.83,0,0,0,3.43-.26c.66-.08,1.33-.17,2-.28l-.83.49c-.7.47-1.4.94-2.09,1.43a36.8,36.8,0,0,0-3.15,2.68l-.3.27c-1,.94-2,1.92-3,2.9a13.26,13.26,0,0,0-2.91,6,19.38,19.38,0,0,0-.52,3.72l0,.6c-.17,1.94-.25,3.88-.33,5.81,0,1-.08,1.94-.13,2.91v-.06c-.15,2.85-.23,5.85-.24,9.39,0,1.3.09,2.6.18,3.9l.06.73c.12,1.53.27,3.06.44,4.58.38,3.33,1,6.53,1.58,9.22l.22,1c.22,1,.44,2.08.7,3.09a6.4,6.4,0,0,0,.74,1.84l.5,0,.42,0a3.14,3.14,0,0,1,.84.31,7.11,7.11,0,0,1,.7.51l.53.35c.33.19.63.38.94.59l.6.42.58.42a9.8,9.8,0,0,0,1.78.88c.72.22,1.43.43,2.13.69l.77.31.79.31c.83.24,1.69.45,2.53.66,1,.26,2.08.5,3.13.71a24.55,24.55,0,0,0,2.43.37l.48.05a5.76,5.76,0,0,1,.94.15,1.29,1.29,0,0,1,.41-.2,1.38,1.38,0,0,1,.55-.11,1.31,1.31,0,0,1,.69.18,2,2,0,0,1,.65.56c1.45.13,2.88.24,4.3.34,1.83.13,3.66.27,5.47.43,3.47.31,6.88.46,9.76.56.7,0,1.39,0,2.09,0,1.59,0,3.17,0,4.75-.09l3-.08,1.78,0c1,0,2,0,3,0l3.14-.09,1.55-.05c2.06-.06,4.12-.07,6.18-.09l3.72,0c1.53,0,3.07,0,4.6,0s3.07,0,4.61.05,2.83.06,4.25.06c5,0,10.11-.24,15.25-.71,1.6-.15,3.11-.29,4.63-.37,1.15-.06,2.32-.06,3.48-.06H180c1.3,0,2.59,0,3.9-.06l2.2-.08c1,0,2.06-.08,3.09-.1h2.38l.3-.22a3.62,3.62,0,0,1,.6-.21,2.57,2.57,0,0,1,.94-.18,2.49,2.49,0,0,1,1.09.25h3.07c.36,0,.73,0,1.09,0l.37,0c.36,0,.7,0,1.06,0l.93,0c1.07-.05,2.14-.09,3.2-.24a1.93,1.93,0,0,0,.92.23,21.43,21.43,0,0,0,5.25-.89,11.78,11.78,0,0,0,3.41-1.49c.08-.2.18-.39.27-.58l.17-.27.22-.32v0l.32-.29,0,0a1.76,1.76,0,0,1,1-.29l.27-.27a5.93,5.93,0,0,0,1.15-2.56c.22-1,.39-2,.56-3l.1-.54a65.67,65.67,0,0,0,.8-9.18c0-1.34,0-2.68,0-4v-.57c0-1.55-.07-3.09-.18-4.63-.13-2.11-.25-4.21-.33-6.32s-.19-4-.39-6c-.12-1.09-.26-2.18-.39-3.26l-.33-2.62-.1-.84c-.07-.66-.15-1.32-.26-2s-.29-1.32-.45-2l-.33-1.44a10.72,10.72,0,0,0-.76-2.58,16,16,0,0,0-1.69-2.73c-.93-1.21-2-2.36-3-3.47l-.42-.47-.26-.24,0,0-.23-.28c-.57-.7-1.14-1.41-1.77-2-.36-.37-.74-.73-1.12-1.07a9.11,9.11,0,0,0,1.39.08q.71,0,1.41,0A11.44,11.44,0,0,0,213,195a12.27,12.27,0,0,0,2.12-1.18l.35-.23a7.32,7.32,0,0,0,3.09-3.81,6.24,6.24,0,0,0-.24-3.73,7.83,7.83,0,0,0-.89-1.73,5.24,5.24,0,0,0-.94-1,4.22,4.22,0,0,0-1.49-.8,6.3,6.3,0,0,0-2-.45c-.57,0-1.05.06-1.51.1a20.64,20.64,0,0,0-4.2,1,21.17,21.17,0,0,0-4.17,1.85,28.58,28.58,0,0,0-3,2.13,17.22,17.22,0,0,0-.41-1.8l-.84-2.82-.84-2.82c-.33-1.11-.71-2.19-1.09-3.28-.28-.81-.57-1.63-.83-2.45l-.24-.71c-.25-.78-.5-1.56-.79-2.34-.22-.58-.47-1.14-.72-1.72l-.42-1-.47-1.2c-.47-1.21-.94-2.41-1.43-3.62-.42-1-.92-2-1.43-3l-.69-1.37a19.48,19.48,0,0,0-1.09-2,12,12,0,0,0-1.7-2.12,5.11,5.11,0,0,0-2.71-1.33l-1.29-.24a3.22,3.22,0,0,0-.91-.62,4.41,4.41,0,0,0-1.57-.24l-.51,0c-.88-.06-1.75-.09-2.62-.13l-1.31,0-1.84-.07-1.84-.07c-.83,0-1.67-.11-2.5-.19l-1.22-.1-3.74-.24-2-.07c-.66,0-1.32,0-2-.07s-1.29-.08-1.94-.12-1.29-.1-1.94-.13l-1.17,0Zm-9,4.37h1.43c.59,0,1.17,0,1.76,0q1.13,0,2.25,0l.75,0,1,0c1.87,0,3.47.11,5.08.22q1.09.09,2.19.12l.54,0c1,0,2,.07,3,.14l1.26.11c1.38.1,2.74.21,4.1.33a18.17,18.17,0,0,0,2,.08c.73,0,1.47,0,2.21-.05l1.15,0h3.7l.8.06a10.11,10.11,0,0,0,1.08.07,4.51,4.51,0,0,0,1.21-.15l.64-.3.32-.1a3.16,3.16,0,0,1,1.05.93l.21.3a15.4,15.4,0,0,1,1,1.63,17.81,17.81,0,0,1,.89,1.92q.7,1.77,1.23,3.6l.27.92.2.7.28.91.51,1.74c.34,1.23.7,2.46,1.06,3.68l.31,1.1.15.54c.23.88.47,1.76.75,2.63l.37,1.09c.31.94.62,1.88.89,2.83.41,1.4.79,2.81,1.16,4.21.31,1.17.64,2.32,1.06,3.46.12.31.22.62.33.94l.19.66a3.44,3.44,0,0,0-.26.56l-.21.65-.41.07c-.45,0-.89.07-1.34.13l-.43,0c-.74.08-1.48.16-2.21.2H183c-.93,0-1.85,0-2.77,0-2.79.1-5.59.2-8.38.25-1.35,0-2.69,0-4,0-1.85,0-3.71,0-5.55,0l-1.44,0c-2.7,0-5.42.09-8.09.25l-3,.19c-2.13.15-4.26.29-6.4.37l-4.5.18c-1.51.07-3,.14-4.54.19-2.12.06-4.24.1-6.36.1-2.75,0-5.62-.09-8.78-.23l-2.49-.24-.69-.07-.62-.06-1.16-.12-.9-.09c-1-.11-2-.22-2.93-.29l-1.62-.16c-2.61-.24-5.24-.49-7.85-.78-4-.48-8.13-.8-11.59-1-1.62-.11-3.36-.25-5.11-.54a2.18,2.18,0,0,0-.38,0c.16-.42.34-.89.52-1.39l.16-.43.21-.54c.18-.55.35-1.12.55-1.75l.23-.79.28-.89c.29-1,.56-2,.79-2.95.39-1.62.87-3.28,1.52-5.23l.18-.53.2-.6.2-.61c.28-.87.57-1.74.83-2.64a18.47,18.47,0,0,1,.92-2.82l.12-.32a22.38,22.38,0,0,1,1.27-2.45l.57-.93c.34-.56.68-1.11,1-1.69.48-1,.91-2,1.33-3l.34-.5.12-.28,0,0h0l.1-.14c4.09,0,7.54-.12,10.5-.29q2.35-.12,4.71-.21l1.71-.05c1,0,1.95-.05,2.94-.12l2-.11c2.56-.14,5.13-.29,7.7-.53l3.94-.38c1.79-.19,3.58-.37,5.39-.54l1.55-.13c1.56-.12,3.12-.25,4.69-.43l1.53-.16.39,0c1.32-.14,2.65-.28,4-.34ZM81.11,223.66a7,7,0,0,1-.77-.16l-1-.45-.55-.26-.68-.32c-.82-.39-1.62-.81-2.4-1.28a15.55,15.55,0,0,1-2-1.72,15.9,15.9,0,0,1-1.52-2.22,14.27,14.27,0,0,1-.71-2,11.71,11.71,0,0,1-.17-1.87,23.45,23.45,0,0,1,1-4.56l.2-.54a16,16,0,0,1,1.45-2.93c.39-.52.78-1,1.18-1.46l.24-.25.21-.22.61-.62a9.09,9.09,0,0,1,1.39-.94,11.28,11.28,0,0,1,1.86-.62,1.77,1.77,0,0,0,1,.27,11.43,11.43,0,0,1,1.57-.13,11,11,0,0,1,2,.34,11.41,11.41,0,0,1,1.16.58,10.75,10.75,0,0,1,1.1,1,41.2,41.2,0,0,1,3.42,4.85l.37.64a12.05,12.05,0,0,1,.7,1.94,11.88,11.88,0,0,1,.12,1.58,24.2,24.2,0,0,1-.93,4.84,13.12,13.12,0,0,1-1.22,2.62,12.25,12.25,0,0,1-1.15,1.35,18,18,0,0,1-2.42,1.63,14.69,14.69,0,0,1-2,.74,12.76,12.76,0,0,1-2.07.17ZM66.26,212.74c0-.53.08-1.07.14-1.6a18.67,18.67,0,0,1,.75-3.42,11.21,11.21,0,0,1,.71-1.58,7.11,7.11,0,0,1,.81-.92c.58-.48,1.17-.94,1.76-1.41l1-.79-.07.06a16.59,16.59,0,0,0-3,4.15,27.34,27.34,0,0,0-1.91,4.82,5.91,5.91,0,0,0-.19.69ZM192,213.92a30.2,30.2,0,0,1,1.05-5.53,13.38,13.38,0,0,1,.92-1.92,7.58,7.58,0,0,1,1-1.08,11.86,11.86,0,0,1,1.24-.8,13.29,13.29,0,0,1,2.47-1,13.67,13.67,0,0,1,1.69-.09,8.23,8.23,0,0,1,1.49.32,15.79,15.79,0,0,1,1.74.76l.27.3a8.75,8.75,0,0,0,.72.78,8.53,8.53,0,0,0,1.39.92c.17.14.33.29.5.46a11,11,0,0,1,.71,1.11,13.7,13.7,0,0,1,.86,2.43,21.13,21.13,0,0,1,.27,3.29v.46a26.24,26.24,0,0,1-1.18,5.76,16.93,16.93,0,0,1-1.55,3.25,16.58,16.58,0,0,1-1.81,2.12c-.18.13-.35.26-.55.38a2.28,2.28,0,0,1-.71.11,16.59,16.59,0,0,1-1.9-.35c-.55-.12-1.08-.27-1.63-.43l-.35-.19a27.79,27.79,0,0,1-3.33-2.93,13.74,13.74,0,0,1-1.18-1.65c-.35-.57-.67-1.13-1-1.71a19.3,19.3,0,0,1-1-2.78,11.31,11.31,0,0,1-.09-1.53l0-.51ZM97.73,224.85l.25-.3c.23-.27.46-.55.69-.81,2-2.18,3.48-3.65,5-5a10.69,10.69,0,0,1,2-1.39,14.35,14.35,0,0,1,2.63-.94,38.66,38.66,0,0,1,4-.5c.9,0,1.81-.06,2.71-.07h1.46c.83,0,1.67-.07,2.55-.16l1.58-.13,2.92-.12,1.46-.06,2.32-.07,2.32-.08c.82,0,1.66,0,2.5-.06s1.47,0,2.21,0c1.24,0,2.46-.12,3.69-.2l1-.08,2.2-.12c.88,0,1.78-.09,2.66-.16,1.93-.15,3.85-.24,5.79-.27h1.24c1.44,0,2.89.06,4.48.13a81.44,81.44,0,0,1,9.91,1.1c1.38.25,2.75.54,4.08.87l.52.1v0c1.13.31,2.26.66,3.35,1.06l-.31-.21a20,20,0,0,1,3.66,1.85l.34.2,0,0a16.63,16.63,0,0,1,2.15,1.89c.54.64,1.06,1.31,1.56,2a14.93,14.93,0,0,1,1.22,2.12,3.43,3.43,0,0,1,.25.55,2.16,2.16,0,0,1,.14.43l-.6.11h-.72l-3.56,0c-1.52,0-3,0-4.57.05l-3.24,0h-9.18q-3.62,0-7.21-.16l-1.24-.08c-.85-.06-1.69-.11-2.54-.13-1.13,0-2.26-.06-3.39-.07h-1.13c-2.78,0-5.57-.09-8.59-.25l-1.28-.09c-.88-.06-1.76-.12-2.66-.16-2.63-.15-5.26-.24-7.89-.29h-1.08l-2.62,0h-.44c-.91,0-1.81,0-2.76-.06l-1-.08c-1.38-.12-2.77-.22-4.17-.26-1.79-.05-3.59-.05-5.4-.05s-3.58,0-5.38,0l-2.41-.06H97.73ZM78.29,246.32a6.67,6.67,0,0,1-1.24-.26,15.59,15.59,0,0,1-2.1-1l-.31-.15,0,0a12.46,12.46,0,0,1-.93-.86,6.49,6.49,0,0,1-.8-1.14l-.24-.62a6.33,6.33,0,0,1,0-.76,7.43,7.43,0,0,1,.23-1,5.08,5.08,0,0,1,.35-.7,9.28,9.28,0,0,1,.71-.82,7.22,7.22,0,0,1,.72-.46,3.66,3.66,0,0,0,1,.18H76l.73,0H77a9.56,9.56,0,0,1,1.73.29,7.69,7.69,0,0,1,1.29.64,5,5,0,0,1,.56.49,7.06,7.06,0,0,1,.42.69,9,9,0,0,1,.33.88,8.81,8.81,0,0,1,.06,1,6.76,6.76,0,0,1-.26,1.34,8.63,8.63,0,0,1-.58,1.24,5.49,5.49,0,0,1-.44.52l-.3.19a3.45,3.45,0,0,1-.75.29,6.84,6.84,0,0,1-.79,0Zm124.15,1.48-.48-.06a12.21,12.21,0,0,1-1.11-.61,8.71,8.71,0,0,1-.86-.75,6.47,6.47,0,0,1-.38-.55c-.1-.17-.23-.52-.25-.54,0-.37-.08-.73-.09-1.13a9.45,9.45,0,0,1,.26-1.24q.16-.36.36-.75a7.45,7.45,0,0,1,.63-.74c.29-.2.52-.36.78-.52.71-.31,1.43-.58,2.15-.83.52.21.74.32,1,.45l.61.55a8.42,8.42,0,0,1,1,1.46c.13.26.25.54.37.83a2.46,2.46,0,0,1,.06.57,4.5,4.5,0,0,1-.2,1,11.4,11.4,0,0,1-.56,1.1,7.41,7.41,0,0,1-.77.91,3.43,3.43,0,0,1-.49.36,5.79,5.79,0,0,1-1,.4,5.22,5.22,0,0,1-1,.08Zm-77-4.88h0c1.19,0,2.39,0,3.58,0l1.2,0,2.73,0c2.21,0,4.42,0,6.62.13q2.88.18,5.76.42l3.36.23,1.15.1c1.15.1,2.3.18,3.45.25,1.74.11,3.49.18,5.22.24l2.24.07,2.29.06,1.46.06.62,0c.59,0,1.19,0,1.78,0a35.05,35.05,0,0,0,4-.29c1-.11,2-.16,3-.21l1.35-.09,1.17-.07c.69-.06,1.4-.1,2.1-.12h.33l.76,0h.73a1.32,1.32,0,0,1,0,1,12.35,12.35,0,0,1-1,1.85l-.33.53-.64,1a17.46,17.46,0,0,1-2.07,2.56,12.15,12.15,0,0,1-2.41,1.77,16.51,16.51,0,0,1-3.56,1.16,1.77,1.77,0,0,1-.32,0,19.32,19.32,0,0,1-2.4.19h-.34l-.73,0c-.88.05-1.76.09-2.93.09h-2.34c-.58,0-1.18,0-1.76,0h-.87c-1.06,0-2.12,0-3.18-.07-.64,0-1.26-.12-1.93-.19l-.62-.06-1-.1c-.9-.09-1.8-.13-2.69-.17l-1,0-.89-.06c-.92-.06-1.84-.11-3-.11s-2.27.08-3.4.17-2.34.15-3.5.21l-1.39.09c-.8.06-1.53.12-2.29.14l-2.82,0h-4.08l-2.37,0c-1.92,0-3.85,0-5.71-.14l-2.49-.14-2-.1-.32,0c-.62-.07-1.21-.18-1.89-.31l-.74-.13a14.48,14.48,0,0,1-2-.5,7,7,0,0,1-1.28-.66,13.22,13.22,0,0,0-1.86-.71,16.75,16.75,0,0,1-2-.9c-.69-.33-1.26-.65-1.86-1L102,249a6.83,6.83,0,0,1-.45-.69c-.44-.94-.83-1.92-1.21-2.91l-.26-.64-.46-1.3-.15-.32h0l.62-.1a1.15,1.15,0,0,0,.41-.15l4.27.1,6.47.13h1.21c1.84,0,3.66-.06,5.49-.13l3.06-.11h.76c.65,0,1.31,0,2,0l1.65,0Z"/></g></g></svg>