<svg xmlns="http://www.w3.org/2000/svg" viewBox="0 0 153.56 230.86"><defs><style>.cls-1{fill:#e7af2b;}.cls-2{fill:#e56e1b;}.cls-3{fill:#51565d;}.cls-4{fill:#454a50;}.cls-5{fill:#fff0dd;}</style></defs><title>Asset 9</title><g id="Layer_2" data-name="Layer 2"><g id="Layer_1-2" data-name="Layer 1"><path class="cls-1" d="M102.27,0c-.58,0-1.16,0-1.75.05a22.27,22.27,0,0,0-5.94,1.4c-.83.27-1.64.58-2.45.9A25.38,25.38,0,0,0,86.8,5.29,34.13,34.13,0,0,0,82.74,8.5c-.94.86-1.8,1.81-2.65,2.75l-.65.72a15.51,15.51,0,0,0-1.2,1.48l-.47.61c-.48.59-.92,1.27-1.35,1.92-1.06,1.67-2,3.27-2.93,4.91s-1.87,3.48-2.77,5.23l-.26.49-.48.94c-.62,1.22-1.24,2.44-1.78,3.69a29.78,29.78,0,0,0-1.9,5.91c-.3,1.62-.54,3.35-.77,5.6a31.87,31.87,0,0,0,0,5.17l0,.71a23.44,23.44,0,0,0,.83,5.09c.57,2,1.17,3.89,1.87,5.81.46,1.3,1,2.58,1.49,3.85l.46,1.12c.67,1.7,1.38,3.4,2.09,5.09,1.35,3.25,2.75,6.6,3.91,10,.25.91.48,1.82.71,2.74s.36,1.87.49,2.81l.08.61c.25,1.88.42,3.92.53,6.43,0,1.07,0,2.14-.11,3.23A19.29,19.29,0,0,1,77.54,98l-.09.47A33.51,33.51,0,0,1,75,104.15c-.27.47-.54.94-.8,1.42A24.26,24.26,0,0,1,71,109.92a19,19,0,0,1-2.73,2.33,12.19,12.19,0,0,1-2.13.91,15.24,15.24,0,0,1-2.8.39A14,14,0,0,1,61,113.3c-.45-.15-.9-.33-1.34-.52a10,10,0,0,1-1.32-.92,12.31,12.31,0,0,1-1.28-1.62,12,12,0,0,1-1.69-5.89c0-5.56,1.43-11,2.78-16.35l.51-2h0c.45-1.74.91-3.47,1.48-5.16.41-1.24.85-2.46,1.29-3.69l.66-1.84A18.72,18.72,0,0,0,62.2,63.4,30.66,30.66,0,0,0,60,58.26,24,24,0,0,0,56,52.59a13.48,13.48,0,0,0-9.08-4.16,8.81,8.81,0,0,0-2.13.26A12.2,12.2,0,0,0,39,52.29a9.11,9.11,0,0,0-2.05,3,8.38,8.38,0,0,0-.46,3.51l.2.65h0a4.62,4.62,0,0,0,.47,1.26,9,9,0,0,0,.72,1.13c.29.43.55.78.82,1.12.48.64.94,1.27,1.37,1.92a15.69,15.69,0,0,1,1.23,2.85,14.84,14.84,0,0,1,.34,2.15,22.11,22.11,0,0,1-.49,4.06A21.62,21.62,0,0,1,39.5,78a66.14,66.14,0,0,1-6.64,8.85c-2.21,2.56-4.44,5.09-6.73,7.57L25,95.61c-2.1,2.16-4.28,4.39-6.26,6.71-1.86,2.16-3.38,4-4.79,5.92a36.73,36.73,0,0,0-4.06,7.19,40,40,0,0,0-1.5,4.4c-.83,2.73-1.32,4.62-1.7,6.41-.3,1.4-.57,2.77-.75,4.19a24.63,24.63,0,0,0-.08,4.32,18.92,18.92,0,0,0,.22,2,15.39,15.39,0,0,0,.68,2.45l.2.59a21.18,21.18,0,0,0,1.21,2.82l.44,1a36.43,36.43,0,0,0,3.71,6.06,27.79,27.79,0,0,0,5.22,5.31A18.52,18.52,0,0,0,21,157a19,19,0,0,0,3.89,1.25l1.12.25a15.45,15.45,0,0,1,2.52.91,9.57,9.57,0,0,1,.89.64l.28.35a3.46,3.46,0,0,1,.18.86,10.56,10.56,0,0,1-.13,1.48c-.08.24-.18.48-.28.74a15.6,15.6,0,0,1-1.22,1.62c-.79.76-1.62,1.47-2.46,2.18s-1.74,1.47-2.56,2.27a20.19,20.19,0,0,0-4.11,5.7,14.35,14.35,0,0,0-1,3.26,13,13,0,0,0,.76,7.5l.12.35a27,27,0,0,0,1.34,3,14.09,14.09,0,0,0,5,5.66,23,23,0,0,0,6.13,2.57l.38.09.37.1a43.48,43.48,0,0,1,5.43,4.35l.52.49.66.63a47.12,47.12,0,0,1,3.88,4.32L43.92,209q1.47,1.91,3,3.78a106.92,106.92,0,0,0,10.58,10.8h0c.25.25.49.47.74.7l.48.44.07.09a21.73,21.73,0,0,0,3.3,2.77c.77.51,1.58,1,2.4,1.4l.42.23A14.5,14.5,0,0,0,71,230.81c.83,0,1.66.05,2.49.05,1.05,0,2.1,0,3.16-.12a20.18,20.18,0,0,0,8.93-3.22c1.3-.82,2.54-1.69,3.78-2.61a36.19,36.19,0,0,0,3.91-3.72c1.22-1.31,2.31-2.55,3.39-3.79.92-1.05,1.83-2.1,2.78-3.13a35.23,35.23,0,0,1,5.79-4.92,20.84,20.84,0,0,1,3.28-1.48,40.83,40.83,0,0,1,8.77-1.25h.08v0l.24,0h-.07s-.08,0-.08,0h0c1.63,0,3.27,0,4.92.12l.75,0c.52,0,1,0,1.58-.08a9.15,9.15,0,0,0,2.79-.88,11.82,11.82,0,0,0,2.65-1.66,20.08,20.08,0,0,0,5.15-6A19.39,19.39,0,0,0,137,185.81a55.54,55.54,0,0,0-3.19-10.92l-.73-1.82c-.42-1-.84-2.06-1.21-3.11-.66-1.85-1.26-3.74-1.84-5.62-.22-.67-.42-1.34-.61-2l-.26-.85a54.57,54.57,0,0,1-2.18-10.28,26.93,26.93,0,0,1,.66-6.32,27.54,27.54,0,0,1,1.94-4.72,17.37,17.37,0,0,1,2.13-3,32.33,32.33,0,0,1,5.85-4.46c1-.59,2.32-1.29,3.63-2l1-.53a24.79,24.79,0,0,0,4.32-2.7,20.29,20.29,0,0,0,1.75-1.72,21.82,21.82,0,0,0,2.28-3.05,23.1,23.1,0,0,0,1.28-2.47,22.22,22.22,0,0,0,1.16-3.95,34.18,34.18,0,0,0,.16-12.35,42.66,42.66,0,0,0-3.36-10.64,33.84,33.84,0,0,0-4.09-6.69,42.58,42.58,0,0,0-4.93-5.28l-.41-.41-.38-.35-.37-.36-.73-.74c-.9-.88-1.75-1.79-2.62-2.71l-.68-.73a23.59,23.59,0,0,1-2.28-2.7,11.57,11.57,0,0,1-.7-1.56,5.54,5.54,0,0,1,.1-1.15,6,6,0,0,1,.27-.7l.26-.28,0,0,.32-.19.48-.29a2,2,0,0,0,.78-1.36,1.89,1.89,0,0,0-.78-1.77,1.66,1.66,0,0,0-.58-.29,3.72,3.72,0,0,0-1.13-.22l-.35,0,0,0a1.76,1.76,0,0,0-.37-.08,5.1,5.1,0,0,0-.87-.07,6.73,6.73,0,0,0-2.22.4,12.72,12.72,0,0,0-3.31,1.67,9,9,0,0,0-3,3.6,11.17,11.17,0,0,0-.89,4,10.67,10.67,0,0,0,1.18,5.52c.43.86.91,1.72,1.38,2.57a35.87,35.87,0,0,1,2.68,5.71,12.33,12.33,0,0,1,.35,2.27,14.08,14.08,0,0,1-.28,2.51,26.81,26.81,0,0,1-1.54,3.94,17.3,17.3,0,0,1-1.94,2.83,13.52,13.52,0,0,1-1.87,1.6,16.79,16.79,0,0,1-2.27,1,12.79,12.79,0,0,1-2.52.36,18.61,18.61,0,0,1-3.77-.43,14.07,14.07,0,0,1-2.18-.85,9.15,9.15,0,0,1-1-.73,6.68,6.68,0,0,1-.61-.69,10.4,10.4,0,0,1-.45-1.09,10.59,10.59,0,0,1-.23-1.93c0-1.26.11-2.49.24-3.73a32.33,32.33,0,0,1,.75-3.82c.66-2.2,1.49-4.37,2.3-6.48.44-1.15.88-2.29,1.3-3.45a49.3,49.3,0,0,0,1.73-6,24,24,0,0,0,.48-3.4,22.92,22.92,0,0,0-.44-6,34,34,0,0,0-4-10.66,41.83,41.83,0,0,0-3.14-4.88c-1.17-1.5-2.4-2.92-3.68-4.34l-.26-.3A43.84,43.84,0,0,1,100,40.38a25.48,25.48,0,0,1-2.08-4.72,26.29,26.29,0,0,1-.84-4.87,17.66,17.66,0,0,1,.33-2.87,19.54,19.54,0,0,1,1.35-3.48,28.51,28.51,0,0,1,3.12-4.16c1.23-1.2,2.51-2.33,3.83-3.45l.28-.24c.51-.44,1-.88,1.51-1.35s.89-.83,1.3-1.27A15.46,15.46,0,0,0,110,12.53a10.52,10.52,0,0,0,1-1.75A9.59,9.59,0,0,0,111.81,8a6.89,6.89,0,0,0-.49-3.1,6,6,0,0,0-1.29-2A8.65,8.65,0,0,0,107.34,1a10.14,10.14,0,0,0-2.77-.8,12,12,0,0,0-2.3-.21Z"/><path class="cls-2" d="M41,84.22a45.68,45.68,0,0,1-4.22,5.44c-5,4.7-10.69,8.58-16,12.85a62.7,62.7,0,0,0-16.26,19.6c-6.25,11.47-7,26.54,4.28,35.19,5,3.83,11.57,3.73,17.55,3.43h.15a22.42,22.42,0,0,1-1.89,2.38,32.69,32.69,0,0,0-6.54,9c-3.7,8,1.92,15.75,9.32,18.65,0,0,.08,0,.05-.07-.56-.62-1.09-1.26-1.6-1.91a37.71,37.71,0,0,1-2.9-6.5c-.09-.5-.18-1-.28-1.51s.06-1,.09-1.47c-.06.25-.12.49-.19.73a12.71,12.71,0,0,1,1.09-3.16,31.21,31.21,0,0,1,3.26-4.43c4.5-4.34,9.64-8,9.19-15-.33-5.22-6.6-9.05-10.51-12.4a35,35,0,0,1-2.73-3.21,40.17,40.17,0,0,1-2.21-5,36.23,36.23,0,0,1-.57-4.29A73.36,73.36,0,0,1,21.8,117.2,32.25,32.25,0,0,1,24,111.79c5.48-9.33,13.26-17.35,17.13-27.53,0,0,0-.06,0-.06H41v0ZM22.09,116l-.18.78.18-.78Zm4.58,44.36.08,0h0l-.08,0Zm.5.25h0v0h0v0Zm-.6.18h0l-.06.11.06-.11Zm1.1.17h0a4.81,4.81,0,0,1,.47.44l-.48-.44Z"/><path class="cls-2" d="M85.87,5c-4.9,1.85-8.33,5-11.62,9a39,39,0,0,0-8.32,18.55c-1.3,7-.86,14.88.1,21.92s4.09,14.32,6.24,21.24c1.56,5.42,3.16,10.83,3.61,16.48a11,11,0,0,1-.56,3c.05-.25.12-.49.18-.75a78,78,0,0,1-3.15,7.63l.25-.46a12.65,12.65,0,0,1-2,2.92,38.21,38.21,0,0,1-4.32,3.4,13.9,13.9,0,0,1-2.73,1.29s0,.08,0,.08c7.92.18,14.25-5.87,17.46-12.68,3.07-6.51,2-14.56,1.2-21.53A143,143,0,0,0,78.07,56a90.76,90.76,0,0,1-2.9-19.24,53.87,53.87,0,0,1,1.1-10.44c-.1.35-.18.72-.27,1.07l.45-1.82A75,75,0,0,1,81.89,13.5,18.72,18.72,0,0,1,84,10.58a37.51,37.51,0,0,1,6-4.79,26.48,26.48,0,0,1,5.62-2.64s0-.08,0-.08H95a25.65,25.65,0,0,0-9.16,2ZM90,5.81a.78.78,0,0,1-.18.11L90,5.81ZM82.21,12.9l-.31.59.31-.59Z"/><path class="cls-2" d="M122.62,73.2c-1,5.21-.4,9.35,1.06,14.2a28.45,28.45,0,0,1,.91,5.28,36.84,36.84,0,0,1-.66,5.73,14.32,14.32,0,0,1-1.06,2.72A22.46,22.46,0,0,1,120.1,105a34,34,0,0,1-4.36,3.65,14.74,14.74,0,0,1-2.83,1.36l.14,0-.15,0h0a5.16,5.16,0,0,1-1.3.18h.1a3,3,0,0,1-1.07-.16h0l-.36-.17s-.07,0-.05.07c1.54,2,4.26,1.62,6.43,1.11,5.59-1.33,11.27-6.29,12.5-12a18.92,18.92,0,0,0-.92-11.42c-1.22-3-3.11-5.52-4.21-8.57a55,55,0,0,1-1.3-5.85s0,0,0,0,0,0,0,0Zm1.11,14.37a1.54,1.54,0,0,0,0,.17,1.54,1.54,0,0,1,0-.17Zm.36,10.19-.15.61.15-.61Zm-1.26,3.44c0,.09-.09.18-.14.27,0-.09.1-.18.14-.27Zm-12.21,8.85Zm2.27,0h0Z"/><path class="cls-3" d="M111.59,160.55a9.06,9.06,0,0,0-1.77.23,3.71,3.71,0,0,0-1.21-.21l-.48,0h-.51a5.48,5.48,0,0,0-1.72.21,11.56,11.56,0,0,0-2.85,1.26,10,10,0,0,0-3.66,3.85,10.6,10.6,0,0,0-1.06,4.53l0,1c0,.5,0,1,0,1.5a3.76,3.76,0,0,1-.23.84,21.52,21.52,0,0,1-1.44,2.29l-1.82,2.17-.22.26a39.77,39.77,0,0,0-3.22,4.16,13.37,13.37,0,0,0-2.27,7.07c0,2.81,1.44,5.56,4.24,8a19.17,19.17,0,0,0,4,2.57,17.93,17.93,0,0,0,3.57,1.36c1.23.32,2.47.56,3.71.8l.61.12,2,.38c1.15.23,2.3.53,3.45.84.76.22,1.5.42,2.24.58a61.44,61.44,0,0,0,6.59,1.24,13.74,13.74,0,0,0,1.44.08,18.74,18.74,0,0,0,3-.27,14.22,14.22,0,0,0,4.8-2c3.2-1.9,4.67-5.27,5.59-8a22,22,0,0,0-.15-16.9,29.44,29.44,0,0,0-2.71-5.52,31.79,31.79,0,0,0-8.88-8.49,26,26,0,0,0-5.38-2.82,19.45,19.45,0,0,0-2-.65,13.29,13.29,0,0,0-2.14-.36l-.92-.12a4.7,4.7,0,0,0-.52,0Z"/><path class="cls-3" d="M118,112.45c-.31,0-.61,0-.92,0a19.3,19.3,0,0,0-7.72,2.4,10.18,10.18,0,0,0-3.74,3.5,10.88,10.88,0,0,0-1.43,3.9,25.42,25.42,0,0,0-2.07,6.1,13.28,13.28,0,0,0-.2,4.54,10.34,10.34,0,0,0,1.64,4.08,16.4,16.4,0,0,0,4.09,3.89c.63.53,1.15,1,1.66,1.42a22.84,22.84,0,0,0,6.28,3.87,20.31,20.31,0,0,0,7.86,1.75,17.28,17.28,0,0,0,2.71-.24c3.18-.6,5.64-3.35,7.34-8.17a32.12,32.12,0,0,0,1.57-6.76,19.09,19.09,0,0,0-2-11.21,14,14,0,0,0-3.64-4.22,35,35,0,0,0-3.14-2.29,15.68,15.68,0,0,0-8.26-2.6Z"/><path class="cls-3" d="M62.47,114H62.2a18.52,18.52,0,0,0-6.32,1.39,26,26,0,0,0-7.65,4.37c-3.2,2.69-4.68,6.63-5.36,9.47a30.69,30.69,0,0,0-.66,5.21l-.08.84a36.32,36.32,0,0,1-1.74,5.84c-.49,1.11-1,2.22-1.53,3.31-.32.64-.69,1.25-1.06,1.86l-.4.62a18.28,18.28,0,0,0-1.74,3.49c-.65,1.49-.37,3.39-.14,4.91a6.91,6.91,0,0,0,.77,2.09l.27.57a9.08,9.08,0,0,0,1.55,2.21,20.88,20.88,0,0,0,9.17,5.45,40.45,40.45,0,0,0,4.53,1.05,19.8,19.8,0,0,1,4.44,1.5c.7.3,1.4.6,2.08.84a27.87,27.87,0,0,0,3,.86,13,13,0,0,0,3.08.35,20.42,20.42,0,0,0,3.16-.28,13.46,13.46,0,0,0,5.49-2.61,28.54,28.54,0,0,0,5.76-6.07,49.51,49.51,0,0,0,3-4.64l.3-.49a25.3,25.3,0,0,0,3.28-7.8c.28-1.36.49-2.72.64-4.1a16.28,16.28,0,0,0-.27-4.12,31.47,31.47,0,0,0-1.2-5.3,46.54,46.54,0,0,0-2-5.2,21.45,21.45,0,0,0-2.38-4.08c-.12-.41-.2-.75-.28-1.06s-.12-.48-.19-.69l-.47-1.15-.49-1.13a9.51,9.51,0,0,0-3.45-3.45,22,22,0,0,0-13-4.06Z"/><path class="cls-3" d="M57.39,181.79a16.78,16.78,0,0,0-2.66.28l-.42.07a19.77,19.77,0,0,0-7.14,2.92,24.69,24.69,0,0,0-4.92.86,27.62,27.62,0,0,0-5.19,2.33,21.82,21.82,0,0,0-8.67,9,20.59,20.59,0,0,0-2.05,10.65,23.1,23.1,0,0,0,.95,5.6,14.5,14.5,0,0,0,3.08,5.23c2.2,2.57,5.73,3.25,8.56,3.55a8.71,8.71,0,0,0,1,.05,22.41,22.41,0,0,0,5.31-.88l.76-.19,4.38-1.15,3.26-.87c1.2-.31,2.33-.67,3.47-1.08A21.52,21.52,0,0,0,66.19,212a56.07,56.07,0,0,0,6-7.93,28.77,28.77,0,0,0,2.59-5.53,10.24,10.24,0,0,0-.29-7.2,12.63,12.63,0,0,0-2.16-3.69,14,14,0,0,0-2.85-2.43,16.58,16.58,0,0,0-4.07-1.92l-.39-.15a15,15,0,0,0-2-.59c-.65-.15-1.26-.28-1.9-.37-1-.15-2.08-.27-3.13-.37a5.62,5.62,0,0,0-.59,0Z"/><path class="cls-4" d="M120.7,163.72c1.6,1.43,3.44,2.91,4.9,4.49a40.44,40.44,0,0,1,5,7.78,16.54,16.54,0,0,1,1,3.5,6.27,6.27,0,0,1,0,.75c-.15.9-.24,1.81-.35,2.74,0-.3.07-.6.11-.88-.52,3.86.2,7.74-.13,11.59a10.07,10.07,0,0,1-.33,1.42c-.74,1.63-1.79,3.16-2.64,4.73a22.45,22.45,0,0,1-1.07,2,4.76,4.76,0,0,1-.56.54,2.92,2.92,0,0,1-.57.33l.29-.12-.75.33a7.17,7.17,0,0,1-1.62.48l.24,0a12,12,0,0,1-2.86.18l.18,0a28.2,28.2,0,0,1-6.45-1.31h0l-.35-.12s-.07.05,0,.07l.05,0h0A15.31,15.31,0,0,0,125.29,205h0c.44-.07.87-.12,1.3-.21l-.28,0c1-.13,1.88-.44,2.84-.65-.13,0-.28,0-.43.06,4.48-.65,7.26-4.15,8.9-8.09l0,.07,0-.1c.1-.24.2-.48.29-.73l-.07.16c1-2.67,2-5.62,1.8-8.5-.32-3.83-2-6.09-4.43-8.87-.44-.56-.88-1.13-1.33-1.69l.06.06c-2.22-2.76-3.54-6.18-6.27-8.54a53.43,53.43,0,0,0-6.91-4.39h0s-.08.06,0,.08Zm4.84,39.2a1.24,1.24,0,0,1-.2.1l.2-.1Z"/><path class="cls-4" d="M110.1,201.28a23.6,23.6,0,0,1-4.28.19h0c-.52-.08-1-.17-1.52-.29,0,0-.07.05,0,.08a11.94,11.94,0,0,0,6,1.83l-.23,0,.48.05.13,0h-.06a30.44,30.44,0,0,1,6.9,1.59l-.32-.12c2.79,1.08,5.35,1.61,7.76-.65,0,0,0-.08,0-.07a4.4,4.4,0,0,1-1,.25h0a6.47,6.47,0,0,1-1.24,0l.14,0a9.54,9.54,0,0,1-1.73-.44l.07,0-.09,0-.15-.06.12,0c-2-.89-3.88-2.23-6.17-2.52a11.61,11.61,0,0,0-1.55-.09,32.84,32.84,0,0,0-3.29.22Zm11,2.4h0l0,0Zm-10.49-.55h0Z"/><path class="cls-4" d="M122.13,112.9c1.3,1.69,3.47,2.65,5.15,3.91l.2.17a15.25,15.25,0,0,1,2,2.28,17,17,0,0,1,1.51,3.41,21.57,21.57,0,0,1,.92,3.87,49.74,49.74,0,0,1-.73,10.55,26.2,26.2,0,0,1-1.55,4.68,16.38,16.38,0,0,1-1.33,2.43,7.74,7.74,0,0,1-1,1,5.6,5.6,0,0,1-.94.49,6.5,6.5,0,0,1-.77.12l.27,0-.53,0,.26,0a10.19,10.19,0,0,1-1.34,0,5.9,5.9,0,0,0-2.45.34l.09,0-.15,0a7.32,7.32,0,0,1-1-.09h0a10.36,10.36,0,0,1-1-.26s-.08.06,0,.08a4.23,4.23,0,0,0,3.3.7h.1l.13.05c1.43.75,2.64,1.64,4.33,1.3a11.89,11.89,0,0,0,6.14-3.74,16.06,16.06,0,0,0,4.5-12.08c-.3-5.21-2-10.14-6.11-13.57l.27.22a24.63,24.63,0,0,0-6-4.13l.13.07c-1.07-.53-2.18-.85-3.28-1.3h0l0,0h0c-.32-.17-.63-.35-.94-.54h0a.05.05,0,0,0,0,.08Zm5,3.79.15.12-.15-.12Zm.35.29.07.07a.46.46,0,0,1-.07-.07Zm2.16,24.85c0,.13-.11.25-.16.38.05-.13.11-.26.16-.38ZM127.48,145l-.15.1.15-.1Zm-.2.13-.11.08.11-.08Zm-5.54,1h0Zm1.4-32.75h0Z"/><path class="cls-4" d="M132.54,141.07a6.77,6.77,0,0,1-.77,1.29l0,0a8.07,8.07,0,0,1-1.24,1.17,7.34,7.34,0,0,1-1,.54,34.26,34.26,0,0,1-7,1.52,23.71,23.71,0,0,1-4.9-.32c-2.21-.46-4.67-2.32-6.9-2.18,0,0,0,.06,0,.08l.1,0h0a2.81,2.81,0,0,1,.88.6l0,0c3.46,3,7,5.24,11.8,4.58,4.06-.57,8.38-2.93,9.18-7.22a.13.13,0,0,0,0-.06h0v0Zm-.75,1.25,0,0v0Z"/><path class="cls-4" d="M76.31,121a.78.78,0,0,1,.14.2h0a3.52,3.52,0,0,1,.38.78h0a117.85,117.85,0,0,1,4.39,18.61,27.09,27.09,0,0,1-.31,5.25l-.18.91c0-.07,0-.15,0-.23a9,9,0,0,1-.59,1.67c-.84,1.71-1.7,3.41-2.5,5.15a45.87,45.87,0,0,1-4.22,7.25,18.8,18.8,0,0,1-2.78,2.32l1.1-.74a36.41,36.41,0,0,1-7.32,4.24,26.61,26.61,0,0,1-5,.71,12,12,0,0,1-2.4-.12,22.87,22.87,0,0,0-5.51-.94c-.06,0-.07.06,0,.09.41.16.8.35,1.2.54,2.54,1.52,4.48,3.29,7.38,4.17,3.57,1.1,6.57,1.82,10.36,1.37a26.78,26.78,0,0,0,8.84-2.29c3.6-1.79,5.35-4.45,7-7.79l-.2.42.27-.57a1.86,1.86,0,0,0,.1-.2l.09-.19.1-.21c.14-.31.29-.61.43-.91l-.28.58a31.18,31.18,0,0,0,2.84-12.2,21.48,21.48,0,0,0-.54-6.83c-.7-2.28-2.13-3.89-3.49-5.75-1.79-2.77-2.9-6-4.62-8.86-.93-1.52-1.82-2.86-2.86-4.31a1,1,0,0,0,.08.14,6.83,6.83,0,0,0-1.87-2.32h0a0,0,0,0,0,0,.08Zm.53,1v0a0,0,0,0,1,0,0ZM81,145.14l-.09.45.09-.45Zm-.16.81c0,.11,0,.21-.05.31,0-.1,0-.2.05-.31Zm-.25,1.3h0l-.34.69c.11-.23.22-.46.34-.69Zm-2.51,5.16-.2.41c.06-.14.13-.27.2-.41Zm-18.3,14.67h0Z"/><path class="cls-4" d="M71.47,189.19a1.3,1.3,0,0,1,.19.22h0a18.71,18.71,0,0,1,1.82,4.18c0-.06,0-.11-.07-.18a7.14,7.14,0,0,1,.29,1.34,1.23,1.23,0,0,1,0,.2l0,.05.06-.1-.06.1,0,.08,0-.08a1.18,1.18,0,0,1-.11.19v0a12.68,12.68,0,0,0-1.68,3.22v0l0,.05-.12.27a.19.19,0,0,1,0-.07,14.8,14.8,0,0,1-1.54,2.75c-1.32,1.51-2.69,3-4,4.5l.44-.54a13.64,13.64,0,0,1-2.12,2.11c.24-.16.48-.32.71-.49-2.21,1.51-4.05,3.45-6.19,5A51.72,51.72,0,0,1,50,217.09l-2.19.73h0c-3.11,1-6.54,2.37-9.83,2.64h-.12c-.26,0-.51,0-.76.06H37a11.93,11.93,0,0,1-1.69,0,8.48,8.48,0,0,1-1.49-.52h0c-.33-.16-.64-.32-1-.51,0,0-.09.05,0,.07,2.73,2.64,6.65,3,10.29,2.85a46.92,46.92,0,0,0,11.08-1.34c6.21-1.81,12.69-4.41,15.69-10.46l-.07.15c.09-.2.19-.39.28-.59a.61.61,0,0,0,0-.12.36.36,0,0,1,0,.09c.28-.57.54-1.14.81-1.71.83-1.68,1.94-3.2,2.7-4.92.9-2,.62-4.24,1-6.37a7.83,7.83,0,0,0,.57-2.81c-.18-1.3-1.26-2.47-2-3.51a.24.24,0,0,0,.06.08,4.43,4.43,0,0,0-1.77-1.77h0s-.06.06,0,.08Zm2.25,5.57a.86.86,0,0,1,0,.17.52.52,0,0,1,0-.11h0v-.06ZM37,220.54h0Zm.85-.07h0Zm32.24-10.32-.21.44c.08-.15.15-.31.22-.47v0Zm1.65-11.55.1-.2v0l-.11.22ZM73.66,195Z"/><path class="cls-4" d="M70.83,186.37a2,2,0,0,0-.58.13,1,1,0,0,0-.53.69,1.33,1.33,0,0,0,.11,1,5,5,0,0,0,.72.93c.13.21.25.42.4.63a7.48,7.48,0,0,0,1.13,1.12.82.82,0,0,0,.65.12.64.64,0,0,0,.18-.06c.06.12.11.25.16.38.15.46.27.92.39,1.39.05.18.11.35.15.53a3.91,3.91,0,0,1,0,.48c0,.45,0,.89-.09,1.33s-.09.69-.15,1a4.31,4.31,0,0,1-.27.76,15,15,0,0,0-.61,1.86.86.86,0,1,0,1.64.52c.12-.39.23-.78.36-1.17s.22-.57.34-.87c.05-.15.12-.3.16-.46a5.23,5.23,0,0,0,.15-.77c.06-.44.11-.87.15-1.32,0-.23,0-.46.06-.69a5.52,5.52,0,0,0-.06-.81,8,8,0,0,0-.3-1.19,16,16,0,0,0-.52-1.66,14.48,14.48,0,0,0-1.41-2.56,2.14,2.14,0,0,0,.13.19,4.23,4.23,0,0,0-.58-.7,3.3,3.3,0,0,0-.89-.57,3,3,0,0,0-.53-.17,2.27,2.27,0,0,0-.35,0Zm.36,1.58h0Zm-.75,1,.1.16s-.07-.1-.1-.16Zm3.22,4.78v.08s0-.05,0-.08Z"/><path class="cls-4" d="M71.14,188.22a.88.88,0,0,0-.38,1.17,13,13,0,0,1,1,1.8c.15.35.3.69.43,1a1,1,0,0,1,0-.16c.2.61.39,1.22.54,1.84a13.93,13.93,0,0,1,.34,2.5,2,2,0,0,1,0,.43,13.36,13.36,0,0,1-.66,2.15.87.87,0,0,0,1.66.53,15.47,15.47,0,0,0,.69-2.32,2.66,2.66,0,0,0,0-.74c0-.27,0-.53,0-.8a15,15,0,0,0-.39-2.4,15.7,15.7,0,0,0-.67-2c-.12-.32-.24-.63-.38-.93a18.52,18.52,0,0,0-.93-1.69.94.94,0,0,0-.79-.47.92.92,0,0,0-.38.09ZM73,196.27v0Zm-.81-4,0-.06v.06Z"/><path class="cls-3" d="M62,119.46a8,8,0,0,0-2.46.68c-.52.22-1.05.45-1.57.71l-.78.4a8.55,8.55,0,0,0-.88.53c-.56.33-1.09.72-1.61,1.1a17.12,17.12,0,0,0-2.71,2.39c-.25.25-.48.49-.71.75A8.05,8.05,0,0,0,50,127.67a.88.88,0,0,0,.3,1.19.86.86,0,0,0,1.19-.28c0-.07.07-.12.09-.18a4.91,4.91,0,0,1,.63-.93,1.41,1.41,0,0,0-.14.18c.38-.45.79-.89,1.19-1.32a22.42,22.42,0,0,1,2.32-2l1.15-.8c.19-.14.41-.25.6-.37s.44-.27.67-.39c.44-.22.87-.45,1.32-.65l1.26-.52.34-.12a8.76,8.76,0,0,1,1-.25,5.92,5.92,0,0,1,.94,0,6.11,6.11,0,0,1,1,.28l.45.19a.83.83,0,0,0,.67-.07.92.92,0,0,0,.42-.51,1,1,0,0,0-.08-.67,1,1,0,0,0-.52-.4l0,0,.06,0a7.16,7.16,0,0,0-.83-.34c-.19-.06-.37-.1-.54-.14s-.25,0-.38-.06a5,5,0,0,0-.76-.06Zm-6.35,4.85a.57.57,0,0,1-.13.08l.13-.08Z"/><path class="cls-5" d="M98.61,14.3a38.79,38.79,0,0,0-2.94,3.85,25.4,25.4,0,0,0-2,3.9c-.57,1.3-1.11,2.61-1.58,3.95-.23.65-.45,1.32-.67,2-.14.46-.28.93-.43,1.41a22.53,22.53,0,0,0-.64,3.17,20.67,20.67,0,0,0,0,5.5,16.07,16.07,0,0,0,.56,2.45,14.58,14.58,0,0,0,1,2.18A25.88,25.88,0,0,0,93.22,45c.35.53.74,1,1.09,1.58.78,1.14,1.55,2.28,2.25,3.46s1.48,2.52,2.21,3.79,1.4,2.4,2,3.63c.48,1,.9,2.08,1.33,3.13A2,2,0,0,0,103,61.6a1.84,1.84,0,0,0,2.49-.76,2,2,0,0,0,.13-1.42,12.41,12.41,0,0,0-1.06-3.09,16.8,16.8,0,0,0-1.86-2.75c-1-1.26-2-2.55-2.88-3.85s-2-2.86-3.07-4.25a34.36,34.36,0,0,1-3.36-4.91l.08.18a1.42,1.42,0,0,1-.08-.18l-.06-.1.06.1a13.47,13.47,0,0,1-.91-2.91c0,.1,0,.19,0,.3-.14-.84-.23-1.66-.29-2.5a27.37,27.37,0,0,1,.1-3.39c0,.09,0,.19,0,.27a25.67,25.67,0,0,1,.51-3.14c.08-.38.22-.76.33-1.13.21-.75.48-1.49.74-2.22l-.08.21c.34-.87.68-1.74,1-2.59.27-.64.54-1.26.84-1.87a25.73,25.73,0,0,1,2.08-3.51c.66-.9,1.35-1.76,2.08-2.61A.87.87,0,0,0,99.24,14a.86.86,0,0,0-.63.28Zm-.8,3.76h0Zm-4.4,22.51Z"/><path class="cls-5" d="M106.53,69.76a.88.88,0,0,0-.83.9c0,1.24-.08,2.48-.13,3.72a.86.86,0,0,0,.9.83.84.84,0,0,0,.6-.27,1,1,0,0,0,.23-.62c0-1.25.09-2.48.14-3.73a.87.87,0,0,0-.87-.83Z"/><path class="cls-5" d="M136.92,89.34a1.45,1.45,0,0,0-.43,2c.42.54.84,1.1,1.25,1.65s.73,1,1.07,1.44a43.41,43.41,0,0,1,2.52,4,27.68,27.68,0,0,1,1.28,3.79c.11.39.19.8.28,1.21.09.58.17,1.17.22,1.77s.1,1.49.14,2.24a1.57,1.57,0,1,0,3.14-.13,21.22,21.22,0,0,0-.39-4,27.51,27.51,0,0,0-1.76-5.45A32.15,32.15,0,0,0,141.3,93c-.75-1.11-1.57-2.17-2.39-3.23a1.58,1.58,0,0,0-1.24-.67,1.37,1.37,0,0,0-.75.23Z"/><path class="cls-5" d="M145.58,116.32c-.1.32-.19.66-.3,1a.87.87,0,1,0,1.69.39c.1-.33.21-.66.3-1a.9.9,0,0,0-.65-1,.65.65,0,0,0-.19,0,.89.89,0,0,0-.85.67Z"/><path class="cls-5" d="M109.49,168.31a.87.87,0,0,0,.28.61.85.85,0,0,0,.63.23c.39,0,.77,0,1.15.08l-.23,0a8.7,8.7,0,0,1,1.14.17c.31.06.6.15.9.23a8.29,8.29,0,0,1,.85.25l.81.34a.91.91,0,0,0,.85-1.6,7.64,7.64,0,0,0-1.82-.71c-.4-.1-.78-.18-1.19-.26a19.33,19.33,0,0,0-2.53-.22h0a.87.87,0,0,0-.8.91Z"/><path class="cls-5" d="M121.79,124a1,1,0,0,0-.44.62,1.14,1.14,0,0,0,.13.79c0,.1.11.21.16.32v0l0,0c0,.08.07.13.09.18l0-.05c.33.74.66,1.49,1,2.27a1,1,0,0,0,1.89-.61c-.21-.56-.42-1.12-.67-1.67s-.46-1-.72-1.55a1,1,0,0,0-.62-.45l-.23,0a1,1,0,0,0-.55.16Zm-.09,1.85,0-.08,0,0,.06.12Z"/><path class="cls-5" d="M68.83,155.73a.82.82,0,0,0-.59.27q-.22.31-.42.63c-.07.13-.15.26-.23.39a10.8,10.8,0,0,1-1.26,1.27,1.14,1.14,0,0,1,.16-.15,3.17,3.17,0,0,1-1.38.66,3.43,3.43,0,0,1-.42.08h0a23.16,23.16,0,0,1-2.34.23c-1,0-1.95,0-2.93-.06a.87.87,0,0,0-.82.91.84.84,0,0,0,.27.6,1,1,0,0,0,.62.23,26.72,26.72,0,0,0,3.9,0,14,14,0,0,0,1.6-.21c.36-.07.7-.15,1.06-.24a4,4,0,0,0,1.32-.72c.29-.22.53-.46.79-.7s.4-.41.59-.63a8.22,8.22,0,0,0,.74-1.14,1,1,0,0,0,.2-.58.89.89,0,0,0-.86-.82h0Zm.67,1.46,0,.05,0-.05Z"/><path class="cls-5" d="M47.73,189.72a17.38,17.38,0,0,0-2,.51c-.31.11-.61.21-.89.34a5.86,5.86,0,0,0-1.34.88c-.14.12-.27.25-.42.37a5.05,5.05,0,0,0-.49.63,8.92,8.92,0,0,0-.54,1c-.07.18-.15.35-.22.53s-.09.23-.13.34a4,4,0,0,1-.24.46l-.48.53-1.15.76a16.83,16.83,0,0,0-1.42,1,8.26,8.26,0,0,0-2.56,2.92.87.87,0,0,0,.35,1.17.88.88,0,0,0,1.18-.35,5.18,5.18,0,0,1,.33-.62c.16-.22.32-.42.49-.63a7.7,7.7,0,0,1,.83-.79,1.24,1.24,0,0,1-.18.14c.48-.38,1-.73,1.48-1.07s.87-.55,1.31-.84c.23-.15.46-.34.71-.5a5.08,5.08,0,0,0,1.14-1.08c.47-.66.84-1.37,1.28-2a9.25,9.25,0,0,1,.9-1,5.22,5.22,0,0,1,.67-.45,18.53,18.53,0,0,1,2-.49.88.88,0,0,0,.56-1.1.93.93,0,0,0-.42-.5.88.88,0,0,0-.38-.09,1.26,1.26,0,0,0-.28,0Zm-2,2.5-.06.06.06-.06Zm-.87.88-.06.1.06-.1Z"/><path class="cls-5" d="M42.23,77.69c-.27,1-.56,2-.88,3a53.35,53.35,0,0,1-6.3,11.06l0,0c-.39.56-.79,1.09-1.19,1.64s-1,1.16-1.45,1.72c-1,1.12-2,2.18-3,3.29a36.4,36.4,0,0,0-2.6,3.26c-.87,1.24-1.67,2.51-2.45,3.8s-1.47,2.53-2.14,3.83c-.31.64-.59,1.29-.86,1.94s-.59,1.49-.84,2.24c-.48,1.44-.93,2.88-1.38,4.31a25,25,0,0,0-1,4.4,1.6,1.6,0,0,0,.19,1.14,1.48,1.48,0,0,0,2.05.45,1.52,1.52,0,0,0,.69-1.32c0-.52,0-1.06,0-1.59a36.38,36.38,0,0,1,.77-4.27,40.54,40.54,0,0,1,1.15-3.9c.39-1,.79-2,1.25-2.93s1-1.91,1.52-2.84,1-1.74,1.49-2.57,1.2-1.88,1.83-2.81l-.06.08.07-.09.07-.1-.07.09c.55-.72,1.1-1.44,1.7-2.12s1.49-1.61,2.25-2.42S34.35,95.43,35,94.7s1.42-1.56,2.14-2.33a36.74,36.74,0,0,0,3.91-4.87,29.56,29.56,0,0,0,1.61-2.7l.41-.79c.24-.47.45-1,.65-1.45a35.09,35.09,0,0,0,1.35-4.22A1.47,1.47,0,0,0,44,76.59a1.22,1.22,0,0,0-.32,0,1.51,1.51,0,0,0-1.43,1.14ZM29.12,101.43h0v0Zm6-9.78,0-.05,0,.05Z"/><path class="cls-5" d="M18.93,130.92a1.56,1.56,0,0,0-1.49,1.63c.09.89.17,1.8.26,2.71a5.41,5.41,0,0,0,.86,2.84,1.41,1.41,0,0,0,1.57.57A1.38,1.38,0,0,0,21,137a2.34,2.34,0,0,1-.09-.24c-.16-1.43-.24-2.87-.36-4.3A1.6,1.6,0,0,0,19,130.92Zm1.93,5.41a2.25,2.25,0,0,0,.06.36,2.25,2.25,0,0,1-.06-.36Z"/></g></g></svg>