<svg xmlns="http://www.w3.org/2000/svg" width="11" height="16" viewBox="0 0 11 16">
    <g fill="none" fill-rule="evenodd">
        <path d="M-3-1h18v18H-3z"/>
        <path fill="#787887" fill-rule="nonzero" d="M5.596.5C2.662.5.295 3.006.295 6.086c0 2.1.94 4.207 2.499 6.233a18.852 18.852 0 0 0 2.25 2.44c.102.092.177.157.22.192.193.16.471.16.664 0a16.37 16.37 0 0 0 .78-.721c.576-.57 1.152-1.21 1.69-1.91 1.558-2.027 2.5-4.135 2.5-6.234C10.897 3.006 8.528.5 5.595.5zm-.381 12.975a17.81 17.81 0 0 1-1.596-1.803C2.191 9.813 1.34 7.909 1.34 6.086c0-2.508 1.91-4.53 4.256-4.53 2.345 0 4.256 2.022 4.256 4.53 0 1.823-.851 3.727-2.28 5.586a17.81 17.81 0 0 1-1.976 2.168c-.12-.11-.247-.232-.381-.365z"/>
        <path fill="#787887" fill-rule="nonzero" d="M5.596 7.258a1.395 1.395 0 0 1-1.39-1.403c0-.775.622-1.403 1.39-1.403.766 0 1.388.628 1.388 1.403s-.622 1.403-1.388 1.403zm0 1.056c1.344 0 2.434-1.101 2.434-2.46 0-1.357-1.09-2.458-2.434-2.458-1.345 0-2.435 1.1-2.435 2.459 0 1.358 1.09 2.459 2.435 2.459z"/>
    </g>
</svg>
