<svg xmlns="http://www.w3.org/2000/svg" viewBox="0 0 368.64 460.64"><defs><style>.cls-1{fill:#78839c;}.cls-2{fill:#93baff;}.cls-3{fill:#405268;}.cls-4{fill:#fcbb38;}.cls-5{fill:#d5b05a;}.cls-6{fill:#d58c2c;}.cls-7{fill:#ccd8df;}.cls-8{fill:#f3ac9d;}.cls-9{fill:#e3f1f8;}</style></defs><title>Asset 6</title><g id="Layer_2" data-name="Layer 2"><g id="Layer_1-2" data-name="Layer 1"><path class="cls-1" d="M170.75,431.57c-1.17.18-2.33.34-3.49.59a17.83,17.83,0,0,0-7.8,4,15.62,15.62,0,0,0-4.69,6.47A9.77,9.77,0,0,0,158,454.4a19.34,19.34,0,0,0,2.24,1.29c.85.45,1.75.79,2.63,1.16,1.75.75,3.49,1.54,5.28,2.18a25.25,25.25,0,0,0,7,1.13c1.84.13,3.68.26,5.53.36a49,49,0,0,0,10.34-.35c1.62-.24,3.23-.62,4.82-1a38,38,0,0,0,4.54-1.32,22.78,22.78,0,0,0,5-2.63,15.83,15.83,0,0,0,2.63-2.29,14.26,14.26,0,0,0,1.89-2.67,11.62,11.62,0,0,0,1.57-4.57,9.5,9.5,0,0,0-.33-3.36,11.58,11.58,0,0,0-1.55-3.34,15.49,15.49,0,0,0-1.92-2.25,14.49,14.49,0,0,0-4.35-3.14,19.21,19.21,0,0,0-3.85-1c-1.35-.29-2.73-.45-4.11-.62s-2.64-.33-4-.41c-.82,0-1.64-.07-2.46-.08A55.16,55.16,0,0,0,183,431c-1,0-2.08,0-3.13,0a60.47,60.47,0,0,0-9.12.58Zm15.6,20.11.19-.07c.56,0,1.12,0,1.67,0-.84.16-1.68.29-2.54.39l-.25,0,.93-.35Z"/><path class="cls-1" d="M259.37,426.67A49.23,49.23,0,0,0,248,428a23.45,23.45,0,0,0-5.64,2.24,13.21,13.21,0,0,0-4.13,3.67,13.14,13.14,0,0,0-1.86.75c-1.73.84-3.67,2.15-4.34,4.35a10.63,10.63,0,0,0,1,7.63,19.82,19.82,0,0,0,3.62,4.7,16,16,0,0,0,7.9,4.68,40.84,40.84,0,0,0,5.59.87c1.69.15,3.39.31,5.08.36a65.56,65.56,0,0,0,10.93-.66,26.5,26.5,0,0,0,9.57-3,12,12,0,0,0,2.14-1.57,9.62,9.62,0,0,0,2.89-6.21,22.87,22.87,0,0,0,.17-2.61c0-.79-.06-1.58-.13-2.36a13,13,0,0,0-.75-2.92c-1.68-5.19-5.87-8-10.18-9.48a30.55,30.55,0,0,0-10-1.71Z"/><path class="cls-2" d="M230.78,42.48c-.75,0-1.5,0-2.24.09a50.35,50.35,0,0,0-5.07.75l-1.15.22c-1.86.33-3.71.72-5.55,1.11l-.6.12a62.07,62.07,0,0,0-12.94,3.89c-.84.38-1.68.78-2.5,1.22a4.62,4.62,0,0,0-.62-2A3.73,3.73,0,0,0,197,46a3,3,0,0,0-2.06.8,86.66,86.66,0,0,0-7.8,7.75c-.78.89-1.55,1.8-2.32,2.71l-.66.78-.83,1c-1.43,1.69-2.9,3.43-4.3,5.22a50.3,50.3,0,0,0-4,6.35l-.09.17a64.5,64.5,0,0,0-3.87,8.47,202.91,202.91,0,0,0-9.63,32.21,44.57,44.57,0,0,0-1,6.57,74.78,74.78,0,0,0,0,8.35,46.4,46.4,0,0,0,1.37,8.15l.06.29a48,48,0,0,0,1.88,5.94c.72,1.92,1.51,3.84,2.28,5.7.68,1.64,1.36,3.27,2,4.93.12.32.25.64.38,1-.48,0-1-.06-1.46-.08l-3.07-.07-4.59-.12c-1.59-.08-3.17-.13-4.75-.13a45.38,45.38,0,0,0-7.15.5c-2.06.32-4.15.75-6.23,1.26a22.77,22.77,0,0,0-6.43,2.4,33.61,33.61,0,0,0-6.08,4.45c-.92.87-1.79,1.81-2.66,2.74-.48.52-1,1-1.46,1.54-1.84,1.92-3.55,4-5,5.78l-1,1.24c-.66.83-1.32,1.65-2,2.44-1.94,2-4,3.83-6,5.64-1.4,1.27-2.79,2.53-4.16,3.83s-3,3-4.4,4.45l-.79.81q-1.6,1.67-3.22,3.31l-2.55,2.61c-2,2.06-4,4.09-5.76,6.26a69.34,69.34,0,0,0-4.93,7c-.83,1.32-1.62,2.71-2.38,4.05-.57,1-1.14,2-1.73,3-.93,1.56-1.92,3.07-2.91,4.58l-1.27,1.95a126.39,126.39,0,0,0-8.44,15.62c-1,2.23-1.9,4.61-2.74,6.9l-.28.77c-.91,2.45-1.89,4.83-3,7.47a161.41,161.41,0,0,0-5.59,16.3,110.18,110.18,0,0,0-4,17.28c-.08.64-.12,1.31-.15,2,0,.92,0,1.8,0,2.76a12.22,12.22,0,0,0,.42,2.39l.11.46a5.55,5.55,0,0,0,.86,1.74,5.39,5.39,0,0,0,1.78,1.71,7.23,7.23,0,0,0,1.8.62,4.72,4.72,0,0,0,.85.07,6.55,6.55,0,0,0,2.38-.47,19.93,19.93,0,0,0,4.27-2.66c1.11-.83,2.2-1.68,3.29-2.54a128.48,128.48,0,0,0,11.3-10.4l2-2c1-1,2-2.08,3.08-3.09,1.68-1.63,3.52-3.29,5.81-5.22a77.92,77.92,0,0,1,6.73-4.95c1.7-1.17,3.46-2.37,5.12-3.66a86.65,86.65,0,0,0,8.11-7.22l.38-.4.19-.19-.37,1.11c-.28.9-.56,1.8-.82,2.71-1,3.4-1.71,6.24-2.28,9a52.19,52.19,0,0,0-1.07,7.55c-.15,2.92-.24,5.86-.33,8.78a36,36,0,0,1-.72,6c-.67,2-1.48,4-2.26,5.91-.29.74-.59,1.47-.88,2.21-1,2.43-1.84,5-2.68,7.41a95.1,95.1,0,0,0-4.58,16.48,111.39,111.39,0,0,0-1.21,17.55c0,3,.18,5.8.46,8.61.27,2.65.67,5.25,1.12,8.12,1.25,7.79,2.7,16.05,5.53,23.81a83.86,83.86,0,0,0,3.61,8.13c.44.9.87,1.79,1.3,2.69.53,1.13,1.07,2.25,1.6,3.38.94,2,1.88,3.93,2.78,5.92l1.08,2.5A112.58,112.58,0,0,0,116.76,415c.84,1.44,1.77,2.83,2.67,4.18.46.68.92,1.37,1.37,2.06,1.33,2.07,2.58,4.17,4,6.5,2.27,3.85,4.88,7.81,8.21,12.45.9,1.26,1.89,2.44,2.84,3.54a17.06,17.06,0,0,0,3.5,2.88,14.18,14.18,0,0,0,4.81,1.76l.87.2a20,20,0,0,0,2.47.5,18.92,18.92,0,0,0,2.11.12,16.16,16.16,0,0,0,5.75-1,64.71,64.71,0,0,0,6.54-3,100.23,100.23,0,0,1,13.9-6.19,104.56,104.56,0,0,1,16-2.63c3-.26,6-.52,9.05-.74,1.3-.09,2.67-.14,4.19-.14,1.3,0,2.6,0,3.9.08a71.55,71.55,0,0,1,13.68,2l1.41.38c2,.54,4,1.07,6,1.55,1.26.3,2.52.6,3.79.87a46.23,46.23,0,0,0,9.14.88h.88c1.83,0,3.67-.08,5.51-.16l.84,0,1.38-.05c1.91-.07,3.89-.14,5.82-.37a58.34,58.34,0,0,0,8.77-1.82c1.87-.52,3.74-1.16,5.56-1.78l1.13-.38a100.69,100.69,0,0,0,9.8-3.78,57.34,57.34,0,0,0,10.28-6.05,33,33,0,0,0,4.6-4.52c1.2-1.35,2.45-2.85,3.83-4.57.63-.79,1.25-1.61,1.86-2.43s1.14-1.52,1.73-2.26c1.2-1.52,2.45-3,3.73-4.46.83-.87,1.69-1.72,2.54-2.57s1.53-1.53,2.29-2.3A57.79,57.79,0,0,0,318.8,397,130.13,130.13,0,0,0,327,383.41l.42-.76a115.69,115.69,0,0,0,7.19-15,69.91,69.91,0,0,0,2.62-9c.72-3.19,1.22-5.8,1.59-8.21a125,125,0,0,0,1-18.3c0-5.67-.19-11.7-1.82-17.34-.45-1.57-1-3.13-1.48-4.64-.35-1-.7-2.07-1-3.12-.52-1.66-1-3.34-1.44-5-.23-.86-.46-1.71-.7-2.56-.75-2.67-1.51-5.34-2.3-8-.56-1.89-1.2-3.79-1.82-5.62l-.75-2.23c-1.49-4.48-2.56-8.21-3.36-11.75-.86-4.72-1.51-9.54-1.93-14.33a4.28,4.28,0,0,0,.61.4,13.17,13.17,0,0,0,5.12,1.8c.83.07,1.67.1,2.5.12h0a11.84,11.84,0,0,0,3.83-.8,8.36,8.36,0,0,0,1.7-.84,12.77,12.77,0,0,0,3.41-2.78A19.7,19.7,0,0,0,343,251a20.7,20.7,0,0,0,1.29-3.36l.21-.73a31.14,31.14,0,0,0,1-4.39c.23-1.83.38-3.78.45-6a32.63,32.63,0,0,0-.32-5.39,58.82,58.82,0,0,0-2.61-11.07,69.26,69.26,0,0,0-4.44-10c-1.15-2.19-2.18-4.5-3.18-6.73l-.24-.54,0-.09,0,.07h0l-.12-.23h0l-.44-1c-1-2.35-2.1-4.79-3.34-7.05a58.77,58.77,0,0,0-3.91-6.09c-.34-.47-.65-1-1-1.45s-.46-.71-.7-1.06A39.67,39.67,0,0,0,323,182.3c-.69-.81-1.42-1.56-2.16-2.31s-1.52-1.56-2.23-2.4l-.54-.74c-.71-.95-1.42-1.92-2.16-2.83a16.76,16.76,0,0,0-3.79-3.43,14.43,14.43,0,0,0-8.29-2.21c-.65,0-1.29,0-1.94.07a24.57,24.57,0,0,0-3,.51l-1,.22c-1.23.25-2.48.48-3.71.69a44.28,44.28,0,0,1-7.07.71,16.47,16.47,0,0,1-2.41-.45l-.24-.11v0c-.25-.22-.49-.46-.73-.71-.09-.14-.17-.29-.25-.43l-.08-.24-.08-.23a14.37,14.37,0,0,1,.28-1.72c.3-.95.62-1.83,1-2.68.21-.51.45-1,.68-1.51s.51-1.1.74-1.66c.8-1.92,1.53-4,2.25-6.3a113.4,113.4,0,0,0,3.33-15.41l.57-3.64c.22-1.44.45-2.89.68-4.34.14-.84.28-1.69.43-2.54.32-1.88.66-3.83.89-5.76.38-3.21.62-6.4.78-8.83.18-2.67.36-5.84.33-9,0-5.22-.44-10.38-1-16.54a61.58,61.58,0,0,0-1.68-9.5,35.81,35.81,0,0,0-5.36-12.09A33.12,33.12,0,0,0,276.62,58c-1-.56-2-1.1-3-1.63s-2.28-1.22-3.4-1.88c-2.16-1.27-4.27-2.6-6.27-3.94l-.46-.31a33.33,33.33,0,0,0-5.66-3.28,43.4,43.4,0,0,0-7.79-2.46,66.63,66.63,0,0,0-6.68-1l-1-.1c-2-.22-4-.43-6.08-.61-1.77-.16-3.66-.31-5.52-.31Z"/><path class="cls-3" d="M187.05,2.2a11.19,11.19,0,0,0-.65,3l-.08.61c-.13,1-.3,2-.48,2.93-.33,1.77-.79,3.52-1.24,5.23l-.32,1.21c-1.12,4.27-2.18,8-3.25,11.51l-.64,1.93-.09.27-.14.41-.14.42c-.43,1.31-.87,2.63-1.26,4-.65,2.19-1.27,4.46-1.89,6.9-.78,3.07-1.45,6.27-2.14,9.55l-.06.29-.08.36-.64,3c-1.85,8.63-3.58,17.53-5.09,25.39l-.09.46-.38,2-.54,2.83-.55,2.83a5,5,0,0,0,.37,3l-.42,1.33-.14.5a4.53,4.53,0,0,0-1.81,2.85c-1,5-1.8,9.27-2.44,13.29-.35,2.26-.71,4.69-.9,7.08-.17,2.13-.27,4.26-.3,6.51a77.32,77.32,0,0,0,.87,13.21,29.18,29.18,0,0,0,2,6.64,40.06,40.06,0,0,0,2.67,5.15c.43.72.89,1.44,1.35,2.15l-1.25-.47c-2.91-.92-5.81-1.84-8.69-2.55a44.13,44.13,0,0,0-10.16-1.55c-.64,0-1.28,0-1.92.08a22.4,22.4,0,0,0-8,2.22c-1.08.53-2.05,1.05-2.91,1.55-.55.33-1.08.71-1.62,1.1l-.46.32a41.14,41.14,0,0,0-4.25,3.66c-1,.93-2.51,2.36-4,3.93a70,70,0,0,0-6.44,8c-1.09,1.53-2.34,3.32-3.42,5.17a19.27,19.27,0,0,0-2,5.1,3.92,3.92,0,0,0,.1,2.17,4.16,4.16,0,0,0,.31,2.82,3.38,3.38,0,0,0,2.9,1.9,2.43,2.43,0,0,0,1.55-.55l.59-.47.14-.12c.59-.47,1.17-.94,1.78-1.38a19.28,19.28,0,0,1,2.12-1.28,25.58,25.58,0,0,1,6-1.91,35.91,35.91,0,0,1,4.6-.31,31.37,31.37,0,0,1,4.13.27,71.82,71.82,0,0,1,18,6l.93.47a69.18,69.18,0,0,0,8.79,4c2.16.76,4.43,1.33,6.43,1.83,1,.23,1.92.47,2.88.73,1.48.4,3,.85,4.44,1.3l.54.17c1.56.47,3.1.93,4.67,1.34l2.1.56.19.05a70.53,70.53,0,0,0,8.64,1.94,19.5,19.5,0,0,0,2.42.14q.81,0,1.62,0l.4,0h.4l3.93-.18,1.26-.07c1.73-.07,3.45-.15,5.17-.31a48.4,48.4,0,0,0,5.93-.91c1.52-.31,3.21-.7,5.18-1.22a25.43,25.43,0,0,0,5.67-2.23,19.48,19.48,0,0,0,4.82-3.94,21.55,21.55,0,0,0,3.63,5.66,24.36,24.36,0,0,0,2.39,2.25l.13.11a20.4,20.4,0,0,0,2.8,2c3.36,2,7.22,2.85,12.51,2.85,1,0,1.93,0,2.89-.07A87,87,0,0,0,274.89,196c2.18-.59,4.36-1.36,6.47-2.11l.29-.1,1.37-.49q4-1.4,7.91-2.83l2.33-.87c1.9-.71,3.79-1.41,5.7-2.07a59.28,59.28,0,0,1,8.21-2.38,20.89,20.89,0,0,1,3.11-.29,26.63,26.63,0,0,1,3.5.27,26.92,26.92,0,0,1,4,1.1c1.06.38,2.18.86,3.64,1.55l.42.21a3.74,3.74,0,0,0,.84.79,3.3,3.3,0,0,0,1.91.6h.15a1.62,1.62,0,0,0,.64.15,2.21,2.21,0,0,0,1.88-1.44,4.52,4.52,0,0,0,.59-.9l.38-1a5.42,5.42,0,0,0,0-2.37,22.64,22.64,0,0,0-1.79-5.91,30.86,30.86,0,0,0-2.9-5.14l-.22-.33a16,16,0,0,0-1.08-1.48,21,21,0,0,0-2.36-2.45,20.64,20.64,0,0,0-3.78-2.69,70,70,0,0,0-9.45-4.41,14.32,14.32,0,0,0-1.73-.5l-.18,0-.2-.05-.36-.09c-.62-.15-1.24-.31-1.86-.43a35.3,35.3,0,0,0-5.22-.64c-.79,0-1.59,0-2.38,0a22.09,22.09,0,0,0-4.81.43c-.57.12-1.13.26-1.7.41a9.19,9.19,0,0,0,1.42-1.75,35,35,0,0,0,2.37-4.48,49.91,49.91,0,0,0,2.55-7.54,63,63,0,0,0,1.46-7.31l.09-.55,0-.33a3.72,3.72,0,0,0,.84-2c.25-2.91.72-5.83,1.16-8.66l.1-.56c.24-1.48.48-3,.69-4.46.42-2.93.78-5.26,1.15-7.32l.28-1.56.07-.41c.26-1.41.51-2.83.73-4.26.78-5,1.42-9.62,2-14.11.62-4.85.93-9.69,1.26-15.06.27-4.59.47-9.16.57-13.59l.06-2.35c.09-3.55.19-7.56.14-11.49-.05-5.29-.21-9.64-.5-13.7-.33-4.67-.87-9.33-1.35-13.33l0-.26c-.07-.66-.14-1.26-.18-1.85,0-.38,0-.75,0-1.12v-.44c0-.36,0-.72,0-1.07a3.82,3.82,0,0,0-3.47-3.79,2.83,2.83,0,0,0-1.29.32,7.43,7.43,0,0,0-2.85,3.14c-1.19,1.92-2.28,3.84-3.39,5.8l-.26.47c-.53.93-1.05,1.86-1.59,2.79a58.53,58.53,0,0,1-4.34,6c-1.69,2-3.34,4-4.86,6.19s-3,4.32-4.28,6.36l-.62,1-.18.29c-.44.68-.88,1.36-1.33,2l-.66,1-.7,1c-1.33-1.48-2.81-2.95-4.5-4.5a26.67,26.67,0,0,0-5.86-4.11,64.1,64.1,0,0,0-6.67-3,53.37,53.37,0,0,0-6-1.93L244,38.47l-.19,0c-1-.22-2-.45-2.94-.59-1.32-.18-2.61-.3-3.84-.35l-1.23,0c-1.52,0-3,.1-5,.27a52.67,52.67,0,0,0-6.57,1.14c-1.88.43-3.86,1-6,1.7-2.72.88-5.27,1.71-7.75,2.59-.4-.73-.89-1.45-1.39-2.18l-.23-.35c-.3-.44-.6-.89-.89-1.34-1-1.5-1.84-3.1-2.64-4.6l-1-2c-1.55-2.9-2.83-5.32-4-7.88a113.37,113.37,0,0,1-3.53-12.11l-.15-.64c-.42-1.75-.84-3.48-1.32-5.21a29.08,29.08,0,0,0-1.08-3.14C193.57,2.19,192.69.53,191,.11a2.67,2.67,0,0,0-.75-.11,3.56,3.56,0,0,0-3.21,2.2Zm39,167.88-2.48-.05-.81,0h-.33a86.52,86.52,0,0,1-9.21-.49,52.72,52.72,0,0,1-7.52-2,64.1,64.1,0,0,1-7.29-3.13l-.27-.14a55.64,55.64,0,0,1-5.68-3.21,53.06,53.06,0,0,1-5.59-4.51c-1.88-1.88-3.53-3.65-5.08-5.45-1.35-1.63-2.71-3.45-4.15-5.56a66.82,66.82,0,0,1-5.11-9.67c-.41-1.19-.76-2.4-1.1-3.68a31.77,31.77,0,0,1-.68-3.93c-.23-2.36-.45-4.88-.52-7.41.26-2,.56-3.92.85-5.77l.07-.47.08-.53.11-.68.35-2.22c.31-2,.68-4,1.26-6.9S174,99,174.58,96.9c.4-1.46.84-2.92,1.28-4.37l.43-1.25.33-.94c.18-.5.38-1,.58-1.48l.32-.73c.36-.91.77-1.79,1.23-2.75l.63-1.31c.46-1,.93-1.91,1.41-2.86l.6-1.21c.57-1.14,1.18-2.25,1.81-3.37l.75-1.11.42-.64c.23-.34.48-.67.74-1l.1-.15.39-.48a26.69,26.69,0,0,1,2.14-2.37c1.86-1.77,3.58-3.27,5.27-4.59a47.7,47.7,0,0,1,5.15-3.44c1.54-.83,3-1.53,4.4-2.15a25.52,25.52,0,0,1,4.08-1.23l.57-.13a20.29,20.29,0,0,1,4.1-.58h.39a12.36,12.36,0,0,1,2.55.7,10.77,10.77,0,0,1,1.05.66,17.54,17.54,0,0,1,2.25,2.49,30.14,30.14,0,0,1,2.66,4.92,33.24,33.24,0,0,1,1.38,4.23c.42,1.64.74,3.1,1,4.46a35.78,35.78,0,0,1,.34,4.28c0,1.56,0,3.11-.1,4.29-.22,2.34-.51,4.55-.91,6.76l0,.26-.22,1.2-.14.78-.18,1a18,18,0,0,0-.35,3.46v.32l.05.75,0,.34a2.18,2.18,0,0,0,.27,1.19,3.37,3.37,0,0,0,.34.43h0l0,0-.58.65-.31.39c-.31.4-.63.79-1,1.16l-.3.34a8.86,8.86,0,0,0-.7.84,4.38,4.38,0,0,0-.44,4c.06.17.14.35.22.54a5,5,0,0,0-.89,2.14,11.29,11.29,0,0,0-.18,1.76l0,.64a12.81,12.81,0,0,0,0,2.09,50.49,50.49,0,0,0,1.49,9c.44,1.66.84,3,1.25,4.09.48,1.34,1.08,2.7,1.55,3.8l.29.66.51,1.19a52.21,52.21,0,0,0,2.94,6.11,11.63,11.63,0,0,0,5.17,4.78,13.19,13.19,0,0,0,4,1.24,18.21,18.21,0,0,0,1.95.11,9.85,9.85,0,0,0,2.16-.31,13.58,13.58,0,0,0,3.51-1.36,25.31,25.31,0,0,0,3.33-2.18,39.09,39.09,0,0,0,3.11-2.58,72.39,72.39,0,0,0,5-5.47l.18-.2.17-.21a50.8,50.8,0,0,0,4.29-5.81c.61-1,1.17-2,1.72-3l.15-.27c.4-.75.74-1.37,1.08-2l.83-1.52c.39-.72.75-1.46,1.1-2.22l.15-.31.3-.66.09-.17.07-.18a27.92,27.92,0,0,0,1.21-2.87,13.29,13.29,0,0,0,.77-4.79,13.84,13.84,0,0,0-.42-2.76,6,6,0,0,0-2.55-3.63,3.93,3.93,0,0,0-1-.4l-.13-.95-.07-.42-.06-.32-.07-.46c-.54-3.85-1-7.28-1.26-10.49l-.07-.71,0-.28a84,84,0,0,1-.52-10.12,19.22,19.22,0,0,1,.67-3.55A15.84,15.84,0,0,1,261.61,74a11.49,11.49,0,0,1,1.06-1.41,6.94,6.94,0,0,1,.76-.58,4.44,4.44,0,0,1,.67-.26l.52,0a10,10,0,0,1,1.62.42,20.8,20.8,0,0,1,3.39,2.26c1,.81,1.72,1.48,2.42,2.15a33.12,33.12,0,0,1,2.44,2.76A71.22,71.22,0,0,1,278.84,87c1.34,2.61,2.56,5.2,3.71,7.92a49.68,49.68,0,0,1,1.61,4.81c.45,1.66.85,3.43,1.26,5.57.63,4.26.94,8.71,1.22,12.62v.19l.08,1,.27,3.67.1,1.22,0,.33.15,2.12a61.4,61.4,0,0,1,0,7.09c0,.93-.08,1.85-.13,2.79-.1,1.29-.2,2.56-.39,3.82-.26,1.68-.57,3.34-.85,4.74-.35,1.84-.83,3.88-1.4,6.05-.73,1.36-1.55,2.65-2.19,3.63a46.36,46.36,0,0,1-5.51,6.31,27.5,27.5,0,0,1-4.87,3.49,53.94,53.94,0,0,1-8.68,3.23c-3.26.91-6.61,1.54-9.46,2a76,76,0,0,1-11.23,1,44.6,44.6,0,0,1-6.25-.42l-.29,0-.31-.05a3.36,3.36,0,0,0-1.14-.65,3.12,3.12,0,0,0-.88-.13,3.59,3.59,0,0,0-2.54,1.13c-1.93-.16-3.67-.26-5.17-.3Zm-1.66-63a10,10,0,0,1-2.17-.54,2.26,2.26,0,0,1-.46-.34,0,0,0,0,1,0,0l0,0a2.33,2.33,0,0,0,.25-.43c.77-1.21,1.59-2.33,2.67-3.77l.19-.26a2,2,0,0,0,.34-1l5.17-2,.42-.16a74.59,74.59,0,0,0,10.71-5.18,19.9,19.9,0,0,1,4.29-1.91h.36l.15.13,1,.78a41.28,41.28,0,0,1,3.17,3l.32.33.38.38a49.85,49.85,0,0,1,3.63,4.43l.47.63.27.34c.94,1.25,1.8,2.4,2.7,3.48l.64.8a4.19,4.19,0,0,0-.32,3l.07.28a13.52,13.52,0,0,0,.44,1.57l.16.44c.13.34.26.68.38,1a5.49,5.49,0,0,1,.18.75c0,.06,0,.13,0,.2l0,0s0,0,0,.06l-.19-.18a16.15,16.15,0,0,1-2.51-1.6c-1.18-1-2.32-2.13-3.77-3.56l-.22-.21-.19-.18c-1.28-1.25-2.77-2.69-4.3-4a18.47,18.47,0,0,0-2.8-2.09,8.49,8.49,0,0,0-4.3-1.33,5.41,5.41,0,0,0-2.76.74,12.81,12.81,0,0,0-2,1.67l-.66.6a17.76,17.76,0,0,1-2,1.46,26,26,0,0,1-6.21,2.28,16.19,16.19,0,0,1-3,.35Zm3.39,4.56a30.69,30.69,0,0,0,6-2.78c.81-.47,1.59-1,2.37-1.52l.27-.19.26-.17c.57-.38,1.13-.75,1.7-1.1a12.84,12.84,0,0,1,1.48-.62l.6,0a6,6,0,0,1,.83.24,11.17,11.17,0,0,1,1.68,1c.91.79,1.78,1.62,2.65,2.47l.94.9c1.25,1.19,2.59,2.46,4,3.65.88.76,1.78,1.49,2.69,2.22a22.35,22.35,0,0,0,2,1.47c.66.4,1.24.71,1.82,1l.22.09h0l0,0a24.71,24.71,0,0,0-2.15,3.1,31.49,31.49,0,0,1-4,5.43,40.24,40.24,0,0,1-3.41,2.82,40.09,40.09,0,0,1-3.8,2.73,8.77,8.77,0,0,1-1.78.75q-.3,0-.63,0h-.18a8.56,8.56,0,0,1-1.13-.31,25.5,25.5,0,0,1-3.09-2.06l-.35-.25c-.37-.27-.74-.52-1.12-.77l-.16-.12c-.47-.3-.91-.61-1.37-.92a16.2,16.2,0,0,1-1.68-1.83,27.8,27.8,0,0,1-2.36-4.41l-.53-1.38a40.15,40.15,0,0,0-2.47-5.51,28.07,28.07,0,0,0-2.09-3l-.31-.41,0-.11-.05,0h0l0,0,.16,0a9.67,9.67,0,0,0,3-.51ZM237,141.6c-.58-.08-1.17-.17-1.77-.31a18.91,18.91,0,0,1-2.32-.76,11,11,0,0,1-1.86-1,10.23,10.23,0,0,1-1.1-1.16,24.82,24.82,0,0,1-1.81-3.48c-.59-1.48-1.16-3-1.72-4.49a41.06,41.06,0,0,1-1.63-5l0,0,0,0a16.29,16.29,0,0,0,2.2,4.68,15.41,15.41,0,0,0,3.39,3.67,14.1,14.1,0,0,0,2.66,1.55l1.3.64c1.86.9,3.78,1.85,5.79,1.85.23,0,.46,0,.7,0a13.75,13.75,0,0,0,5.58-2.11,52.31,52.31,0,0,0,4.43-3,23.3,23.3,0,0,0,2.81-2.5c.24-.26.47-.53.69-.79l-.28.36.3-.34a72.35,72.35,0,0,1-5,5.87,29.81,29.81,0,0,1-3.35,2.73c-1.32.93-2.64,1.71-3.75,2.36a15.39,15.39,0,0,1-2.86,1.15,14.59,14.59,0,0,1-2,.15Z"/><path class="cls-3" d="M110.24,245.21a4,4,0,0,0-1.11,1.56,50.2,50.2,0,0,1-6.7,8.86,49.21,49.21,0,0,1-5.84,4.91c-1.53,1.15-3.08,2.28-4.61,3.41l-.68.5a.6.6,0,0,0-.19-.06,2.12,2.12,0,0,0-.5-.05,3.14,3.14,0,0,0-2.85,2.8c-.59,3-1.15,6.1-1.71,9.14-.76,4.1-1.54,8.33-2.38,12.48-1.29,6.35-2.83,13.74-4.65,21-1.61,5.63-3.5,11.38-5.62,17.08l-.25.68c-1,2.66-2,5.42-3.15,8-1.41,3.24-2.75,6-4.08,8.54a141.58,141.58,0,0,1-8.74,12.75c-1.5,2-3,4-4.55,6-1.26,1.64-2.76,3.56-4.41,5.41-1.53,1.59-3.15,3.11-4.73,4.58-.78.73-1.56,1.46-2.33,2.2-2.23,2.16-4.88,4.67-7.62,7.06a78.88,78.88,0,0,1-8.16,6.09c-1.34.9-2.7,1.75-4.05,2.61-1.56,1-3.13,2-4.66,3A40,40,0,0,0,12.55,397l-.18.16c-1.26,1.09-2.55,2.23-3.74,3.45a35.36,35.36,0,0,0-3.84,4.44,42.14,42.14,0,0,0-3.21,5.38,24.24,24.24,0,0,0-1,2.36,6,6,0,0,0-.35,4,3.78,3.78,0,0,0,2.87,2.76,2.91,2.91,0,0,0,.57.06,6.21,6.21,0,0,0,3-1.14l.42-.25c.46-.27.93-.51,1.39-.77l.72-.38.27-.16a51.48,51.48,0,0,1,8.52-4c.66-.22,1.33-.43,2-.63a23.24,23.24,0,0,1,3.6-.49c.45,0,.9,0,1.35,0,.61,0,1.22,0,1.84.05a26.86,26.86,0,0,1,5.84,1.36q1.95.63,3.87,1.35a123.12,123.12,0,0,0,19.32,5.76c3.48.7,6.92,1.4,10.34,1.85a104.77,104.77,0,0,0,10.85.8l1.23,0a51.83,51.83,0,0,0,7-.5,32.44,32.44,0,0,0,4.12-.85c1.77-.44,3.54-.88,5.24-1.45a53.86,53.86,0,0,0,8-3.4c1.36-.69,2.72-1.54,4-2.36l.27-.17c.73-.46,1.43-1,2.13-1.47.51-.36,1-.72,1.53-1.07a4.47,4.47,0,0,0,1.59-2.93,5.29,5.29,0,0,0-.17-2.34,6.15,6.15,0,0,0-.86-4l-.25-.44c-.22-.38-.43-.76-.64-1.14-.54-1-1-2-1.53-3-.93-1.92-1.86-3.86-2.75-5.81l-1.38-3.16c-.77-1.77-1.54-3.54-2.33-5.3-.79-1.95-1.57-4-2.37-6.37a53.78,53.78,0,0,1-1.7-6.81c-1-5.46-1.77-11.17-2.45-17.45l-.06-.55c-.3-2.79-.61-5.68-.68-8.55,0-1.71,0-3.41,0-5,0-.19-.05-.38-.08-.57-.06-.47-.13-.94-.19-1.41a34.41,34.41,0,0,1-.2-4.77c.08-3.22.46-6.45.84-9.57l.23-2a2.59,2.59,0,0,1,1.57-2.12c.27-1.23.57-2.49.91-3.79a65.28,65.28,0,0,1,5-13.07,27.79,27.79,0,0,1,1.61-2.4c.32-.45.66-.86,1-1.27s.49-.58.72-.88a7.85,7.85,0,0,0,1.76-3.65,5.35,5.35,0,0,0-.33-2.56,11.93,11.93,0,0,1-.47-1.28,61.47,61.47,0,0,1-.62-11.81,54.14,54.14,0,0,1,.81-7.43c.52-2.63,1.1-5.25,1.75-7.79l0-.2h0c.29-.94.55-1.87.81-2.79.4-1.4.8-2.81,1.17-4.22.27-1,.52-2,.78-3l.25-1q.21-.84.42-1.65l.15-.5a4.08,4.08,0,0,0,.19-2.7,2.34,2.34,0,0,0-.94-1.21,1.66,1.66,0,0,0-.76-.2,1.89,1.89,0,0,0-1.1.39Z"/><path class="cls-3" d="M220.13,203a2,2,0,0,0-1.89,1.38,36.89,36.89,0,0,1-1.78,4.34c-.26.52-.53,1-.8,1.53a15.28,15.28,0,0,1-1.37,2.09,8.37,8.37,0,0,1-.89.68,17.06,17.06,0,0,1-3.17,1.27c-.85.21-1.66.37-2.49.49a16,16,0,0,1-2.23.13H205a32.68,32.68,0,0,1-5.21-.71,52.63,52.63,0,0,1-5.5-1.56c-1.26-.54-2.5-1.18-3.69-1.8l-1.78-.91c-2-1-4-1.87-5.94-2.64a24.42,24.42,0,0,0-6.54-1.71,18,18,0,0,0-1.93-.1c-.57,0-1.15,0-1.74.07a16.42,16.42,0,0,0-11,5.79,17.35,17.35,0,0,0-1.33,1.63,19.12,19.12,0,0,0-1.28,2.12,3.91,3.91,0,0,0-.42,1.22,4.46,4.46,0,0,0-.05.82l.07.37.07.36a2.82,2.82,0,0,0,.76,1.19,2.91,2.91,0,0,0,.9.58,9.2,9.2,0,0,0,1.42.42l.64.16a6.7,6.7,0,0,1,1.17.66,8.7,8.7,0,0,1,1,1,15.49,15.49,0,0,1,1.13,1.91,24.64,24.64,0,0,1,1.21,4.18c.14,1,.25,1.94.32,2.92s.06,1.7,0,2.57c0,.42,0,.86-.07,1.29s-.05.59-.09.87a3,3,0,0,0,.18,1.85,1.65,1.65,0,0,0,.64.69,1.73,1.73,0,0,0,.82.17h.18a2.25,2.25,0,0,0,1.15-.56l.13-.1.51-.37c.41-.3.82-.6,1.24-.87a21.19,21.19,0,0,1,2.48-1.24,18.09,18.09,0,0,1,2.22-.77A12.72,12.72,0,0,1,179,234a8.86,8.86,0,0,1,1.46.31,10.82,10.82,0,0,1,1.7,1,16.46,16.46,0,0,1,2,2.06,19.84,19.84,0,0,1,1.81,3.11c.64,1.55,1.18,3.18,1.7,4.76l.21.65c.47,1.42,1.12,2.2,2,2.38a2.46,2.46,0,0,0,.37,0c.93,0,1.75-.75,2.51-2.29l.58-1.2.66-1.34a24.87,24.87,0,0,1,3-4.34,11.28,11.28,0,0,1,1.78-1.45,13,13,0,0,1,2.47-1.14,23.34,23.34,0,0,1,4.67-.5c.53,0,1.07.1,1.61.19a12.19,12.19,0,0,1,1.71.47c.48.21.95.43,1.43.66a8.62,8.62,0,0,1,1.25.81,21.32,21.32,0,0,1,2.43,2.33c.46.62.9,1.26,1.31,1.94a19.88,19.88,0,0,1,1,2,61.92,61.92,0,0,1,3.19,10.63,69.92,69.92,0,0,1,.88,8.8,2.9,2.9,0,0,0,2.13,2.7,2.3,2.3,0,0,0,.45.05,2.41,2.41,0,0,0,1.49-.55,3,3,0,0,0,1.06-2c0-.82.07-1.63,0-2.45,0-.44-.05-.87-.08-1.3l0-.43c.22-1,.4-1.92.58-2.8s.38-1.82.59-2.72c.38-1.7.82-3.47,1.33-5.41.33-1.13.65-2.25,1-3.36a19.69,19.69,0,0,1,1.24-3,12.36,12.36,0,0,1,1.32-1.85,12.92,12.92,0,0,1,1.36-1.09,14,14,0,0,1,3-1.28,16.69,16.69,0,0,1,3.82-.47,31.49,31.49,0,0,1,4.85.89l.76.18a56.28,56.28,0,0,1,5.93,1.69,20.34,20.34,0,0,1,4.07,2.07,14.46,14.46,0,0,1,1.32,1.2l.51.57a4.7,4.7,0,0,0,2.67,1.9l.34,0a3,3,0,0,0,2.52-1.61,14,14,0,0,0,.77-1.55l.39-.86q.31-.75.66-1.47a8.92,8.92,0,0,1,.75-1.07c.27-.24.55-.47.83-.69a8.07,8.07,0,0,1,1.24-.55,7.66,7.66,0,0,1,1.41-.14,5.79,5.79,0,0,1,1.1.22,14.48,14.48,0,0,1,2.68,1.58,22.68,22.68,0,0,1,3.08,2.9l.72,1,.38.51.19.24a2.74,2.74,0,0,0,.76.63,1.61,1.61,0,0,0,.88.24,1.73,1.73,0,0,0,1.17-.42,6.13,6.13,0,0,0,1.52-3c.08-.27.16-.54.25-.8a38.51,38.51,0,0,1,2.36-5.77c.44-.75.87-1.42,1.3-2s1-1.24,1.49-1.83a18.13,18.13,0,0,1,2.5-2.23,8.68,8.68,0,0,1,1.37-.58A6.15,6.15,0,0,1,292,229a8.08,8.08,0,0,1,1.69.45,12.48,12.48,0,0,1,2.3,1.25,16.14,16.14,0,0,1,1.61,1.5c.33.36.66.73,1,1.11l.19.23.28.33a2,2,0,0,0,1.52.87h.16a1.72,1.72,0,0,0,1.42-1.54,5.1,5.1,0,0,0-.24-2.41l-.06-.21c-.13-.53-.29-1.07-.45-1.6a32.18,32.18,0,0,0-1.23-3.3,31.37,31.37,0,0,0-3.1-5.67,23.9,23.9,0,0,0-4.23-4.64,31.54,31.54,0,0,0-5.26-3.46,25.6,25.6,0,0,0-5.68-2.27,44.58,44.58,0,0,0-5.88-1.09,41.49,41.49,0,0,0-4.83-.27,65.13,65.13,0,0,0-7.33.47c-1.52.18-3.17.45-5.21.88a45.72,45.72,0,0,0-5.32,1.45,33.84,33.84,0,0,0-4.93,2.22l-1.13.62a23.68,23.68,0,0,1-4.58,2.11,8.4,8.4,0,0,1-1.88.25,3.79,3.79,0,0,1-.81-.18,7.63,7.63,0,0,1-1.15-.66,7.79,7.79,0,0,1-1-1A9.79,9.79,0,0,1,237,213a19.78,19.78,0,0,1-1-3.29c-.1-.59-.18-1.18-.23-1.78,0-.23,0-.46,0-.7a5,5,0,0,0-.14-1.44c-.16-.5-.61-1-1.1-1.07h-.2a1.37,1.37,0,0,0-.54.1c-.74.21-1,1.2-1.13,1.92a6.22,6.22,0,0,0-.14,1.43,13.18,13.18,0,0,1-.85,1.91,13.86,13.86,0,0,1-1,1.45,8.11,8.11,0,0,1-1,.84,4.94,4.94,0,0,1-1,.43,4,4,0,0,1-.78.08,4.69,4.69,0,0,1-.65-.14,5.52,5.52,0,0,1-.92-.51,6.15,6.15,0,0,1-.67-.68,8.21,8.21,0,0,1-.69-1.19,10.19,10.19,0,0,1-.39-1.22,24.49,24.49,0,0,1-.13-3.08v-.58a2.51,2.51,0,0,0-.73-1.65,1.91,1.91,0,0,0-1.35-.58l-.19,0a1.74,1.74,0,0,0-.73.23,1.5,1.5,0,0,0-.34-.25,1.79,1.79,0,0,0-.89-.23Z"/><path class="cls-4" d="M99,318.06a2.25,2.25,0,0,0-.68.11,2,2,0,0,0-.47-.07,2.49,2.49,0,0,0-2.33,2.27l-.23,2c-.38,3.13-.76,6.36-.84,9.58a34.34,34.34,0,0,0,.2,4.77c.06.47.13.94.19,1.41a23.79,23.79,0,0,1,.32,3.18,7.63,7.63,0,0,0,.24,2.89,5,5,0,0,0,3,3,30.8,30.8,0,0,0,5.07,1.56c3.33.8,6.68,1.52,10,2.24,2.46.53,4.94,1.18,7.34,1.82l2.4.64,10.67,2.74c3.47.88,7,1.67,10,2.33l.75.16c2.84.63,5.77,1.28,8.68,1.67,1.68.23,3.37.44,5.05.65,1.86.23,3.71.46,5.55.72l1.42.2c1.17.17,2.34.35,3.51.44,1.77.14,3.54.26,5.3.37,3.71.22,7.3.6,10.32,1,2.51.29,5.09.38,7.58.46l2.93.11c2.95.13,5.94.2,8.89.2h1.61c1.61,0,3.22-.05,4.83-.09,1.81,0,3.62-.08,5.43-.09h5.49c1.47,0,2.95,0,4.42,0q5.63-.09,11.25-.26c7-.19,13.46-.43,19.8-.74l2.22-.1c2.7-.12,5.49-.24,8.21-.52,3.27-.35,6.8-.88,10.79-1.63l3.11-.57c2.2-.39,4.48-.8,6.7-1.3a83.38,83.38,0,0,0,19.82-7c2.85-1.41,5.83-2.75,9.11-4.11s6.12-2.55,9-3.95a41.4,41.4,0,0,0,4.94-2.82,21.32,21.32,0,0,0,3.55-2.79,9.32,9.32,0,0,0,1.32-1.56,16.86,16.86,0,0,0,1.2-2.37c.39-.91.76-1.93,1.18-3.2s.72-2.36,1.1-4c.43-1.81.74-3.69.1-5.13a5.06,5.06,0,0,0-1.22-2,4,4,0,0,0-2-1.09,3.23,3.23,0,0,0-.69-.07,3.82,3.82,0,0,0-.68.06,3.05,3.05,0,0,0-.6-.06,3.85,3.85,0,0,0-1.22.22,6.69,6.69,0,0,0-1.75,1l-.26.18-1.22.92c-.59.48-1.16,1-1.73,1.5l-.82.74a43.46,43.46,0,0,1-5.27,4,68.46,68.46,0,0,1-9.38,4.7,91.8,91.8,0,0,1-10,3.32,78.19,78.19,0,0,1-8.72,1.84c-2.84.4-5.75.72-8.9,1-5.56.44-11.21,1-16.67,1.6l-1.5.16c-5.39.57-11.77,1.21-18.18,1.73-6,.49-12.24,1-18.41,1.27-4.92.21-9.75.41-14.67.41q-1.5,0-3,0c-5.77-.1-11.64-.34-17.31-.56-2.85-.17-5.66-.34-8.47-.58l-1.29-.11c-.95-.08-1.9-.16-2.84-.28l-2.79-.35-2.8-.35c-1.07-.14-2.15-.33-3.22-.52l-1.5-.26c-1.21-.2-2.43-.43-3.64-.66l-.73-.14c-2.88-.54-5.76-1.08-8.63-1.66s-5.85-1.17-8.72-1.94c-2.57-.7-5.13-1.45-7.69-2.19l-1.27-.37c-3.37-1-6.74-1.82-9.58-2.54s-6-1.62-8.7-2.39c-1.76-.51-3.53-1-5.3-1.45l-.72-.19c-1.94-.52-3.87-1.13-5.51-1.67a40.58,40.58,0,0,1-8.88-4.41,16.89,16.89,0,0,1-2.15-2.21,1.9,1.9,0,0,0-1.49-.7Z"/><path class="cls-5" d="M334.78,328.7a2.35,2.35,0,0,0-1.62,1,3.5,3.5,0,0,0-.57,2.11v.07c0,.64-.12,1.27-.17,1.9s-.06,1.45-.08,2.17a10.43,10.43,0,0,1-.13,1.36v0l-.23.3a6.76,6.76,0,0,1-.8.61,40.72,40.72,0,0,1-5.8,2.72c-2.31.92-4.68,1.58-7,2.35-4.72,1.56-9.49,2.88-14.25,4.3-1.8.53-3.6,1.1-5.4,1.66a2.12,2.12,0,0,0-1,2.58,1.91,1.91,0,0,0,.87,1.12,1.59,1.59,0,0,0,1.33.07c2.62-.81,5.23-1.63,7.87-2.37,2.4-.68,4.82-1.31,7.22-2s4.72-1.59,7.09-2.34,4.51-1.4,6.76-2.14c1.1-.36,2.18-.76,3.27-1.18a18.24,18.24,0,0,0,3.45-1.53,4.82,4.82,0,0,0,1.73-2.4,10.34,10.34,0,0,0,.6-2.54,11.67,11.67,0,0,0-.58-6,2.83,2.83,0,0,0-.71-1.18,2.21,2.21,0,0,0-1.58-.68Zm-2.42,6.75v.25a2.09,2.09,0,0,0,0-.25Zm0,.65a1.62,1.62,0,0,1,0,.22,1.62,1.62,0,0,0,0-.22Z"/><path class="cls-6" d="M246,333.05c-.31.13-.63.24-.94.34-.93.24-1.85.47-2.78.65-1.17.22-2.36.34-3.54.54-2.41.41-4.82.82-7.24,1.17a63.71,63.71,0,0,1-7.31.41c-2.23.08-4.48,0-6.71-.11-1.84-.1-3.67-.24-5.52-.3-.83,0-1.66,0-2.49,0h-.79a15,15,0,0,0-1.51.05,4.08,4.08,0,0,0-.83.17,3.06,3.06,0,0,0-2.64-.08,3.86,3.86,0,0,0-2,2.11,5.31,5.31,0,0,0-.12,3.25c0,.28.11.56.16.84.89,4.68,1.7,9.38,2.67,14a74.83,74.83,0,0,0,3.6,11.31c.36.94.7,1.86,1.12,2.78a4.91,4.91,0,0,0,2,2,5.92,5.92,0,0,0,3.56.5c1.86-.14,3.71-.5,5.58-.66,3.71-.31,7.41-.54,11.1-1.09s7.12-1.08,10.7-1.42c.84-.08,1.68-.13,2.51-.27a8.45,8.45,0,0,0,2-.58,5.88,5.88,0,0,0,2.7-3A26.24,26.24,0,0,0,251.1,359c.76-4.27,1.52-8.6,1.92-13,.09-1.07.18-2.16.25-3.24a22.56,22.56,0,0,0,0-4.27c-.28-2.21-.94-4.48-2.75-5.57a3.54,3.54,0,0,0-1.92-.52,6.67,6.67,0,0,0-2.57.61Zm-11.54,10a67.58,67.58,0,0,1,6.77-.82c1.12-.07,2.24-.15,3.34-.3l0,.3-.54,6.19c-.18,2.12-.36,4.25-.49,6.38s-.19,4.19-.24,6.28c0,.35-.06.7-.1,1-2.31.45-4.68.57-7,.82s-4.9.5-7.36.62-5.19.15-7.79.17c-1.32,0-2.63.08-4,.18-1.09.09-2.18.32-3.27.46a66.62,66.62,0,0,1-2.39-8.82c-.73-3.84-1.38-7.71-2.07-11.57,1,0,2.08-.13,3.11-.15,3.49-.09,7,.11,10.47.18h.89a69.61,69.61,0,0,0,10.67-1Z"/><path class="cls-6" d="M305.66,325.29a21.37,21.37,0,0,0-1.92.95l-2,1c-1.38.69-2.76,1.38-4.14,2-.6.31-1.21.6-1.82.9l-.21.11a2.23,2.23,0,0,0-1.52-.4,2.93,2.93,0,0,0-2.31,3.27q.56,6.9.7,13.82c0,2,.06,4.09.08,6.13,0,.95,0,1.9,0,2.85s.06,1.78,0,2.68a6.09,6.09,0,0,0,0,1.35,2.8,2.8,0,0,0,1.17,2,4.18,4.18,0,0,0,3.05.21A26.92,26.92,0,0,0,301,361a66.64,66.64,0,0,0,7.72-3.61c.64-.35,1.27-.73,1.9-1.12a3.44,3.44,0,0,0,1.12-1,3,3,0,0,0,.46-1.73,3.58,3.58,0,0,0,.28-.37,8.92,8.92,0,0,0,1.07-2.77,44.06,44.06,0,0,0,.9-9.82,34.92,34.92,0,0,0-.91-10.16,10.58,10.58,0,0,0-1.37-3.12,5.46,5.46,0,0,0-3.07-2.36,4.32,4.32,0,0,0-1-.11,7.07,7.07,0,0,0-2.44.52Zm-4.14,13.77a22.12,22.12,0,0,0,6-1.19c.18,1.27.32,2.54.45,3.82a53.17,53.17,0,0,1,.45,5.77,16.2,16.2,0,0,1-.22,2,4,4,0,0,1-.34.23c-1.85,1.08-3.74,2.05-5.65,3-1,.48-1.95.92-2.91,1.42l-1.69.91-.71.4-.47.28-.14.09c.16-.81.32-1.62.44-2.43a54.1,54.1,0,0,0,.59-6.09c.1-2.71.07-5.41,0-8.11l1.3.05h.58c.79,0,1.58-.06,2.38-.11Z"/><path class="cls-6" d="M126.32,321.92a4,4,0,0,0-3.14,4.45c.54,4.79,1,9.62,1.29,14.44.26,4.25.35,8.48.86,12.69.12,1,.27,1.92.36,2.88,0,.4.06.8.07,1.2a13.36,13.36,0,0,0,.3,2.16,5,5,0,0,0,2.13,2.84,7.3,7.3,0,0,0,2.21.94,16.63,16.63,0,0,0,2.4.54c1.86.33,3.72.59,5.59.84l2.35.3q1,.09,2.1.12A7,7,0,0,0,145,365a5.62,5.62,0,0,0,3.64-3.17,14.05,14.05,0,0,0,.51-5.93c-.15-2.68-.53-5.36-.8-8s-.54-5.35-.9-8c-.16-1.25-.37-2.51-.6-3.74s-.55-2.57-.83-3.85c-.05-.32-.09-.65-.14-1a11.43,11.43,0,0,0-.37-1.85,6.71,6.71,0,0,0-1.52-2.52,5.73,5.73,0,0,0-3.61-1.68c-.62-.08-1.24-.11-1.87-.15-1.49-.08-3-.27-4.47-.46a14.14,14.14,0,0,0-4.15-.17,3.53,3.53,0,0,0-3.19-2.53Zm5,27.54c-.15-2.33,0-4.67-.06-7,0-2.8-.16-5.61-.37-8.41l.28.05c1,.14,1.93.21,2.89.32s2,.21,3.09.3l1.32.12c.27.93.48,1.88.66,2.82.64,3.52,1.12,7.07,1.6,10.63q.36,2.74.8,5.47c.14.9.31,1.81.45,2.72l-.79-.18c-1.2-.24-2.4-.49-3.61-.7s-2.46-.3-3.7-.43c-.66-.07-1.35-.11-2-.21-.24-1.82-.41-3.66-.53-5.5Z"/><path class="cls-7" d="M246.08,91.49h-.19l-.16,0a19.4,19.4,0,0,0-4.29,1.9,73.54,73.54,0,0,1-10.71,5.18l-.42.16-5.17,2a2,2,0,0,1-.34,1l-.19.26c-1.08,1.44-1.9,2.55-2.67,3.77a2.87,2.87,0,0,1-.25.44,2,2,0,0,0,.51.37,9.22,9.22,0,0,0,2.16.53l.38,0a16.19,16.19,0,0,0,3-.35,26,26,0,0,0,6.21-2.28,17.76,17.76,0,0,0,2-1.46l.66-.6a12.74,12.74,0,0,1,2-1.66,5.27,5.27,0,0,1,2.76-.75,8.59,8.59,0,0,1,4.3,1.33,19.17,19.17,0,0,1,2.8,2.09c1.52,1.28,3,2.72,4.3,4l.19.18.22.21c1.46,1.43,2.59,2.52,3.77,3.56a16.15,16.15,0,0,0,2.51,1.6l.19.18a4,4,0,0,0-.2-1c-.12-.34-.25-.68-.38-1l-.16-.44a13.52,13.52,0,0,1-.44-1.57l-.06-.28a4.14,4.14,0,0,1,.31-3l-.64-.8c-.9-1.08-1.76-2.22-2.7-3.47l-.27-.35-.47-.63a48.45,48.45,0,0,0-3.63-4.43l-.38-.38-.32-.33a43.08,43.08,0,0,0-3.16-3l-1-.78-.16-.12Z"/><path class="cls-7" d="M224.8,125.4s0,0,0,0a39.48,39.48,0,0,0,1.62,5c.56,1.5,1.13,3,1.72,4.49a24.82,24.82,0,0,0,1.81,3.48,10.23,10.23,0,0,0,1.1,1.16,11,11,0,0,0,1.86,1,20.63,20.63,0,0,0,2.32.75c.6.13,1.19.23,1.77.31h.49a12.08,12.08,0,0,0,2-.16,14.41,14.41,0,0,0,2.86-1.14c1.11-.64,2.43-1.43,3.75-2.36a28.75,28.75,0,0,0,3.35-2.73,70.66,70.66,0,0,0,5-5.87,24.47,24.47,0,0,1-3.52,3.27c-1.5,1.14-3,2.13-4.43,3a13.88,13.88,0,0,1-5.59,2.11,5.32,5.32,0,0,1-.69,0,13.54,13.54,0,0,1-5.79-1.86l-1.3-.63a13.69,13.69,0,0,1-2.65-1.55,15.23,15.23,0,0,1-3.4-3.67,16.42,16.42,0,0,1-2.2-4.68l0,0Z"/><path class="cls-8" d="M240.42,105.27a5.82,5.82,0,0,0-.6,0,9.92,9.92,0,0,0-1.48.61c-.58.34-1.13.72-1.7,1.1l-.26.17-.27.19c-.78.52-1.56,1-2.37,1.52a30.37,30.37,0,0,1-6,2.78,9.71,9.71,0,0,1-3,.51l-.16,0,.09.19.31.4a27,27,0,0,1,2.09,3,37.8,37.8,0,0,1,2.46,5.5l.54,1.39a27.55,27.55,0,0,0,2.36,4.39,14.75,14.75,0,0,0,1.69,1.84c.45.31.89.62,1.36.93l.16.11c.38.25.75.5,1.12.77l.35.25a25.5,25.5,0,0,0,3.09,2.06,7.23,7.23,0,0,0,1.13.3h.18c.22,0,.43,0,.63,0a9.38,9.38,0,0,0,1.78-.75,41.43,41.43,0,0,0,3.8-2.73,39.9,39.9,0,0,0,3.41-2.82,31.49,31.49,0,0,0,4-5.43,24,24,0,0,1,2.15-3.1c-.67-.35-1.31-.69-2.06-1.14a20.56,20.56,0,0,1-2-1.47q-1.36-1.09-2.7-2.22c-1.4-1.19-2.74-2.46-4-3.65l-.94-.9c-.87-.85-1.74-1.68-2.65-2.47a11.17,11.17,0,0,0-1.68-1,4.87,4.87,0,0,0-.83-.23Z"/><path class="cls-9" d="M211.31,58.78h0a19.65,19.65,0,0,0-4.1.57l-.57.13a26.18,26.18,0,0,0-4.08,1.22c-1.43.63-2.87,1.33-4.4,2.16A47.7,47.7,0,0,0,193,66.3c-1.68,1.32-3.41,2.82-5.27,4.59a21.71,21.71,0,0,0-2.13,2.37l-.39.49-.11.14c-.25.32-.51.65-.74,1l-.42.64-.75,1.11c-.63,1.11-1.24,2.22-1.82,3.37l-.59,1.2c-.48,1-.95,1.91-1.42,2.87l-.62,1.3c-.46,1-.88,1.85-1.24,2.75l-.31.74c-.2.49-.41,1-.59,1.48l-.32.94-.43,1.25c-.45,1.45-.89,2.91-1.28,4.37-.57,2.12-1.08,4.39-1.66,7.36s-.95,4.91-1.26,6.9l-.35,2.22-.1.68-.09.53-.07.46c-.29,1.86-.58,3.76-.85,5.78.07,2.52.3,5,.53,7.41a28.3,28.3,0,0,0,.67,3.92c.33,1.29.69,2.5,1.1,3.69a66.82,66.82,0,0,0,5.11,9.67,69.32,69.32,0,0,0,4.16,5.56c1.53,1.8,3.19,3.58,5.07,5.45a53.06,53.06,0,0,0,5.59,4.51,55.64,55.64,0,0,0,5.68,3.21l.27.14a65.94,65.94,0,0,0,7.29,3.13,52.88,52.88,0,0,0,7.51,2,84.48,84.48,0,0,0,9.22.5h1.14c.83,0,1.65,0,2.47.06,1.51,0,3.25.13,5.18.3a3.59,3.59,0,0,1,2.54-1.13,3.24,3.24,0,0,1,.89.13,3.41,3.41,0,0,1,1.13.65l.31.05.29,0a44.6,44.6,0,0,0,6.25.42,74.9,74.9,0,0,0,11.23-1,95.27,95.27,0,0,0,9.45-2,54.06,54.06,0,0,0,8.69-3.23,27.5,27.5,0,0,0,4.87-3.49,46.36,46.36,0,0,0,5.51-6.31c.64-1,1.46-2.28,2.19-3.63.58-2.16,1-4.2,1.4-6.06.28-1.39.6-3,.85-4.73.19-1.26.29-2.53.38-3.82.06-.94.1-1.86.14-2.79a61.4,61.4,0,0,0,0-7.09l-.15-2.12,0-.33-.1-1.23c-.1-1.22-.19-2.44-.28-3.67l-.07-1v-.19c-.28-3.92-.59-8.36-1.22-12.62-.41-2.15-.81-3.91-1.25-5.57s-1.16-3.61-1.62-4.81c-1.15-2.72-2.37-5.31-3.71-7.92a70.26,70.26,0,0,0-4.35-7.64,33.12,33.12,0,0,0-2.44-2.76c-.7-.67-1.44-1.34-2.42-2.15a19.77,19.77,0,0,0-3.39-2.26,9.69,9.69,0,0,0-1.62-.42h0a4.28,4.28,0,0,0-.52,0,3.56,3.56,0,0,0-.67.25,6.1,6.1,0,0,0-.76.58A11.15,11.15,0,0,0,261.61,74a15.36,15.36,0,0,0-1.15,2.65,19.22,19.22,0,0,0-.67,3.55,85.81,85.81,0,0,0,.52,10.11l0,.3.07.71c.31,3.2.72,6.63,1.26,10.48l.08.46.05.32.07.42.13.95a3.93,3.93,0,0,1,1,.4A6,6,0,0,1,265.5,108a12.24,12.24,0,0,1-.34,7.55c-.33,1-.76,1.89-1.21,2.87l-.08.18-.08.17-.31.66-.15.31c-.34.75-.7,1.5-1.09,2.22l-.83,1.52c-.34.61-.68,1.23-1.08,2l-.15.27c-.55,1-1.11,2-1.72,3a51.59,51.59,0,0,1-4.29,5.8l-.17.21-.18.2c-1.6,1.86-3.25,3.78-5,5.47a38.93,38.93,0,0,1-3.12,2.57,25.41,25.41,0,0,1-3.33,2.19,13.58,13.58,0,0,1-3.51,1.36,8.78,8.78,0,0,1-2.16.31,18.21,18.21,0,0,1-1.95-.11,13.19,13.19,0,0,1-4-1.24,11.68,11.68,0,0,1-5.17-4.78,51.34,51.34,0,0,1-2.93-6.11l-.52-1.19-.29-.66c-.47-1.1-1.07-2.46-1.55-3.8-.41-1.13-.81-2.43-1.25-4.08a50.75,50.75,0,0,1-1.49-9,12.43,12.43,0,0,1,0-2.09l0-.64a11.54,11.54,0,0,1,.18-1.77,5.23,5.23,0,0,1,.89-2.13l-.22-.54a4.35,4.35,0,0,1,.44-4,8.86,8.86,0,0,1,.7-.84l.3-.34c.34-.37.66-.76,1-1.17l.31-.38.58-.65a3.92,3.92,0,0,1-.37-.46,2.18,2.18,0,0,1-.27-1.19l0-.34-.05-.75v-.32a18.78,18.78,0,0,1,.34-3.46l.18-1,.15-.78.22-1.2,0-.26c.4-2.21.69-4.42.9-6.76.07-1.18.14-2.73.11-4.29a35.63,35.63,0,0,0-.34-4.28c-.25-1.37-.57-2.82-1-4.46a35.67,35.67,0,0,0-1.39-4.23,30.14,30.14,0,0,0-2.66-4.92,18.11,18.11,0,0,0-2.25-2.49,10.77,10.77,0,0,0-1.05-.66,12.36,12.36,0,0,0-2.55-.7ZM205,98.94a11.77,11.77,0,0,1-3.67-.64,7.74,7.74,0,0,1-5.15-5.52,9.57,9.57,0,0,1,.67-5.81l.33-1,.15-.29.14-.29.2-.38a9.46,9.46,0,0,1,1.07-1.74,10.85,10.85,0,0,1,1.61-1.72,6.87,6.87,0,0,1,2.33-1.3l.52-.13a5.2,5.2,0,0,1,1.29-.22,9.94,9.94,0,0,1,3.4.63,6.54,6.54,0,0,1,2.74,2,11.51,11.51,0,0,1,1.7,2.63,8.72,8.72,0,0,1,.79,3.82v.19a12.32,12.32,0,0,1-1.79,6.48A6.91,6.91,0,0,1,209,98a7.94,7.94,0,0,1-3.93,1ZM275.36,113a6.66,6.66,0,0,1-1.59-.2,9.92,9.92,0,0,1-3.32-1.43l-.14-.12a7.45,7.45,0,0,1-1.25-1.08,6.93,6.93,0,0,1-1.11-1.6l-.12-.29a5.52,5.52,0,0,1-.31-.8,9.46,9.46,0,0,1-.23-1.18,7.2,7.2,0,0,1,0-2.27,14.09,14.09,0,0,1,.73-3,8.69,8.69,0,0,1,1-2A18.7,18.7,0,0,1,272,96a1.08,1.08,0,0,1,.71-.27,3.93,3.93,0,0,1,1.31-.37q.35,0,.69,0a5.12,5.12,0,0,1,1.7.25l.17.06a6.9,6.9,0,0,1,1.36.57,8.35,8.35,0,0,1,1.21.89,7.49,7.49,0,0,1,1.39,1.64,6.3,6.3,0,0,1,.61,1,11.18,11.18,0,0,1,.89,2.65,9.7,9.7,0,0,1,.17,2.41,11.22,11.22,0,0,1-.35,2.41,10.07,10.07,0,0,1-.8,2.06,7.12,7.12,0,0,1-3,3.08,5.72,5.72,0,0,1-2.67.64Z"/><path class="cls-9" d="M128.48,175a27.51,27.51,0,0,0-3.17.21,29.36,29.36,0,0,0-3.47.63,28.3,28.3,0,0,0-4.8.87,24.75,24.75,0,0,0-5.1,2.29l-.21.12a47.47,47.47,0,0,0-9,6.88,90,90,0,0,0-8.48,8.63,79,79,0,0,0-4.94,6.68c-.37.55-.74,1.1-1.1,1.65a58.2,58.2,0,0,1-4.15,5.75,78.22,78.22,0,0,0-5.22,6.71c-1.57,2.31-3.06,4.75-4.5,7.11l-.64,1.05c-1.16,1.85-2.16,3.35-3.12,4.72C69.08,230.5,68,232.2,67,233.85c-2.1,3.59-4,7.31-5.51,10.47L59,249.46a47.4,47.4,0,0,0-2.27,5.66c-1.31,3.77-2.52,7.86-3.92,13.26-1.17,4.55-2.13,8.65-2.93,12.53a53.14,53.14,0,0,0-1,6.39,35.7,35.7,0,0,0-.16,3.91,14.3,14.3,0,0,0,1.15,5.28,7.15,7.15,0,0,0,1.24,2.05,5.66,5.66,0,0,0,2.81,1.89,11.73,11.73,0,0,0,2.17.26h0a7.12,7.12,0,0,0,1.63-.26l.32-.07a15,15,0,0,0,2-.62,23.41,23.41,0,0,0,3.3-1.63A36.87,36.87,0,0,0,70,292.58a118,118,0,0,0,8-9c.83-1,1.64-2,2.45-3.06a72.65,72.65,0,0,1,5.21-6.15c1.38-1.23,2.84-2.44,4.33-3.6,1.14-.87,2.35-1.66,3.52-2.42l1.08-.7a86.5,86.5,0,0,0,9-6.91c2.76-2.39,5.43-4.86,8.59-7.84a61.32,61.32,0,0,0,4.91-5.14,42.67,42.67,0,0,0,4-5.77c1.58-2.67,3-5.53,4.32-8.3.76-1.54,1.51-3.08,2.29-4.6,2-3.91,4.41-8.43,7-12.71l.89-1.41c1.24-2,2.53-4,3.62-6.08a78.59,78.59,0,0,0,3.81-9,49.45,49.45,0,0,0,2.86-9.68c.13-.84.19-1.69.25-2.55l.05-.71a15.4,15.4,0,0,0,0-2.14,20.08,20.08,0,0,0-.29-2.3,12.66,12.66,0,0,0-1-3,5.84,5.84,0,0,0-5.18-3.6,4.28,4.28,0,0,0-1.91.43,7.79,7.79,0,0,0-1.09.64,23.43,23.43,0,0,0-5.45-1.79,15.51,15.51,0,0,0-2.75-.23Z"/><path class="cls-9" d="M325,185H325c-3.81,0-6.55,3.71-7.84,7.18a53.19,53.19,0,0,0-2.63,12.07A88.11,88.11,0,0,0,314,217c0,1.74.18,3.5.32,5.2l.07.84c0,.41.07.82.11,1.22a51.69,51.69,0,0,0,.36,6.42,87.15,87.15,0,0,0,2.3,12c.49,2,1,4,1.65,6,.41,1.3.91,2.58,1.4,3.82l.11.35.07.24c.46,1.62.9,3.25,1.35,4.88.61,2.23,1.22,4.46,1.86,6.68l.23.77c.53,1.83,1.08,3.72,1.79,5.49.51,1.27,1.09,2.52,1.66,3.72l.7,1.52,1,2.31c.44,1,.89,2,1.34,3,.58,1.25,1.1,2.57,1.59,3.85l.51,1.3a109,109,0,0,0,4.43,10l.69,1.33c1.5,2.93,3.06,5.95,4.78,8.78a46.45,46.45,0,0,0,3.58,5.23,36.85,36.85,0,0,0,4.49,4.57,20.56,20.56,0,0,0,4.79,3.12,10.18,10.18,0,0,0,1.95.71,13.18,13.18,0,0,0,2.35.36h.19a5.83,5.83,0,0,0,3.22-1.15c1.81-1.25,3-3.62,3.77-7.24a46.88,46.88,0,0,0,.8-6.28c.13-2,.16-3.8.11-5.53l0-.67c0-1.19-.07-2.39-.15-3.59l.05-.39c.18-1.41.37-2.83.5-4.25.16-1.7.25-3.44.33-5.12l0-.66q.17-3.15.29-6.32a45.46,45.46,0,0,0-.24-6.16,125.16,125.16,0,0,0-2-12.9A95.67,95.67,0,0,0,363.27,250l-.43-1.31-.41-1.24c-1.1-3.33-2.24-6.77-3.5-10.1-1.16-3.07-2.57-6.26-4.42-10.06-1.55-3.16-3.09-6.63-4.83-10.92-.74-1.82-1.61-3.93-2.56-5.95-.79-1.68-1.66-3.34-2.51-5l-.14-.27c-.6-1.14-1.17-2.3-1.74-3.47a72.38,72.38,0,0,0-3.53-6.63,21.31,21.31,0,0,0-3.64-4.44A30.55,30.55,0,0,0,331,187a11.52,11.52,0,0,0-6-2.08Zm34.71,117.9-.07,0c.06-.78.1-1.6.11-2.48,0,.87,0,1.71,0,2.51Zm-1,7.91c-.31-.21-.62-.43-.92-.67-1.07-1-2.14-2.06-3.21-3.1a4.09,4.09,0,0,0,1.18.39,13.88,13.88,0,0,1,2.15.71l.6.23a5.31,5.31,0,0,0,.68.2c-.14.81-.3,1.54-.48,2.24Z"/><path class="cls-9" d="M350.31,297.12a4.42,4.42,0,0,0-1.73,2.64,5.45,5.45,0,0,0,.38,3.41,43.26,43.26,0,0,0,2.9,6.5,8.71,8.71,0,0,0,2.3,2.55,3.4,3.4,0,0,0,2.35,2.08,2.57,2.57,0,0,0,2.26-.35c.28-.24.55-.48.82-.74s.44-.66.65-1a7.86,7.86,0,0,0,.67-1.85,18,18,0,0,0,.4-2.92,13.91,13.91,0,0,0-.16-4.27,5.58,5.58,0,0,0-1.1-2.17,3.51,3.51,0,0,0-4.05-1l-.51-1.31a3.81,3.81,0,0,0-2.27-2,3.35,3.35,0,0,0-1-.15,3.4,3.4,0,0,0-1.92.6Z"/><path class="cls-3" d="M274,95.38a3.44,3.44,0,0,0-1.31.36A1.14,1.14,0,0,0,272,96a18.7,18.7,0,0,0-3,3.07,8.69,8.69,0,0,0-1,2,14.09,14.09,0,0,0-.73,3,7.84,7.84,0,0,0,0,2.27,7.93,7.93,0,0,0,.23,1.18,6.94,6.94,0,0,0,.3.8l.13.29a6.93,6.93,0,0,0,1.11,1.6,8.57,8.57,0,0,0,1.25,1.09l.14.11a9.92,9.92,0,0,0,3.32,1.43,6.13,6.13,0,0,0,1.59.2,5.87,5.87,0,0,0,2.67-.63,7.29,7.29,0,0,0,3-3.08,10.39,10.39,0,0,0,1.15-4.48,9.24,9.24,0,0,0-.17-2.41,11.4,11.4,0,0,0-.89-2.66,6.12,6.12,0,0,0-.61-1,8,8,0,0,0-1.38-1.65,9,9,0,0,0-1.22-.89,7.16,7.16,0,0,0-1.36-.57l-.17-.06a5.12,5.12,0,0,0-1.7-.25,5.32,5.32,0,0,0-.69,0Z"/><path class="cls-1" d="M204.76,88.94h0l.06.08"/><path class="cls-3" d="M203.24,80.09l-.52.13a7,7,0,0,0-2.33,1.3A11.08,11.08,0,0,0,197.71,85l-.21.38-.13.3-.15.3c-.11.33-.23.68-.33,1a9.67,9.67,0,0,0-.68,5.81,7.73,7.73,0,0,0,5.16,5.53,11.75,11.75,0,0,0,3.67.63A7.93,7.93,0,0,0,209,98a6.85,6.85,0,0,0,2.4-2.39,12.26,12.26,0,0,0,1.79-6.46v-.19a8.86,8.86,0,0,0-.78-3.83,11.58,11.58,0,0,0-1.72-2.63,6.28,6.28,0,0,0-2.73-2,9.24,9.24,0,0,0-3.4-.62,5.19,5.19,0,0,0-1.29.21Zm2,8.27a1.75,1.75,0,0,1-.23.24h0l.24-.24Zm-.51.52Zm.1.14-.06-.08h0"/></g></g></svg>