<svg xmlns="http://www.w3.org/2000/svg" width="73.169" height="73.169" viewBox="0 0 73.169 73.169"><path d="M68.912 62.662H4.257C1.906 62.662 0 64.58 0 66.957c0 2.369 1.906 4.287 4.257 4.287h64.655c2.352 0 4.257-1.918 4.257-4.287 0-2.377-1.905-4.295-4.257-4.295zM32.723 51.461a4.25 4.25 0 0 0 3.188 1.526h.071a4.241 4.241 0 0 0 3.17-1.429L57.49 30.965a4.33 4.33 0 0 0 .691-4.678 4.29 4.29 0 0 0-3.99-2.482l-5.17.158V6.22c0-2.369-1.906-4.295-4.258-4.295h-16.45a4.249 4.249 0 0 0-3.012 1.256 4.327 4.327 0 0 0-1.249 3.039l.004 17.743-5.122-.158a4.277 4.277 0 0 0-3.96 2.422 4.322 4.322 0 0 0 .571 4.634l17.178 20.6z"/></svg>