<svg width="106" height="23" viewBox="0 0 106 23" xmlns="http://www.w3.org/2000/svg"><title>E47_new</title><g transform="translate(0 -2)" fill="none" fill-rule="evenodd"><path d="M.9 4.02h11.2v3.33H4.3v4.83h7.44v3.33H4.3v5.16h7.89V24H.1V4.82a.8.8 0 0 1 .8-.8zm21.19 18.42c-.793.64-1.443 1.08-1.95 1.32-.76.36-1.64.54-2.64.54-.64 0-1.22-.105-1.74-.315-.52-.21-.96-.5-1.32-.87-.36-.37-.64-.805-.84-1.305-.2-.5-.3-1.05-.3-1.65 0-1.34.45-2.36 1.35-3.06.9-.7 2.13-1.1 3.69-1.2.6-.04 1.22-.07 1.86-.09.64-.02 1.22-.04 1.74-.06v-.51c0-.94-.23-1.655-.69-2.145-.46-.49-1.18-.735-2.16-.735-.76 0-1.48.09-2.16.27-.68.18-1.28.41-1.8.69l-.627-2.228a.8.8 0 0 1 .44-.945c.776-.352 1.408-.59 1.897-.712.92-.23 1.91-.345 2.97-.345 1.94 0 3.465.53 4.575 1.59 1.11 1.06 1.665 2.63 1.665 4.71V24h-3.96v-1.56zm-3.08-.93c.58 0 1.12-.1 1.62-.3.5-.2.94-.45 1.32-.75v-2.31c-.42.04-.87.08-1.35.12-.48.04-.92.09-1.32.15-.6.1-1.08.265-1.44.495-.36.23-.54.615-.54 1.155 0 .48.155.84.465 1.08.31.24.725.36 1.245.36zm17.21-8.61h-.69c-1.02 0-1.87.16-2.55.48-.68.32-1.22.78-1.62 1.38V24h-4.11V10.19a.8.8 0 0 1 .8-.8h3.16v2.58c.28-.86.725-1.53 1.335-2.01.61-.48 1.425-.72 2.445-.72.46 0 .87.05 1.23.15v3.51zm-.7-3.51h2.37V6.41a.8.8 0 0 1 .8-.8H42v3.78h4.38v3.21H42v6.27c0 .68.125 1.22.375 1.62.25.4.745.6 1.485.6.78 0 1.52-.11 2.22-.33l.3 2.91c-.44.18-.99.33-1.65.45-.66.12-1.32.18-1.98.18-.88 0-1.625-.135-2.235-.405a3.961 3.961 0 0 1-1.5-1.125 4.608 4.608 0 0 1-.855-1.68c-.18-.64-.27-1.34-.27-2.1V12.6h-2.37V9.39zM47.45 24l.05-20.383a.8.8 0 0 1 .8-.798h3.313l-.053 8.341c.48-.7 1.075-1.22 1.785-1.56.71-.34 1.485-.51 2.325-.51.94 0 1.745.2 2.415.6.67.4 1.215.935 1.635 1.605.42.67.73 1.45.93 2.34.2.89.3 1.815.3 2.775V24h-4.11v-7.62c0-1.32-.205-2.32-.615-3-.41-.68-1.085-1.02-2.025-1.02-.6 0-1.12.14-1.56.42-.44.28-.8.61-1.08.99V24h-4.11zm31.14-5.1V24h-4.05v-5.1h-8.07l-.6-3.03 7.473-11.486a.8.8 0 0 1 .67-.364h4.577v11.7h2.7v3.18h-2.7zM74.54 7.77l-4.83 7.95h4.83V7.77zm18.407-.493L85.3 24h-4.11l7.8-16.68h-8.34v-2.5a.8.8 0 0 1 .8-.8h11.135a.8.8 0 0 1 .796.72c.003.033.006.062.007.09.023.456.008.568-.016.866a4.906 4.906 0 0 1-.425 1.581z" fill="#141419"/><circle fill="#35CF00" cx="100.1" cy="20" r="5"/><path fill="#141419" d="M36.181 12.9h1.829v-1.1h-2.838zm-1.095-3.66h3.703l-1.58 1.455-2.394-.461z"/><path fill="#141419" d="M35.155 10.102l1.407.265-.185 2.368h-1.3z"/></g></svg>