<svg height="163.839" viewBox="0 0 311 311" width="163.839" xmlns="http://www.w3.org/2000/svg" shape-rendering="geometricPrecision" text-rendering="geometricPrecision" image-rendering="optimizeQuality" fill-rule="evenodd" clip-rule="evenodd"><defs><style>.fil2{fill:none}.fil3{fill:#b43d34}.fil0{fill:#de4c40}.fil1{fill:#fff}</style></defs><g id="Layer_x0020_1"><g id="_439103216"><rect class="fil0" height="311" rx="34" ry="34" width="311"/><path class="fil1" d="M55 173c8 32 36 52 65 53 48 3 77-41 71-84h-66v25l38 2c0 10-13 22-23 26-3 1-7 2-11 3-23 2-43-14-47-37-3-21 10-42 33-47 21-4 26 1 37 9l19-19c-10-15-37-20-53-20-44 3-74 48-63 89zm171 2v-19h-20v-13h20v-19h13v19h19v13h-19v19h-13z"/><path class="fil2" d="M234 119l77 77"/><path class="fil3" d="M226 175v-17l-3-2h-17v-13h4l-39-39-19 19c-11-8-16-13-37-9-23 5-36 26-33 47 4 23 24 39 47 37 4-1 8-2 11-3 10-4 23-16 23-26l-38-2v-25h66c6 43-23 87-71 84-15-1-30-6-42-16l101 101h98l34-34v-34l-72-72v4h-13z"/><path class="fil3" d="M239 156v15l72 72v-47l-53-53v13zm19-13l-19-19v19z"/></g></g></svg>