<svg xmlns="http://www.w3.org/2000/svg" viewBox="0 0 312.16 263.88"><defs><style>.cls-1{fill:#e9ca9d}.cls-2{fill:#60b365}.cls-3{fill:#73d779}.cls-4{fill:#d69e4c}.cls-5{fill:#ae803e}.cls-6{fill:#68b853}.cls-7{fill:#599e47}.cls-8{fill:#c1743b}.cls-9{fill:#98c12a}.cls-10{fill:#d4e033}.cls-11{fill:#feffc2}</style></defs><title>Asset 11</title><g id="Layer_2" data-name="Layer 2"><g id="Layer_1-2" data-name="Layer 1"><path class="cls-1" d="M30.33 184a44.58 44.58 0 0 0-8.58 1.33 29.9 29.9 0 0 0-5.66 2.25 32.9 32.9 0 0 0-5 3.19c-1.14.8-2.24 1.67-3.34 2.53l-.93.73a30.23 30.23 0 0 0-4.51 4 11.22 11.22 0 0 0-1.4 2.12 7.26 7.26 0 0 0-.91 4.08 14.24 14.24 0 0 0 2.54 6.88 34.07 34.07 0 0 0 3.09 4c.86 2.63 3.33 5.33 6.6 7.2a39.73 39.73 0 0 0 9.11 4.4c3 1 6.41 1.89 10.72 2.89l.43.08.39.07.93.29c2.8.71 5.62 1.41 8.48 2 3.32.7 6.66 1.35 10 2 6.9 1.37 13.3 2.73 19.56 4.15 4.83 1.29 10.3 2.75 15 5.21 1.37.83 2.73 1.73 4.09 2.63l.77.52.37.26.39.28.39.26c1.48 1 3 1.93 4.47 2.87l.72.46 1.17.68 1.13.7c.84.55 1.75 1.09 2.64 1.62l.42.25a45.54 45.54 0 0 0 5.83 3 35.78 35.78 0 0 0 6.9 2.28c4.44 1.16 8.8 2.12 13.32 2.94a84.93 84.93 0 0 0 12.75 1.49c4.25.17 8.11.25 11.83.25h.6c2.35 0 4.54-.08 6.73-.23 2-.13 3.82-.34 5.72-.64a95.08 95.08 0 0 0 12.59-3.09 12.7 12.7 0 0 0 6.71-5.21l.54-.86.34-.65a18.71 18.71 0 0 1 1.78-2.53 10.26 10.26 0 0 1 .85-.76 33.9 33.9 0 0 1 3.67-1.57 54.8 54.8 0 0 1 9.51-1.32c2.23-.15 4.46-.22 6.7-.29s4.32-.09 6.45-.23l.86-.06a60 60 0 0 0 10.4-1.45 20.56 20.56 0 0 0 5.67-2.33 28.26 28.26 0 0 0 6.11-4.59 12.5 12.5 0 0 0 1.8-2.88 4.66 4.66 0 0 0 .42-1.16l.33-1.86.1-.54.28-.29a12.78 12.78 0 0 1 1.61-1.33 56.74 56.74 0 0 1 9.22-3.74l1.2-.25.39-.1.4-.09c1-.22 2-.45 3-.62l3.43-.6 2.53-.47c2.85-.51 5.69-1.08 8.53-1.66l3.78-.76a121.65 121.65 0 0 0 12.29-3.41 36.21 36.21 0 0 0 5.52-2 33 33 0 0 0 4.87-2.63 22.14 22.14 0 0 0 2.05-1.35 5.51 5.51 0 0 0 1.53-1.58 5.36 5.36 0 0 0 .72-1.93 5.45 5.45 0 0 0 0-2.13 6.19 6.19 0 0 0-1.11-2.44 19.27 19.27 0 0 0-2.86-2.85l-.35-.29c-1.43-1.2-2.92-2.28-4.42-3.37a51 51 0 0 0-10.15-5.89 44.71 44.71 0 0 0-11.21-2.86c-4.35-.66-8.22-1.05-12.94-1.33-8.07-.29-14.31-.28-19.63 0-1.27.09-2.47.24-3.66.39h-.49l-.5.06-.46.06-.49.07c-1.05.14-2.09.28-3.13.39-1.48.17-3 .3-4.43.4-1.28.09-2.56.14-3.83.18a49.4 49.4 0 0 1-7.32-.42c-1.31-.14-2.43-.24-3.55-.33-4.09-.31-8.19-.64-12.28-1.05q-6.68-.71-13.39-1.45c-3.37-.39-6.74-.77-10.13-1.13-5.07-.51-8.82-.83-12.16-1-2.74-.15-5.48-.21-8.21-.26-1.69 0-3-.06-4.37-.12-2.71-.08-5.43-.07-8.13-.06h-3.81c-4.16 0-8.3-.08-12.44-.18-3.12-.09-6.23-.25-9.34-.42l-2.84-.16c-3.75-.15-7.26-.06-11.82.08h-1.19c-.57 0-1.18 0-1.81.05h-1.59c-3 .06-6.11.12-9.18.22l-2.51.11-1.54.07c-1.89.08-3.71.16-5.54.21-3.13.14-6.27.1-9.76 0h-1.2c-4.68-.08-8.59-.13-12.5-.09H45.49c-2.81.06-5.61.16-8.43.26l-4.23.15c-.83 0-1.67.07-2.5.12z"/><path class="cls-2" d="M252.94 111.68a7.68 7.68 0 0 0-3.51 4 9.84 9.84 0 0 0-.63 4.13c.06 1.47.24 2.92.44 4.37a17.28 17.28 0 0 0 .81 3.26 8.2 8.2 0 0 0 0 3.49 5 5 0 0 0 1.38 2.59 6.15 6.15 0 0 0-1.78 2.8 6.63 6.63 0 0 0-.27 1.67 7.67 7.67 0 0 0-1.69-.34 8.09 8.09 0 0 0-4.41.87 12.57 12.57 0 0 0-1.68.76 7.79 7.79 0 0 0-3.65 4.26 9.64 9.64 0 0 0 1.84 8.78 9.19 9.19 0 0 0 2.93 2.34 14.83 14.83 0 0 0 5 1.32 20.59 20.59 0 0 0 5.72-.34 13.44 13.44 0 0 0 3-1.15 9.59 9.59 0 0 0 2.81-2.13 2.13 2.13 0 0 0 .21-.22 6.5 6.5 0 0 0 2.73-.85 4.39 4.39 0 0 0 1.74-1.57 7.24 7.24 0 0 0 3.85 1.61l.09.08a7.07 7.07 0 0 0 3.46 1.2 11.48 11.48 0 0 0 4 1.53 6.24 6.24 0 0 0 4.45-.47 5.8 5.8 0 0 0 2.71-3.37 5.74 5.74 0 0 0 .12-2.85c.34-.09.69-.19 1-.31a10.38 10.38 0 0 0 2-.93 2.86 2.86 0 0 0 1.53-.12 4.27 4.27 0 0 0 2.92-2.78 3.8 3.8 0 0 0 0-2.24 9.56 9.56 0 0 0 .66-2.17c.29-.26.57-.53.81-.79a5.65 5.65 0 0 0 1.47-5c-.66-2.6-3.27-4.58-5.7-5.44a7.93 7.93 0 0 0-4-.45 5.29 5.29 0 0 0-1.91.66 9.31 9.31 0 0 0-3.41-3.61 14 14 0 0 0-4.56-1.68 15.42 15.42 0 0 0-3.86-.32 6.2 6.2 0 0 0-1.92-.86h-.2c0-.2-.05-.4-.07-.61a8.81 8.81 0 0 0-1.59-4.12 12.7 12.7 0 0 0-1.27-1.65 14.26 14.26 0 0 0-2.42-1.95 16.47 16.47 0 0 0-3.44-1.71 6.47 6.47 0 0 0-2.86-.41 6.91 6.91 0 0 0-2.85.79zm2.74 9.46a3.49 3.49 0 0 1 0 .44v-.44zM247.53 144l.34.27a3.92 3.92 0 0 1-.33-.27zm-1.07 4l.33.06-.33-.06zm-102.03-22.48a11.74 11.74 0 0 0-4.67 5.58 10.82 10.82 0 0 0-.63 3.57v.1a16.06 16.06 0 0 0-7.68-.32 8.37 8.37 0 0 0-4.19 2.21 6.55 6.55 0 0 0-1.79 4.72 13.06 13.06 0 0 0-2.4 2.62 6.19 6.19 0 0 0-.29 5.94 8.88 8.88 0 0 0 4 3.85 21 21 0 0 0 6.19 1.65 14.6 14.6 0 0 0 5.47-.26 5.17 5.17 0 0 0 1.27-.5 18.21 18.21 0 0 0 5.56-.5 8.83 8.83 0 0 0 5.28-3.68 9.56 9.56 0 0 0 1.61-4.39 6.78 6.78 0 0 0 .51-1.11 5.49 5.49 0 0 0 0-2.7 5.49 5.49 0 0 0 .81-.63 6.82 6.82 0 0 0 1.88-5.55 7.33 7.33 0 0 0 0-10.1 7 7 0 0 0-5.13-2.27 10.83 10.83 0 0 0-5.85 1.77zm6.46 12.87l-.5.19a4.29 4.29 0 0 1 .5-.19zm-1.08 1.74z"/><path class="cls-2" d="M143.5 128.43a4.52 4.52 0 0 0-1.91 1.12 8.53 8.53 0 0 0-1.57 2.33 9.73 9.73 0 0 0-.7 2.18 9.1 9.1 0 0 0-.21 1.63 9.15 9.15 0 0 0-.65 1.13 8.1 8.1 0 0 0-.66 1.62c-.1.58-.19 1.16-.25 1.73s.09 1.15.15 1.71a3.87 3.87 0 0 0 .29 1 7.94 7.94 0 0 0 .66 1.52l1 1.43a6.8 6.8 0 0 0 .93.85 16.7 16.7 0 0 0 1.42 1.09 14.28 14.28 0 0 0 2.62 1.39 29.66 29.66 0 0 0 5.53 1.76 40.92 40.92 0 0 0 7.87.83c.65 0 1.29 0 1.93-.07.81 0 1.64-.15 2.47-.24a9.64 9.64 0 0 0 2.92-.82 4.09 4.09 0 0 0 1.51-1.44 4.36 4.36 0 0 0 .44-1 4.09 4.09 0 0 0 .17-2.86l.09-.23a6.8 6.8 0 0 0 .17-1.42 5.41 5.41 0 0 0-1.41-3.58 9.58 9.58 0 0 0-3.92-2.8 8.9 8.9 0 0 0-3.31-3.25l-.51-.27a5.48 5.48 0 0 0-6.2-2.92 10.15 10.15 0 0 0-2.52.94 7.92 7.92 0 0 0-2.79-2.9 5.19 5.19 0 0 0-2.35-.63 10.65 10.65 0 0 0-1.25.15z"/><path class="cls-2" d="M142.83 125.43a10 10 0 0 0-2.85 2.12 7.2 7.2 0 0 0-.52.6 8.27 8.27 0 0 0-3.11.63A10.75 10.75 0 0 0 133 131a9.11 9.11 0 0 0-2 2.55 6.28 6.28 0 0 0-.42 1l-.8.11a11.53 11.53 0 0 0-2.78.87 14.54 14.54 0 0 0-2.4 1.2 5.3 5.3 0 0 0-2.11 2.24 4.33 4.33 0 0 0-.63 2.13 5.76 5.76 0 0 0 .17 2.11c.51 2.15 2.34 3.75 4.08 4.9a15.54 15.54 0 0 0 2.66 1.29 12.85 12.85 0 0 0 2.92.78 17.17 17.17 0 0 0 10.08-1.14c.7.07 1.41.13 2.13.17a3.88 3.88 0 0 0 2.91-6.55 4.18 4.18 0 0 0-2.72-1.21c-.61-.12-1.22-.24-1.83-.4a3.57 3.57 0 0 0-.55-.11 4.14 4.14 0 0 0-.07-1.57 4 4 0 0 0-1-1.81 6.11 6.11 0 0 0-2.34-1.8l.32-.3a6.8 6.8 0 0 1 .7-.38h.13a3.5 3.5 0 0 0 4-.49 7.82 7.82 0 0 0 1.28-1.85 12.93 12.93 0 0 1 1.06-1l.26-.15h.22c.2 0 .39.1.59.17a8.38 8.38 0 0 1 .75.46 33.52 33.52 0 0 1 2.84 3 16.19 16.19 0 0 0 1.12 1.22 6.42 6.42 0 0 0 2.42 1.44 4.21 4.21 0 0 0 1.83.21 8.09 8.09 0 0 0 .37 1.15 2.5 2.5 0 0 0 .66 2.5c.39.34.78.71 1.21 1a11.16 11.16 0 0 0 1.95 1 6.7 6.7 0 0 0 4.33-.18 7.19 7.19 0 0 0 3.6-2.55 5.12 5.12 0 0 0 .67-4.61 8 8 0 0 0-2.85-3.52 13.26 13.26 0 0 0-3.66-2.36 4.4 4.4 0 0 0-3.63.38h-.22c-.53.05-1 .11-1.54.19a12.17 12.17 0 0 0-1.39.5l-.11.06c-1.72-1.7-3.12-3.73-5.08-5.18a7.59 7.59 0 0 0-5-1.63 5.82 5.82 0 0 0-2.25.61zm3 6.2l-.45.18a3 3 0 0 1 .45-.18zm-.35.28l-.25.18.25-.18zm1.62-.09l.3.26-.3-.26zm7.86-.11zm.5.2h.27-.27zm-18 4.88v.15-.15zm24.36 1l.3.05-.3-.05zm0 .13l.25.2a2.43 2.43 0 0 1-.25-.2zm-32 2.33l.06.14-.06-.14z"/><path class="cls-2" d="M144.66 139.58a17.55 17.55 0 0 0-.77 3.43 8.1 8.1 0 0 0 .25 2.19 8.31 8.31 0 0 0 .79 2l1 1.3a19.55 19.55 0 0 0 1.69 1.45 9 9 0 0 0 3.82 1.56 17.47 17.47 0 0 0 1.75.23 10 10 0 0 0 2.12-.2 6.1 6.1 0 0 0 2.67-1.17 6.93 6.93 0 0 0 2.52.26 12.2 12.2 0 0 0 2.49-.4 23.21 23.21 0 0 0 2.68-1 12.55 12.55 0 0 0 1.61-.77 4.41 4.41 0 0 0 3-1.25 4.56 4.56 0 0 0 1.38-3.12 4.51 4.51 0 0 0-3.4-4.43 6.39 6.39 0 0 0-1.88-.45 4.28 4.28 0 0 0-3 1.23 4.48 4.48 0 0 0-1.24 3 13.81 13.81 0 0 1-1.44.37h-.16a5 5 0 0 0-.88-1.3 3.68 3.68 0 0 0-5.17-.13 4.18 4.18 0 0 0-.88 1.17h-.08l-.9-.28-.26-.16c.11-.37.23-.74.34-1.11a4.17 4.17 0 0 0-8-2.41zm7.65 3.06v.27a2.51 2.51 0 0 1 0-.27zm-.29.05l.06.14-.06-.14zm.4.54l.38.3a3.68 3.68 0 0 1-.38-.31zm-.11 0l.27.36a4.22 4.22 0 0 1-.27-.36zm-.05.22v.27a1.24 1.24 0 0 1 0-.27zm1.25.17h-.18.19zm-.06.14l-.28.1.29-.11zm6.19-.37l.18.24a2.5 2.5 0 0 1-.18-.24zm-.36.09l.46.2-.46-.2z"/><path class="cls-3" d="M39.77 111.32a7.82 7.82 0 0 0-1.93.64l-.49.33a6.53 6.53 0 0 0-1.3 1 9 9 0 0 0-1.27 1.71 9.39 9.39 0 0 0-1.42 3.71 12.51 12.51 0 0 0-.18 1.76c-.09.12-.18.25-.26.38a6.36 6.36 0 0 0-1.25 3.15l-.33.17-.32.2c-3.21-.15-6.72 1.45-7.7 4.74a8.36 8.36 0 0 0-.24 1.19h-.07a7.2 7.2 0 0 0-3.69-.53A8.23 8.23 0 0 0 16 130.9a12.31 12.31 0 0 0-2.68 2.47 12.66 12.66 0 0 0-2 3 7.65 7.65 0 0 0 .55 7.2c1.29 2.16 3.64 3.37 5.94 4.19a26 26 0 0 0-3 .36 8 8 0 0 0-6.27 5.64 6.41 6.41 0 0 0-.28 2.24 9.6 9.6 0 0 0 .36 2.27 8.93 8.93 0 0 0 2.65 4.22c2.38 2.11 5.85 2.25 8.74 1.13a19.73 19.73 0 0 0 4.18.91 19 19 0 0 0 4.51-.2c.32 0 .63-.1.95-.17a6.08 6.08 0 0 0 2.07.54 7.05 7.05 0 0 0 2.42-.24 6 6 0 0 0 3.35-2.62 2.16 2.16 0 0 0 .18-.3c.34-.09.69-.19 1-.31a4 4 0 0 0 1.95-.06 3.1 3.1 0 0 0 2.22-2.35 4.12 4.12 0 0 0 .33-.4 10.14 10.14 0 0 0 1.64 1.17 13.08 13.08 0 0 0 4 1.4 19 19 0 0 0 4.26.4 20.39 20.39 0 0 0 7.31-1.94c1.24.31 2.46.68 3.69 1a14.09 14.09 0 0 0 4.56.47 16.28 16.28 0 0 0 5.81-1.66 9.87 9.87 0 0 0 1.74-1.11 19.28 19.28 0 0 0 2.11-1.69 8.85 8.85 0 0 0 .75-.75 7.91 7.91 0 0 0 2.38-.32 6.3 6.3 0 0 0 4.22-4.2 6.83 6.83 0 0 0-1.6-6.14 11.06 11.06 0 0 0-1.8-1.75 6.59 6.59 0 0 0-1-1.31 7 7 0 0 0-4.85-2h-.23l-.7-.29a10.12 10.12 0 0 0-2.68-.73 8.45 8.45 0 0 0-2.41-1.38 10.21 10.21 0 0 0-4.76-.56 4.44 4.44 0 0 0-.64-.24 6.1 6.1 0 0 0 .65-2.7 4.9 4.9 0 0 0-4.76-5 7.65 7.65 0 0 0-1.85.13 5.9 5.9 0 0 0-1.62.72 5 5 0 0 0-2.27-4.85 4.86 4.86 0 0 0-2.65-.72 1.54 1.54 0 0 0-.08-.19 6.21 6.21 0 0 0-2.18-7.75 8.12 8.12 0 0 0-3.62-1.3c-.22-.28-.45-.57-.66-.86a7.07 7.07 0 0 0-3.54-2.82c-.13 0-.25-.07-.38-.09a4 4 0 0 0-1.48-.17 3.88 3.88 0 0 0-.75.11zm17.83 19.73a1.57 1.57 0 0 1-.26.19l.26-.19zm10.14 14.39c.06.08.12.15.17.23l-.17-.23zm-.27 0zm-2.86 4.17a3.22 3.22 0 0 0 .34.56l-.41-.07c0-.16.08-.32.11-.48zm-4.1 9.79l.5.08-.52-.08z"/><path class="cls-3" d="M44.5 151.38a3.42 3.42 0 0 0-.89.25 1.89 1.89 0 0 0-.5.28 9 9 0 0 0-2.74 1.64 5.15 5.15 0 0 0-1.2 2.07 3.58 3.58 0 0 0-.17 1.18 5.61 5.61 0 0 0-.2 3.2c.83 3.33 4.36 5 7.58 4.36a6.77 6.77 0 0 0 4.53-2.9 7 7 0 0 0 1-3.8v-.27a6 6 0 0 0-.75-2.85 3.45 3.45 0 0 0-.69-1 6.86 6.86 0 0 0-.64-.68 3.82 3.82 0 0 0-2.28-1.69 4 4 0 0 0-1.42-.14 6.84 6.84 0 0 0-1.62.32z"/><path class="cls-4" d="M73 92c0 9.32-.09 18.64-.08 28v7.28c.13.26.25.51.37.77a69 69 0 0 1 3 8.25 15.93 15.93 0 0 1-1.87 12.58 136.35 136.35 0 0 1-.59 28.42 82.52 82.52 0 0 1-2.45 9.61c-.5 1.64-1 3.28-1.39 5a13.68 13.68 0 0 0-.46 4.08 10.89 10.89 0 0 0 .65 3.14 5.18 5.18 0 0 0 2.26 3.08 5.36 5.36 0 0 0 3.54.64 6 6 0 0 0-.73.08c9.4-.24 10-12.17 9.62-19.15q-.49-8.82-.56-17.65c0-6.29.16-12.58.09-18.87 0-3-.12-5.94 0-8.92.16-3.21.32-6.43.46-9.64.57-12.11.92-24.22.91-36.35a6.47 6.47 0 0 0-6.25-6.55 3.25 3.25 0 0 0-.54 0A6.46 6.46 0 0 0 73 92zm1 84.3c0 .16 0 .34-.09.5a4.37 4.37 0 0 1 .09-.5zm2.7 26.42z"/><path class="cls-4" d="M79.83 117.32c-.11 4.07-.13 8.17-.28 12.24q-.26 6.41-.8 12.77c-.35 4-.7 8-1.08 12s-.48 7.71-.6 11.57c-.2 6.67.37 13.42-.52 20.07a33.73 33.73 0 0 1-1.81 5.95 14.57 14.57 0 0 1-1 1.72 8.4 8.4 0 0 1-.76.7c-.31.22-.64.42-1 .62a4.34 4.34 0 0 0 3.15 8 14.63 14.63 0 0 0 3.2-1 12.23 12.23 0 0 0 2.76-1.85 19.21 19.21 0 0 0 2.7-3.06 17.57 17.57 0 0 0 2.78-5.3 17.09 17.09 0 0 0 .71-3.54 21.16 21.16 0 0 0 .16-2.39 48.92 48.92 0 0 0-.34-5.14c-.68-7.22-1.58-14.42-2.53-21.61-.66-6.52-.76-13.13-.86-19.69-.1-7.3-.22-14.6 0-21.91a2 2 0 0 0-1.91-2h-.16a2 2 0 0 0-1.84 1.91zm36.67-4.85c.3 5.84.41 11.7.16 17.54s-.63 11.49-1.09 17.22q-.37 4.56-.81 9.1c-.26 2.61-.65 5.19-1 7.8-.67 5.61-.87 11.28-1.48 16.91-.45 4.1-1.06 8.18-1.69 12.25-.92 5.43-2 10.78-3.17 16.18-.58 2.8-1.19 5.6-1.91 8.38-.82 3.17-1.81 6.45-1.66 9.76a6.39 6.39 0 0 0 2.94 5.43 6.21 6.21 0 0 0 6.26.16 14.8 14.8 0 0 0 2.6-1.92c.78-.82 1.48-1.73 2.18-2.63a17.68 17.68 0 0 0 2-3.52A37.35 37.35 0 0 0 122 220a40.15 40.15 0 0 0 1-4.31 67 67 0 0 0 1-9.8c.08-2.68.09-5.37.12-8.06 0-5.73.07-11.48 0-17.21s-.13-11.23-.52-16.81c-.29-4.21-.63-8.41-.79-12.62s-.28-8.33-.41-12.49c-.26-8.71-.38-17.4-.86-26.1a2.61 2.61 0 0 0-2.48-2.6h-.2a2.55 2.55 0 0 0-2.4 2.48zm-5.9 81l-.15 1 .15-1z"/><path class="cls-4" d="M117.91 105.39a7.4 7.4 0 0 0-4.46 3.25 7.64 7.64 0 0 0-.87 5.63c.23 1.37.44 2.74.62 4.11.42 6.8.45 13.6.57 20.41 0 3.23.26 6.46.4 9.68.16 3.49.21 7 .26 10.5.08 6.68.07 13.36-.12 20.05s-.7 13.2-1.33 19.79c-.51 5.42-1.31 10.79-1.72 16.21-.18 2.37-.33 4.76-.28 7.14 0 1.21.09 2.42.17 3.64.06.66.11 1.34.12 2a5 5 0 0 0-.64 1.34 5.15 5.15 0 0 0 6.16 6.48 13.26 13.26 0 0 0 9.32-10 49.68 49.68 0 0 0 .6-10.76c-.18-6.69-.74-13.38-.9-20.09s-.19-13.69 0-20.55c.18-6.59.59-13.2.85-19.79.12-3.25.18-6.5.45-9.75.31-3.63.67-7.24.87-10.88a103.24 103.24 0 0 0-1.19-23.1c-.61-3.52-4.3-5.74-7.69-5.51a6.59 6.59 0 0 0-1.18.18zm-5.62 121.2c-.06.07-.11.14-.17.2l.17-.2zm-.41.23c0 .1-.09.21-.14.31.05-.11.09-.21.14-.31zm.19 0a.18.18 0 0 0 0 .07l.06-.07zm58.85-111.99c-.35 4.44-.77 8.88-.81 13.34s0 8.63.14 12.93c.25 8.12.08 16.19-.21 24.3s-.71 16.13-1.07 24.19c-.17 4-.36 8-.51 12s-.28 8-.67 11.93c-.26 2.58-.6 5.16-1 7.73-.78 4.47-1.82 8.92-2.23 13.44a39 39 0 0 0-.1 5.51c.06 1.35.21 2.72.15 4.08-.19 4.92 5.22 7.88 9.4 5.7a22.81 22.81 0 0 0 4.06-2.78 17.6 17.6 0 0 0 4.66-7.06 25.63 25.63 0 0 0 1.38-7.32c.16-1.76.17-3.56.2-5.34.18-7.89.52-15.78.56-23.68.12-16.48-.06-33 .42-49.46.18-6.08.91-12.09 1.34-18.14.49-7 .88-14 1.44-20.94.36-4.67-3.89-8.7-8.39-8.79a7.45 7.45 0 0 0-.82 0 8.76 8.76 0 0 0-8 8.36zm46.08-6.61c.07 6.24.06 12.48 0 18.71 0 6 0 12-.15 17.95-.18 5.69-.56 11.4-.81 17.11a163.86 163.86 0 0 1-1.88 17.56c-.49 2.65-1 5.27-1.39 7.93-.33 2.28-.52 4.58-.7 6.88a47.81 47.81 0 0 0 .41 9.1 15 15 0 0 0 1.71 4.62 13.28 13.28 0 0 0 4.31 4.48c4 2.81 10.07 1.1 12.49-2.95a16.62 16.62 0 0 0 2.47-7.65 33.45 33.45 0 0 0-.2-5.48c-.37-4.13-.93-8.24-1.42-12.36-.52-6.11-.41-12.29-.38-18.42s.06-12.42.05-18.63c0-6-.14-12-.16-18-.05-6.84.07-13.69 0-20.52a7.28 7.28 0 0 0-7-7.36h-.62a7.22 7.22 0 0 0-6.74 7zM41.34 158.6c.29.06.59.1.87.14-.29 0-.58-.12-.87-.18zm-2.58 4.4c-.22 9.07-.6 18.09-1.3 27.15a88.63 88.63 0 0 0-.25 11.85 33.34 33.34 0 0 0 .92 6.75c.51 1.94 1.16 4.2 3 5.23a3.51 3.51 0 0 0 4.16-.44 8.73 8.73 0 0 0 2.3-4.54 31.55 31.55 0 0 0 .72-6.71c.15-4 .51-7.92.72-11.88.22-4.34 0-8.74 0-13.1 0-4.67.13-9.36.25-14a5.27 5.27 0 0 0-.82-2.93 15.56 15.56 0 0 1-2.29.11 16.71 16.71 0 0 1-5.77-1.16 5.19 5.19 0 0 0-1.64 3.67zm243.7-.53c.21 3.79.42 7.56.41 11.35 0 3.51-.28 7-.41 10.52s-.21 7-.28 10.57-.09 6.82-.4 10.22c-.27 3 2.57 5.67 5.47 5.74a5.65 5.65 0 0 0 4-1.55 5.42 5.42 0 0 0 1.75-3.92c-.62-6.9-.34-13.87-.42-20.81-.09-7.3-.14-14.59-.55-21.89a5 5 0 0 0-1.31-3.41 4.78 4.78 0 0 0-3.34-1.48H287c-2.33.16-4.67 2.19-4.52 4.66z"/><path class="cls-5" d="M261.56 147.73c0 8.43-.11 16.07-.43 23.36-.07 1.65-.19 3.31-.3 5-.14 2.07-.26 3.93-.35 5.8s-.1 3.48-.06 5.22v.52a30.78 30.78 0 0 1-.05 4.41c-.06.32-.14.66-.22 1l-.11.5a4.45 4.45 0 0 0 .35 3.34 4.32 4.32 0 0 0 3.68 2.23h.39a4.37 4.37 0 0 0 3.91-5.36l-.14-.55c-.16-.66-.32-1.32-.44-2a39.08 39.08 0 0 1 0-4.05v-.41c.07-1.61.09-3.24.1-4.86 0-1.87 0-3.77-.08-5.64s-.08-3.4-.09-5v-23.31a4 4 0 0 0 0-.5l-.84-.15a16.51 16.51 0 0 1-5-.71 3 3 0 0 0-.27 1.22zm-111.72-3.23h.23-.19zm.46 1.43l-1 .12a18.13 18.13 0 0 1-3.72.34h-.22a115.51 115.51 0 0 1 0 23.16c-.44 4.18-.51 8.45-.52 11.3v.86c0 1.58 0 3.13-.13 4.67-.06.9-.16 1.8-.25 2.68l-.07.65-.22 2a12.74 12.74 0 0 0-.09 1.86 4.12 4.12 0 0 0 4 4.2h.38a4.19 4.19 0 0 0 3.81-4 20.09 20.09 0 0 0-.07-3.55l-.05-.74c0-.35-.06-.68-.07-1a47.11 47.11 0 0 1 0-5.46c.18-3.82.46-7.66.73-11.46l.13-1.6v-.65c.1-1.09.19-2.19.22-3.3v-6.19c0-4.66-.13-8.52-.4-12.14 0-.67-.1-1.33-.16-2a16.9 16.9 0 0 1-2.45.3z"/><path class="cls-6" d="M170.23 70.71a30.52 30.52 0 0 0 4.2 13.67c0-.28-.05-.55-.09-.82a9.67 9.67 0 0 0-1.13-4.21 8.93 8.93 0 0 0 1.57-7.44 10.08 10.08 0 0 0-2.16-4.08 16.16 16.16 0 0 0-2.44-2.16 37.2 37.2 0 0 0 0 5z"/><path class="cls-7" d="M107.59 30a10.55 10.55 0 0 0-3 1.31 5.34 5.34 0 0 0-2 1.77 6.07 6.07 0 0 0-1.53 2.17 13.34 13.34 0 0 0-1.36 5.4 2.37 2.37 0 0 0-.56.69 10.21 10.21 0 0 0-1 3.37c-.09.83-.11 1.65-.15 2.53a8 8 0 0 0-1.93.89 11 11 0 0 0-3.07 3 4.14 4.14 0 0 0-.41.66c-1.38.78-2.74 1.73-4.43 2.89l-.76-.68a1.09 1.09 0 0 0-.81-.3 1 1 0 0 0-.6.25 2.4 2.4 0 0 0-.49 1.46l-.46.12a6.59 6.59 0 0 0-6-3.08 6.47 6.47 0 0 0-2.63.74 6.65 6.65 0 0 0-3.11 4.07 6 6 0 0 0 .59 4.67 22.22 22.22 0 0 0 2.66 3.53 19.76 19.76 0 0 0-.69 4.52 2.54 2.54 0 0 1-.26 1 9.33 9.33 0 0 0-1.53 1.46 9.84 9.84 0 0 0-2.36 3.9 9.54 9.54 0 0 0-.33 2.32 5.21 5.21 0 0 0-1.6 1.69l-.3.43-.57-.08h-.82a4.74 4.74 0 0 0-.85 0 3.92 3.92 0 0 0-1.17.24A3.4 3.4 0 0 0 64.34 82a5.71 5.71 0 0 0-1.08 1.67 7.5 7.5 0 0 0-.26 2.38h-.64a5.52 5.52 0 0 0-.8.12 6.23 6.23 0 0 0-3.79 2.35 5.92 5.92 0 0 0-1.29 4.09 7.41 7.41 0 0 0 1.63 4.06c.4 0 .81.08 1.22.1a10.27 10.27 0 0 0 5 6.21 12.42 12.42 0 0 0 3.67 1.28 11.56 11.56 0 0 0 2.81.2c.33 0 .68-.06 1.08-.12a9.88 9.88 0 0 0 2.71-.87 12.67 12.67 0 0 0 2.68-1.64l1-.43.64-.28a6.89 6.89 0 0 0 2.81-2.36 7.35 7.35 0 0 0 1.46-7 3.31 3.31 0 0 0 1.08.31c2 .34 4 .57 6 .74a30 30 0 0 0 4.84 0 36.51 36.51 0 0 0 6.68-1.11 48 48 0 0 0 8.48-3.06 27.78 27.78 0 0 0 4.22-2.15 2.62 2.62 0 0 0 .75.36 7.6 7.6 0 0 0 3.14.59h.41a7.09 7.09 0 0 0 4.21-1.83 18.06 18.06 0 0 0 2.87-3.48l.32-.17a9.09 9.09 0 0 0 3.85.45c.55 0 1.1-.1 1.65-.17a13.93 13.93 0 0 0 4.84-1.74 10 10 0 0 0 3.18-3.24A15.29 15.29 0 0 0 141.5 73a20.77 20.77 0 0 0 .5-2.21l.07-.47a15.49 15.49 0 0 0 .28-3.71l-.08-.55c3.47-.51 7.89-1.57 11.1-4.59a9.09 9.09 0 0 0 1.14-1.33 8.09 8.09 0 0 1-1 1.11 3.89 3.89 0 0 0-.56-2A8.31 8.31 0 0 0 151 57a6.43 6.43 0 0 0-4.43-1.22 13.71 13.71 0 0 0-5.38 1.74 2.65 2.65 0 0 1-.65.27 3.22 3.22 0 0 0-.16-1.32 4.77 4.77 0 0 0-3.38-3.33l-.39-.06a11.83 11.83 0 0 1-1.28-.4l-.33-.27c.21-.22.4-.44.59-.67a7.68 7.68 0 0 1 .59-.55 4.82 4.82 0 0 0 .86-.93 3.82 3.82 0 0 0-.25-4.34 5.45 5.45 0 0 0-.93-6 5.17 5.17 0 0 0-3.63-1.62h-.46a6.09 6.09 0 0 0-3.5 1.59 12.88 12.88 0 0 0-2 1.81 9 9 0 0 0-1.57 2.33 7.05 7.05 0 0 0-2.53-1.48 3.23 3.23 0 0 0-2.22-3.54 6.56 6.56 0 0 0-1.05-.18l-.16-.62a17.59 17.59 0 0 0-1.2-3.32 18.09 18.09 0 0 0-1.79-2.59 9.12 9.12 0 0 0-3.75-2.16l-.72-.13a10.46 10.46 0 0 0-2.58-.25 4.91 4.91 0 0 0-1.15.21z"/><path class="cls-8" d="M107.59 30a10.55 10.55 0 0 0-3 1.31 5.34 5.34 0 0 0-2 1.77 6.07 6.07 0 0 0-1.53 2.17 13.34 13.34 0 0 0-1.36 5.4l-.06.05a11.08 11.08 0 0 0 1.28 5.45 3.9 3.9 0 0 0 .28.49 9.75 9.75 0 0 0-1.84.23 12.53 12.53 0 0 0-1.38.3v.07a8 8 0 0 0-1.93.89 11 11 0 0 0-3.07 3 4.14 4.14 0 0 0-.41.66c-1 .57-2 1.24-3.14 2-.33.26-.66.52-1 .79h-.22l-.1.06-.05-.05h-.33a9.15 9.15 0 0 0-2.27.59v.08l-.46.12a13.84 13.84 0 0 0-2 1.07 15.75 15.75 0 0 0-5.2 5.59 15.24 15.24 0 0 0-1.34 3.22 19.76 19.76 0 0 0-.69 4.52 2.8 2.8 0 0 1-.1.59 1.62 1.62 0 0 1 0 .22l-.12.08a.54.54 0 0 1 0 .11 9.33 9.33 0 0 0-1.53 1.46 9.84 9.84 0 0 0-2.36 3.9 9.54 9.54 0 0 0-.33 2.32 12.48 12.48 0 0 0 .39 2.61A10 10 0 0 0 76.05 87H76a7.47 7.47 0 0 0-.58 1.37c-.57.1-1.13.24-1.67.38A17.92 17.92 0 0 0 68 91.63c-2 1.47-4.37 3.36-5 6a9.57 9.57 0 0 0 .55 7.07 10.87 10.87 0 0 0 5.66 4.94c4.91 1.9 10.33.59 14.81-1.77.24-.12.48-.25.72-.4a3.66 3.66 0 0 0 1.2.14 13.64 13.64 0 0 0 1.45-.08 8.25 8.25 0 0 0 1.75.61 11.16 11.16 0 0 0-.74 1.06 7.24 7.24 0 0 0 .19 7.5l.89 1.2a14.75 14.75 0 0 0 1.66 1.29 7.56 7.56 0 0 0 4.34 1c3.63-.09 6.75-2.47 8.78-5.36.73-.12 1.47-.28 2.2-.47.28.05.55.11.83.18a15.3 15.3 0 0 0 1.92 1.55 7.2 7.2 0 0 0 2.93 1 5.44 5.44 0 0 0 1.35 1.14 6.23 6.23 0 0 0 8.55-2 6.52 6.52 0 0 0 1-3.69 12.47 12.47 0 0 0 2.43-4.15 4.86 4.86 0 0 0 .23-.91 16 16 0 0 0 1.68.19 20.52 20.52 0 0 0 7.75-.91 23.39 23.39 0 0 0 4-1.71 10.5 10.5 0 0 0 1.72-1.11 37.83 37.83 0 0 0 7-2.43 29.66 29.66 0 0 0 3.14-1.57 22.27 22.27 0 0 0 4.24-.18 30.89 30.89 0 0 0 8.2-2.62 28.51 28.51 0 0 0 7.48-5.31 11.18 11.18 0 0 0 3.57-7.52c0-.24-.05-.48-.09-.71a9.91 9.91 0 0 0-1.13-4.2 11.12 11.12 0 0 0-3.93-3.93c-2.73-1.68-6-1.65-9-1.26a27.68 27.68 0 0 0-6 1.55 14.09 14.09 0 0 0-7.83 0c-.36.12-.7.23-1.05.37v-.08a15.47 15.47 0 0 0-1.32-3.88c-.18-.22-.34-.45-.5-.67a9.46 9.46 0 0 0-.79-1.16v-.32a9.14 9.14 0 0 0-1-4.42c-.13-.2-.28-.39-.41-.59a8 8 0 0 0-2.75-2.89 11.89 11.89 0 0 0-5.76-2.2 7 7 0 0 0-.18-2.57 8.08 8.08 0 0 0-5.62-6.35c-.33-.1-.64-.19-1-.26a6.16 6.16 0 0 0 .48-2.21 6 6 0 0 0-1.88-4.53.2.2 0 0 0 0 .08 7.05 7.05 0 0 0-2.53-1.48 5.71 5.71 0 0 0-2.62-.1c0-.36-.09-.71-.13-1-.11-.88-.25-1.72-.44-2.56h-.08l-.16-.62a17.59 17.59 0 0 0-1.2-3.32 18.09 18.09 0 0 0-1.79-2.59 9.12 9.12 0 0 0-3.77-2.27l-.72-.13a10.46 10.46 0 0 0-2.58-.25 4.91 4.91 0 0 0-1.15.21zm6.18 11zm49.54 46.27c.2.08.38.15.56.24-.18-.07-.38-.15-.56-.24zm-89.1 15a1.48 1.48 0 0 1-.14.32c0-.11.09-.21.14-.32z"/><path class="cls-8" d="M72 78.11l-.61.4v.1a5.21 5.21 0 0 0-1.6 1.69l-.3.43-.57-.08h-.82a4.74 4.74 0 0 0-.85 0 3.92 3.92 0 0 0-1.17.24 3.4 3.4 0 0 0-1.72 1.06 5.71 5.71 0 0 0-1.08 1.67 7.5 7.5 0 0 0-.28 2.43h-.64a5.52 5.52 0 0 0-.8.12 6.23 6.23 0 0 0-3.79 2.35 5.92 5.92 0 0 0-1.29 4.09 7.41 7.41 0 0 0 1.32 3.65 6.11 6.11 0 0 0 3.4 2.12 8.19 8.19 0 0 0 5.18-.64 5.39 5.39 0 0 0 .62 2.51 3.4 3.4 0 0 0 4.62 1.33 5.56 5.56 0 0 0 1.64-1.41A6.82 6.82 0 0 0 73.9 99a7.26 7.26 0 0 0 .49-1.19 21.06 21.06 0 0 1 2.19-2l.25-.16.33-.08a10.53 10.53 0 0 1 1.59.1 60 60 0 0 1 9.3 2.53A3.35 3.35 0 1 0 90 91.78 83.8 83.8 0 0 0 80.16 89h-.09a8.57 8.57 0 0 0 .59-1 28.75 28.75 0 0 0 2.27-2 5 5 0 0 0 .17-7 4.88 4.88 0 0 0-5.73-1 8 8 0 0 0-2.54-.58 1.87 1.87 0 0 0-.41 0 6.25 6.25 0 0 0-2.41.7zm2.26 6.53a1.5 1.5 0 0 1-.19.25l.2-.25zm-11.7 7.14l.28.11-.28-.11zm.83.07a.7.7 0 0 1 0 .12.42.42 0 0 1 0-.12zm.23.72zm-.23.51v.19-.19zm13 2.87c-.1.08-.2.14-.29.22.09-.08.19-.14.29-.22zm.04-42.81a6.65 6.65 0 0 0-3.11 4.07 6 6 0 0 0 .59 4.67 22.22 22.22 0 0 0 2.66 3.53 9 9 0 0 0 1.61 1.3 13.72 13.72 0 0 0 5 2 22.74 22.74 0 0 0 3 .34 22.18 22.18 0 0 0 3.43-.3 10.1 10.1 0 0 0 5-2.49 5.4 5.4 0 0 0 1-6.53 5.29 5.29 0 0 0-5.35-2.71 6.46 6.46 0 0 1-1.14-.02c-.66-.12-1.32-.24-2-.34l1 .16a14.87 14.87 0 0 1-2.4-.64l-.15-.08c-.09-.1-.17-.18-.25-.28a1.4 1.4 0 0 0-.12-.18l-.1-.17h-.07a6.59 6.59 0 0 0-6-3.08 6.47 6.47 0 0 0-2.63.74zm10 3.4l.66.1-.66-.1zm2.78.65z"/><path class="cls-8" d="M86 53.9a1.47 1.47 0 0 0-.39.81 1.06 1.06 0 0 0 .3.66c1 1 2 2 3.06 2.93a1 1 0 0 0 1.46 0 1.05 1.05 0 0 0 0-1.48l-2.23-2.21-.08.05-.73-.66a1.09 1.09 0 0 0-.81-.3 1 1 0 0 0-.6.25zm15.23-14.17a3.77 3.77 0 0 0-1.51.78v.11a2.37 2.37 0 0 0-.56.69 10.21 10.21 0 0 0-1 3.37c-.09.83-.11 1.65-.15 2.53v1.19a3.4 3.4 0 0 0 6.79.16c0-1 .06-2 .16-3.08a7.57 7.57 0 0 1 .33-1 3.39 3.39 0 0 0 .2-2.21 3.48 3.48 0 0 0-1.56-2.13 3.57 3.57 0 0 0-2.09-.5 4.51 4.51 0 0 0-.6.08zm14.63 1.47a20.15 20.15 0 0 0-.67 4.24 7.27 7.27 0 0 0 1.27 4.34 3 3 0 0 0 3.3 1.45 3 3 0 0 0 1.79-1.32 2.82 2.82 0 0 0 .35-2.26c-.11-.33-.22-.63-.3-.94a12.1 12.1 0 0 1 .14-1.91c.12-.58.26-1.15.4-1.71a3.4 3.4 0 0 0 .08-.46h-.07a3.23 3.23 0 0 0-2.22-3.54 6.56 6.56 0 0 0-1.05-.18h-.06a3.21 3.21 0 0 0-3 2.32zm12.37-1.2a12.88 12.88 0 0 0-2 1.81 9.1 9.1 0 0 0-1.44 2.06 3.58 3.58 0 0 0-.25 1.56 7.82 7.82 0 0 0 .69 3.44 6.79 6.79 0 0 0 .91 1.25 6.31 6.31 0 0 0-.86 4.66 8.81 8.81 0 0 0 4.66 6.3c.3.17.59.33.89.47.06.17.11.34.17.5a9.81 9.81 0 0 0 7 5.86c1.33 2.67 4 4.18 6.68 5.34a9.72 9.72 0 0 0 .56 1.38 16 16 0 0 0 5 5.64c.11.37.24.74.36 1.08 0 .06 0 .1.07.15a5 5 0 0 0-.48.44 11.21 11.21 0 0 0-2.63 4.16 41.08 41.08 0 0 0-4.35 1.74 34.61 34.61 0 0 0-6.08 3.95l-.3.23h-.08l-.22.16-.33.25a11.23 11.23 0 0 0-2.83 2.92 7.07 7.07 0 0 0 1.27 8.65 6.58 6.58 0 0 0 4.45 2 6.39 6.39 0 0 0 6.37-5 27.85 27.85 0 0 1 4.6-2.6c.41-.13.83-.25 1.23-.35a8.52 8.52 0 0 0 5.06 1.89 7.26 7.26 0 0 0 6.21-3.19 7.78 7.78 0 0 0 1.2-4 8.17 8.17 0 0 0 2.73.24 8.31 8.31 0 0 0 5.59-2.16 7.77 7.77 0 0 0 2.41-5.46v-.63l-.1-.14a7.76 7.76 0 0 0-.09-1 5.65 5.65 0 0 0 0-.59 8.12 8.12 0 0 0-.74-1.91 8.63 8.63 0 0 0-.75-1.11 4.54 4.54 0 0 0 .45-.51v-.08a8.92 8.92 0 0 0 1.56-7.45 10.06 10.06 0 0 0-2.15-4.08 17 17 0 0 0-2.52-2.21 10.36 10.36 0 0 0-3-1.29 12.68 12.68 0 0 0-5.55-.14 15.23 15.23 0 0 0-2.67.76 5.51 5.51 0 0 0-1-1.35 7.79 7.79 0 0 0-3.13-2 5.83 5.83 0 0 0-1.1-.2v-.17l-.08.07a3.89 3.89 0 0 0-.56-2A8.31 8.31 0 0 0 151 57a6.43 6.43 0 0 0-4.43-1.22 13.71 13.71 0 0 0-5.38 1.74 3 3 0 0 1-.5.23h-.15a3.22 3.22 0 0 0-.16-1.32 4.77 4.77 0 0 0-3.38-3.29l-.39-.06a11.83 11.83 0 0 1-1.28-.4l-.26-.21-.07-.05c.21-.22.4-.44.59-.67a7.68 7.68 0 0 1 .59-.55 4.82 4.82 0 0 0 .86-.93 3.82 3.82 0 0 0-.25-4.34 5.45 5.45 0 0 0-.93-6 5.17 5.17 0 0 0-3.63-1.62h-.46a6.09 6.09 0 0 0-3.5 1.59zm5.67 11.58a1.38 1.38 0 0 1-.06-.16.77.77 0 0 1 .07.17zm20.27 45.91h-.19.19zm-7.73 2.73c-.19.16-.4.31-.61.47.21-.16.42-.31.61-.47z"/><path class="cls-9" d="M219.67.09a18.87 18.87 0 0 0-2.81.43 23.55 23.55 0 0 0-5.13 2A26.31 26.31 0 0 0 207.81 5a16.48 16.48 0 0 0-3.45 3.78 13.63 13.63 0 0 0-1.46 2.87h-.89a10.45 10.45 0 0 0-2.33 1c-2.13 1.31-3 3.7-3.78 5.81a32.44 32.44 0 0 0-1.83 8.86 50.41 50.41 0 0 0 .16 7.88 12.37 12.37 0 0 0-4.08 1.2 22.75 22.75 0 0 0-4.46 2.88 20.56 20.56 0 0 0-3.61 4 17.51 17.51 0 0 0-2.23 4.14 20.58 20.58 0 0 0-1.23 4.95 10.45 10.45 0 0 0 0 2.37 10.6 10.6 0 0 0-3.2.95 8.17 8.17 0 0 0-3.15 2.67 9.75 9.75 0 0 0-1.93 4.93c-.1.72-.18 1.46-.24 2.21a17.52 17.52 0 0 1 2.51 2.21 10.24 10.24 0 0 1 2.17 4.1 9 9 0 0 1-1.58 7.44 9.92 9.92 0 0 1 1.14 4.2 7.77 7.77 0 0 1 .09 1 22.61 22.61 0 0 0 1.64 2.34 21.88 21.88 0 0 0 6.6 5.51 32.91 32.91 0 0 0 8 2.93 82.1 82.1 0 0 0 10.83 1.62c1.45.14 2.89.17 4.32.21h1.52c2.13 0 4.32 0 6.71-.17l1.84-.14a10.06 10.06 0 0 0 2.6 2.25l.06.61.45 1.12.42 1.08a11 11 0 0 0 1.34 2 12.26 12.26 0 0 0 7.41 4.26 16.88 16.88 0 0 0 4.22.34c.25 0 .5 0 .75-.07a3.37 3.37 0 0 0 .71.91 14.75 14.75 0 0 0 1.33 1.14l.75.57.39.31.38.3a20 20 0 0 0 3.5 2.4 11.61 11.61 0 0 0 5.69 1.37 12.69 12.69 0 0 0 5.5-1.78 17.36 17.36 0 0 0 2-1.43l.76-.62a15.12 15.12 0 0 0 4.14-1.18 25.07 25.07 0 0 0 3.89-2.53 17.88 17.88 0 0 0 3.49-3.95 8.5 8.5 0 0 0 1.26.54c1.8.63 3.74 1.21 6.31 1.88a23.86 23.86 0 0 0 7.61.78 20.79 20.79 0 0 0 3.11-.44 15.88 15.88 0 0 0 6.74-3.8 13.48 13.48 0 0 0 4.41 1.2 6.24 6.24 0 0 0 1.06 0 12 12 0 0 0 3.13-.72 21.7 21.7 0 0 0 3.65-1.65 16.5 16.5 0 0 0 8.3-15.2 15 15 0 0 0-3.44-8.23 12.47 12.47 0 0 0-3.19-2.59 13.26 13.26 0 0 0-4.07-1.43 19.3 19.3 0 0 0-5.31-.32 40 40 0 0 0-4.19.53 32.47 32.47 0 0 0-4.47 1.14l-.08-.69a18.47 18.47 0 0 0-3.61-6.71 10.31 10.31 0 0 0-6.59-3.24 12.61 12.61 0 0 0-2-.1 17.86 17.86 0 0 0-1-7.9c-.72-2-2.49-5.51-6.19-6.82-.33-.11-.64-.2-1-.29a21.64 21.64 0 0 0-.68-7.61 11.15 11.15 0 0 0-3.53-5.78 7.29 7.29 0 0 0-3.47-1.72l-.07-.59a18.63 18.63 0 0 0-.56-2.26l-.1-.36a21.19 21.19 0 0 0-2.56-5.85 11.36 11.36 0 0 0-9.51-5.06 8.55 8.55 0 0 0-.88 0 16.42 16.42 0 0 0-3.87.85 14.69 14.69 0 0 0-1.12-4.41 22.12 22.12 0 0 0-5.3-8.13 11.16 11.16 0 0 0-4.62-2.76 7.18 7.18 0 0 0-3-4 11 11 0 0 0-4-1.73 10.51 10.51 0 0 0-3.24-.25zM57.23 3.8A6.37 6.37 0 0 0 54 4.88a11.39 11.39 0 0 0-3.19 3.36 2.17 2.17 0 0 0-1-.31 8.67 8.67 0 0 0-1.44 0 11.17 11.17 0 0 0-3 .67 14.81 14.81 0 0 0-4.64 2.52 12.75 12.75 0 0 0-4.65 8 20.87 20.87 0 0 0-.08 4.01V24a7.45 7.45 0 0 0-3.73 4.24 11 11 0 0 0-.8 4.14 11.21 11.21 0 0 0 1.24 4.72 17.2 17.2 0 0 0 2.46 3.47 20.73 20.73 0 0 0 3.65 3.15 9.28 9.28 0 0 0 1.47.89c-.19 0-.32.29-.42.53a9.85 9.85 0 0 0-2-.06 18.52 18.52 0 0 0-3.69.66 17.65 17.65 0 0 0-10.46 7.56 14.93 14.93 0 0 0-1.89 6.29 12.79 12.79 0 0 0 1.28 6.47 7.27 7.27 0 0 0 .56 1c-2.69 2.54-3.86 7-3 11.38a10.06 10.06 0 0 0 3.75 5.62A17.54 17.54 0 0 0 30.27 87a17.25 17.25 0 0 0 4.32.86 2.42 2.42 0 0 0 .53.83 11.94 11.94 0 0 0 6.56 3.87 13.26 13.26 0 0 0 3.71.24c.29 0 .61 0 .92-.08a7.85 7.85 0 0 0 1.82-.43 15.91 15.91 0 0 0 6.8 3.88 18.11 18.11 0 0 0 3.19.62 7.44 7.44 0 0 1-1.7-4.14 5.88 5.88 0 0 1 1.3-4.09 6.26 6.26 0 0 1 3.8-2.36 5.18 5.18 0 0 1 .79-.11 3.3 3.3 0 0 1 .63 0 7.18 7.18 0 0 1 .36-2.52 5.61 5.61 0 0 1 1.06-1.66 3.28 3.28 0 0 1 1.73-1.07 4.33 4.33 0 0 1 1.17-.25 4.6 4.6 0 0 1 .86 0h.4l.42.06.56.08.3-.44a5.32 5.32 0 0 1 1.6-1.69 8.65 8.65 0 0 1 .33-2.32 10.25 10.25 0 0 1 2.35-3.9 10 10 0 0 1 1.55-1.46 2.2 2.2 0 0 0 .24-1 20.29 20.29 0 0 1 .71-4.52 21.32 21.32 0 0 1-2.66-3.54 6 6 0 0 1-.59-4.66 6.61 6.61 0 0 1 3.1-4.06 6.5 6.5 0 0 1 2.62-.76 6.61 6.61 0 0 1 6 3.09l.47-.12A2.36 2.36 0 0 1 86 53.9a.89.89 0 0 1 .6-.25 1.05 1.05 0 0 1 .81.3l.76.75c1.69-1.16 3-2.11 4.43-2.89a4.14 4.14 0 0 1 .41-.66 11.12 11.12 0 0 1 3.07-3 7.07 7.07 0 0 1 1.92-.93c0-.89.06-1.7.16-2.53a9.63 9.63 0 0 1 1-3.37 2.14 2.14 0 0 1 .56-.7 13.3 13.3 0 0 1 1.36-5.39 6 6 0 0 1 1.53-2.18 5.25 5.25 0 0 1 2-1.77 10.49 10.49 0 0 1 3-1.31 5.75 5.75 0 0 1 1.16-.22 10 10 0 0 1 2.58.27l.73.12a9 9 0 0 1 3.67 2.23 17 17 0 0 1 1.76 2.63 18 18 0 0 1 1.22 3.33l.16.62a4.8 4.8 0 0 1 1 .18 3.22 3.22 0 0 1 2.23 3.52 7.1 7.1 0 0 1 2.52 1.49 9.21 9.21 0 0 1 1.56-2.33 13.06 13.06 0 0 1 2-1.81 6 6 0 0 1 3.49-1.6 3.23 3.23 0 0 1 .44 0 5.21 5.21 0 0 1 3.69 1.6 5.43 5.43 0 0 1 .93 6 3.8 3.8 0 0 1 .25 4.34 4.61 4.61 0 0 1-.86.94 7.54 7.54 0 0 0-.59.55c-.19.24-.38.45-.58.67l.33.27a7.93 7.93 0 0 0 1.28.4l.38.07a4.7 4.7 0 0 1 3.38 3.31 2.94 2.94 0 0 1 .18 1.32 2.24 2.24 0 0 0 .64-.28 13.67 13.67 0 0 1 5.38-1.73A6.46 6.46 0 0 1 151 57a8 8 0 0 1 2 2.18 3.85 3.85 0 0 1 .57 2c1.88-1.74 2.86-4.38 3.51-6.49a20.08 20.08 0 0 0 .51-9 20.31 20.31 0 0 0-1.07-3.69 33.73 33.73 0 0 0-1.88-4.27 20 20 0 0 0-5.41-6.33 8.05 8.05 0 0 0-3.36-1.7 4.86 4.86 0 0 0-1.44-.13 3.49 3.49 0 0 0-.44.05l-.43.09a9.71 9.71 0 0 0-1.31-2.91c-1.66-2.61-4.07-4.55-6.82-6.64a24.86 24.86 0 0 0-5.33-3.12 5.71 5.71 0 0 0-2.46-.35 5.94 5.94 0 0 0-2.09.51 5.6 5.6 0 0 0-1.55.91 10.61 10.61 0 0 0-3.69-.29l-.63.06a22.66 22.66 0 0 0-7.21 2 13.28 13.28 0 0 0-5.66 4.73 13.43 13.43 0 0 0-5.68-1.58 7 7 0 0 0-1.13 0 9.45 9.45 0 0 0-4.71 1.7c-.44.34-.67.53-.91.73 0-.2-.22-.45-.46-.69a20.05 20.05 0 0 0-2.14-1.74C92 20.36 90.3 18 88.63 16a21.65 21.65 0 0 0-3-2.74 11.77 11.77 0 0 0-3.48-1.76 15.92 15.92 0 0 0-3.2-.73l-.79-.12a18.85 18.85 0 0 0-3.8-.1 17.22 17.22 0 0 0-4.27.86l-.38-.41c-.21-.26-.44-.52-.68-.77a27.46 27.46 0 0 0-5.13-4.35 11.24 11.24 0 0 0-6.67-2.08zM71 19.5a1.14 1.14 0 0 0 .52-.16 12.78 12.78 0 0 1 2.14-.61 16.48 16.48 0 0 1 2.62.09 2.5 2.5 0 0 1 .53.11h-.69a11.42 11.42 0 0 0-1.4 1c-.45-.08-.92-.15-1.39-.21a23.16 23.16 0 0 0-2.38-.18z"/><path class="cls-7" d="M284 141.84a8.46 8.46 0 0 0-2.31 2.77c-.08.16-.16.32-.23.48a10 10 0 0 0-3 2.54 7.61 7.61 0 0 0-1.17 2.35 6.55 6.55 0 0 0 0 3.08 4.08 4.08 0 0 0 .66 1.52 5.56 5.56 0 0 0-.44 1.6c-2.43-1.05-5.1-.35-7.44.72a6.62 6.62 0 0 0-2.92 2.39 5.71 5.71 0 0 0-.61 4.28 5.38 5.38 0 0 0 2.44 3.24 9.55 9.55 0 0 0 4.84 1.2 14.32 14.32 0 0 0 4.89-1 9 9 0 0 0 4.51.45 11.74 11.74 0 0 0 2.13-.48 10 10 0 0 0 6.77-.2A9.84 9.84 0 0 0 299 168a13.74 13.74 0 0 0 5-1.88 9.09 9.09 0 0 0 5.51-8 7.91 7.91 0 0 0-1-3.81 8.34 8.34 0 0 0-2.71-2.83 13.65 13.65 0 0 0-2.89-1.37 11.7 11.7 0 0 0-2-.42 17.23 17.23 0 0 0-3.12-.35c-.29 0-.57 0-.86.05a21.14 21.14 0 0 0-1.56-3.43 21.71 21.71 0 0 0-2.51-3.45 6.16 6.16 0 0 0-4.23-2.13 6 6 0 0 0-.74 0 7 7 0 0 0-3.83 1.47zm4.17 10.7a4.73 4.73 0 0 0 1.06-1 18.88 18.88 0 0 1 .65 2.77v.65h-.07c-.14-.22-.3-.44-.47-.67a13 13 0 0 0-1.43-1.62l.21-.13zm9.4 4.36zm-25.29 2.75l.53.24a5.05 5.05 0 0 1-.53-.24z"/><path class="cls-7" d="M283.62 149.27a5.1 5.1 0 0 0-.17 7.12c.11.13.22.27.34.4a8.2 8.2 0 0 0 .7 1.43 11.5 11.5 0 0 0 1.71 2.13 12 12 0 0 0 .81 1.5 12.89 12.89 0 0 0 3.51 3.66 19.91 19.91 0 0 0 3.91 2 11 11 0 0 0 2.12.55 12.2 12.2 0 0 0 5.21.17 8.54 8.54 0 0 0 4.4-.4 9.32 9.32 0 0 0 3.32-1.83 7.88 7.88 0 0 0 2.27-3.35 6.65 6.65 0 0 0-1.49-6.86 6.35 6.35 0 0 0-4.43-2l-1.68.19a6.44 6.44 0 0 0-2 .89h-.22a11.47 11.47 0 0 0-2.16.26h-.06q-.06-.39-.15-.78a5.12 5.12 0 0 0-.63-1.86 7.31 7.31 0 0 0-2.5-2.68 22.14 22.14 0 0 0-2.44-1.09 11.87 11.87 0 0 0-3.25-.52 11.39 11.39 0 0 0-1.75 0 5.07 5.07 0 0 0-2.15-.31 5.19 5.19 0 0 0-3.22 1.37z"/><path class="cls-10" d="M164.4 0a8.11 8.11 0 0 0-1.4.23 9.86 9.86 0 0 0-5.79 4.27 12.36 12.36 0 0 0-2.08 6v1.55A19.68 19.68 0 0 0 153 16a12.06 12.06 0 0 0-.73 7.48 14.58 14.58 0 0 0-2.87 4.94 1.26 1.26 0 0 0-.68-.7 3.4 3.4 0 0 0-1.65-.51 1.15 1.15 0 0 0-.16-.51 3.37 3.37 0 0 0-3.3-1.7 2.9 2.9 0 0 0-1.28.38 4 4 0 0 0-1.6 1.62 4.3 4.3 0 0 0-1.46-.32 10.58 10.58 0 0 0-1.13 0 7.84 7.84 0 0 0-3 .8 5.34 5.34 0 0 0-1.19-.95l-1.87-.85a4.87 4.87 0 0 0-1.08-.29 11 11 0 0 0-2.9-.22c-.4 0-.79.07-1.21.14a9 9 0 0 0-2.44.78 13.91 13.91 0 0 0-2.7 1.79 7.89 7.89 0 0 0-.58.58 5.75 5.75 0 0 0-1.54 2 10.36 10.36 0 0 0-1.09 2.12 6.21 6.21 0 0 0-.47 2.19v.5a7 7 0 0 0 .58 3.2 10.2 10.2 0 0 0 .78 1.8 16 16 0 0 0 1 1.43c0 .27-.07.54-.12.82a5.09 5.09 0 0 0 1.92 4.76 4.05 4.05 0 0 0-.87 1.38 2 2 0 0 0-.15.55 5.5 5.5 0 0 0-.36.82 11.22 11.22 0 0 0-.61 3.65c-.15.42-.29.81-.41 1.2a5.87 5.87 0 0 0-.26 2.43 10.82 10.82 0 0 0 .15 1.26 4 4 0 0 0-1.28-.83 10.29 10.29 0 0 0-3.83-.83h-.44a5.82 5.82 0 0 0-2.88 1 7.77 7.77 0 0 0-5.93 3.2l-.35.56a7.79 7.79 0 0 0-3.53 2.22h-.87a5.77 5.77 0 0 0-2.53.64 13.27 13.27 0 0 0-1.57 1.13 6.82 6.82 0 0 0-1 1.18 8.47 8.47 0 0 0-1.46 4 9.42 9.42 0 0 0 .05 2.11 8.08 8.08 0 0 0 .38 1.66A8.06 8.06 0 0 0 94 77a5 5 0 0 0 .5 2.24 6.33 6.33 0 0 0 1.56 2.17 7.82 7.82 0 0 0 5.63 2l.57.21a14.26 14.26 0 0 0 2.29.93 15.26 15.26 0 0 0 3.61.62 4.33 4.33 0 0 0 .72 0 6.5 6.5 0 0 0 .9-.13 6.46 6.46 0 0 0 1.9 1.17 7.38 7.38 0 0 0 2.41.48 4.25 4.25 0 0 0 .5 0l.71-.08a7.85 7.85 0 0 0 1.08 1.39 9.47 9.47 0 0 0 2.12 1.56 3.41 3.41 0 0 0-1.1 1.39 4.6 4.6 0 0 0-1.07 0 8.14 8.14 0 0 0-5.2 2.18 5.86 5.86 0 0 0-1.73 4.25 5.45 5.45 0 0 0 3.77 5.07 6.08 6.08 0 0 0 2.25.28 9.2 9.2 0 0 0 3.27-.94 4 4 0 0 0 2-2c0 .07.21.1.44.11a3.87 3.87 0 0 0 2.78-1.22h.19a11.74 11.74 0 0 0 2.5-.41 15 15 0 0 0 2.25-.82 3.71 3.71 0 0 0 1.25 1 14.77 14.77 0 0 0 2.65 1.09 8.45 8.45 0 0 0 2.68.22l.76-.07a7.59 7.59 0 0 0 .77 2.47 8.18 8.18 0 0 0-.1 4.4 16.94 16.94 0 0 0 .89 2.47 20.93 20.93 0 0 0 1.84 2.72 13.44 13.44 0 0 0 4.37 3.37 25.75 25.75 0 0 0 5.26 2.1 23.29 23.29 0 0 0 3.21.61l.5.08a10.92 10.92 0 0 0 3 2.91 7.76 7.76 0 0 0 1.92.83 7 7 0 0 0 4 1.73 12.63 12.63 0 0 0 2.54.08 9.39 9.39 0 0 0 6.9-3.23 8.61 8.61 0 0 0 1.24 0 29.57 29.57 0 0 0 4.93-.83 19.4 19.4 0 0 0 3.71-1.37 17.55 17.55 0 0 0 5.16.68l1.29-.06c.64 0 1.29-.11 1.93-.2a19.31 19.31 0 0 0 10.18 3.37 18.72 18.72 0 0 0 2.48 0c1.21-.08 2.42-.24 3.52-.42a30.61 30.61 0 0 0 7.53-2.45 12.19 12.19 0 0 0 2.37-1.63l.69-.56a12.79 12.79 0 0 0 2.45-2.84 20.26 20.26 0 0 0 1.57-3.32 10.57 10.57 0 0 0 .61-4.65 3.92 3.92 0 0 0 1.83-.76 7.26 7.26 0 0 0 2.39-2.58 6.93 6.93 0 0 0 2.26.22c.28 0 .57-.06.87-.11a6.33 6.33 0 0 0 4.18-2.7 6.8 6.8 0 0 0-1.2-8.72l-.3-.26a1.15 1.15 0 0 0 .52.14h.78a9.35 9.35 0 0 0 3.45-1 10.58 10.58 0 0 0 1.86-1.25l.59-.44a14.11 14.11 0 0 0 4.58-8 5.37 5.37 0 0 0 2.62.68 5.06 5.06 0 0 0 .55 0 7 7 0 0 0 4.07-1.83l.55-.1a17.68 17.68 0 0 0 5-2 14.13 14.13 0 0 0 4.54-4.42 11.44 11.44 0 0 0 1.3-3.08 9.24 9.24 0 0 0 .17-4.29 8.2 8.2 0 0 0-5.6-6.33 8.76 8.76 0 0 0-2.49-.33 12.57 12.57 0 0 0-4.91-6.52 13.5 13.5 0 0 0-8.1-2.12c-.4 0-.81.07-1.2.13a9.1 9.1 0 0 0-3.22-1.93 15.47 15.47 0 0 0-5.82-1.12 3.37 3.37 0 0 0-.55 0 13.56 13.56 0 0 0-2.63.48 9.11 9.11 0 0 0-3.04 1.72 24.44 24.44 0 0 0-2.6 2.14c-.27.29-.55.58-.79.88a3.65 3.65 0 0 0-.88 0 15.45 15.45 0 0 0-1.81.25 2 2 0 0 0 .11-.94 11.54 11.54 0 0 0 .6-1.16 8.38 8.38 0 0 0 .54-2.24l.08-.57c0-.49-.07-.94-.13-1.41a4.93 4.93 0 0 0-.64-2.25l-.25-.42-.26-.42a5.13 5.13 0 0 0-1.82-1.91 10.92 10.92 0 0 0-1.85-1.25 9.71 9.71 0 0 0-1.49-.71l.25-.43.22-.55a10 10 0 0 0 .58-3v-.4a12.15 12.15 0 0 0-1.21-6.04 7.05 7.05 0 0 0-1.09-1.6l-.38-.46a8 8 0 0 0-2.52-1.94 10.08 10.08 0 0 0-5.55-1.15c-.24 0-.46 0-.69.07a10.14 10.14 0 0 0-1.06-1.33 9.15 9.15 0 0 0-3.92-2.46l-.68-.94c-.56-.49-1.12-.93-1.69-1.38a8 8 0 0 0-3.71-1.16h-.54c-1-.53-1.95-1-2.83-1.34a8.85 8.85 0 0 0-2.32-.69 12.81 12.81 0 0 0-3-.19c-.28 0-.58 0-.9.08a8.71 8.71 0 0 0-1.7.36 7.18 7.18 0 0 0 .31-2.63A10.23 10.23 0 0 0 174.57 3a7.54 7.54 0 0 0-3.63-.64A8.66 8.66 0 0 0 164.4 0z"/><path class="cls-11" d="M197.45 35.38a2.78 2.78 0 0 0-1.74 1.28 2.86 2.86 0 0 0 .94 4 2.93 2.93 0 0 0 2 .36h.16a8.18 8.18 0 0 1 .69.45c.17.17.33.34.48.52a10.33 10.33 0 0 1 .7 1.27 7 7 0 0 0 .88 1.33 5.08 5.08 0 0 1 .42.76 8.45 8.45 0 0 1 .19.84 3.68 3.68 0 0 0 .06.66 2 2 0 0 0 .45.88 2.18 2.18 0 0 0 1.27.54 13.81 13.81 0 0 1 1.65.43 4.45 4.45 0 0 1 .51.33 8.56 8.56 0 0 1 1 1.08 10.83 10.83 0 0 1 .69 1.19 13.12 13.12 0 0 1 .58 2.4 4.08 4.08 0 0 0 .09.69c.05.19.12.36.16.54a1.26 1.26 0 0 0 .87.9 1.28 1.28 0 0 0 1.42-.54 3.57 3.57 0 0 0 .72-1.46 7.73 7.73 0 0 0 .21-1.52c0-.35 0-.7-.1-1.05l-.13-.6c-.12-.36-.26-.72-.4-1.07a9.6 9.6 0 0 0-3.24-3.4 5.13 5.13 0 0 0-2.18-.73 5.79 5.79 0 0 0-.72 0 2.81 2.81 0 0 0 0-.29 6.44 6.44 0 0 0-.61-2.39 4.14 4.14 0 0 0 .32-1.44 6.56 6.56 0 0 0-.17-1.65 4.87 4.87 0 0 0-1-1.84 4.94 4.94 0 0 0-.95-1 6.72 6.72 0 0 0-1.7-1 4.94 4.94 0 0 0-1.8-.5h-.71c-.23 0-.72.07-1.08.12zm1.11 5.6h-.25.25zm.37.05a3.82 3.82 0 0 1 .46.21l-.46-.21zm3.27 5.2v.14a.59.59 0 0 1 0-.14zm41.95-17.8a1.83 1.83 0 0 0 1.79 1.86c.48 0 1 0 1.45.06l.12.13c.41.6.78 1.24 1.19 1.84a5.94 5.94 0 0 0 .67.83 2 2 0 0 0 .54.36 3.06 3.06 0 0 1 .61.4 8 8 0 0 1 .73.81 10.51 10.51 0 0 1 .76 1.4 2.75 2.75 0 0 1 .1.34 2.35 2.35 0 0 1 0 .26L252 37a1.48 1.48 0 0 0 1 1.83 1.44 1.44 0 0 0 1.15-.12 1.39 1.39 0 0 0 .75-1.25l-.06-.61c-.08-.3-.17-.57-.27-.87a14.18 14.18 0 0 0-.8-1.61 8.77 8.77 0 0 0-1-1.41 5.21 5.21 0 0 0-.85-.78c-.22-.16-.45-.3-.68-.44a6.27 6.27 0 0 0-.6-2.76c-.07-.16-.16-.31-.23-.47l-.57-.75-.37-.28a1.8 1.8 0 0 0-.79-.51 9.69 9.69 0 0 0-2.68-.27h-.16a1.83 1.83 0 0 0-1.71 1.78zm7 6.21v.06-.06zm.07.1v.07-.07zm.82 1.44a.31.31 0 0 0 0 .1.34.34 0 0 1 0-.1zM269 123.91a1.88 1.88 0 0 0-1.09.79 1.76 1.76 0 0 0-.2 1.36 1.94 1.94 0 0 0 .79 1.09l.66.51a5.19 5.19 0 0 0 1.32.64 6.86 6.86 0 0 0 1.6.36l.88.12a8.76 8.76 0 0 1 1.51.37l-.35-.15a3.7 3.7 0 0 1 .84.43 5.44 5.44 0 0 1 .49.47 1.62 1.62 0 0 1 .1.18 1.92 1.92 0 0 0 .69 1.17 2.52 2.52 0 0 0 .4.21 2.65 2.65 0 0 0 .5 0h1a4.68 4.68 0 0 1 .64 0h-.12.15l.55.14a5.25 5.25 0 0 1 .8.47 4.1 4.1 0 0 1 .62.71l-.16-.21a5.57 5.57 0 0 1 .41.76 5.49 5.49 0 0 1 .26 1.08 1.12 1.12 0 0 0 1.35.82 1.15 1.15 0 0 0 .82-1.36 7 7 0 0 0-.46-1.4 4.79 4.79 0 0 0-1.67-2 5.3 5.3 0 0 0-2.13-.83 5.8 5.8 0 0 0-1-.11h-.83c-.06-.17-.13-.34-.19-.5a4.79 4.79 0 0 0-.28-.86 3.31 3.31 0 0 0-.38-.75 4.65 4.65 0 0 0-1.47-1.39 6.27 6.27 0 0 0-.74-.35 4.2 4.2 0 0 0-.79-.29 9.17 9.17 0 0 0-1-.26 8.74 8.74 0 0 1-1.13-.36 9.19 9.19 0 0 1-1.05-.75 1.61 1.61 0 0 0-1-.26h-.33zm6 5.53a.88.88 0 0 1 .17.12l-.17-.12zm3.86 2.06zm10.36 16.5a1 1 0 0 0 .34 1.41 12.85 12.85 0 0 0 1.61 1c.38.2.79.36 1.18.52a18.31 18.31 0 0 0 2 .6 1 1 0 0 0 1.11-.43 1 1 0 0 0 .13-.75.93.93 0 0 0-.44-.6 13.48 13.48 0 0 0-1.48-.6c-.5-.16-1-.34-1.48-.54a13 13 0 0 1-1.6-1 .91.91 0 0 0-.59-.16 1.06 1.06 0 0 0-.82.48zm-81.72-47.93a2.07 2.07 0 0 0-.91 1.11c-.25.6-.45 1.2-.67 1.8l-.06.13-.06.06a3.05 3.05 0 0 1-.61.27l.36-.14a5.84 5.84 0 0 1-.83.18 12.64 12.64 0 0 1-1.63 0 12.77 12.77 0 0 0-2.14-.37 5 5 0 0 0-1.39.19l-.75.18c-1.48.36-2.94.79-4.42 1a11.14 11.14 0 0 1-1.53 0h-.14l-.27-.16a3.25 3.25 0 1 0-3.45 5.48 10.17 10.17 0 0 0 1.45.7 9.42 9.42 0 0 0 2.42.46 10.38 10.38 0 0 0 5-1 17.58 17.58 0 0 0 2.51-1.39 18.13 18.13 0 0 0 1.85-1.45 12.57 12.57 0 0 0 2.37-.28 10.85 10.85 0 0 0 2.82-1.17 5.55 5.55 0 0 0 2-1.7 7.09 7.09 0 0 0 .71-1.59 1.94 1.94 0 0 0-1.13-2.47 2 2 0 0 0-.69-.07 1.75 1.75 0 0 0-.79.23zm-4.2 3.42h.22-.22zm-10.93.8l.16.07-.16-.07zm12.33-.81h-.41.41zm-11.7 1.07l.19.08-.19-.08zm.2 0h.24-.24zm9.5 2.45h-.28a2.4 2.4 0 0 1 .28 0zm-.5.08l-.31.12.31-.12zM83.13 57.73l-.49.28-.51.37a4.88 4.88 0 0 0-.62.67 9 9 0 0 0-.67 1c-.17.29-.31.59-.45.89a3.55 3.55 0 0 0-.31 1 4.11 4.11 0 0 0 0 1.6.94.94 0 0 0 1.13.69 1 1 0 0 0 .69-1.14 1.16 1.16 0 0 1 0-.18v-.2a3.5 3.5 0 0 1 .17-.52 13.58 13.58 0 0 1 1-1.66l-.09.1.13-.15v-.06a5.83 5.83 0 0 1 .49-.42l.59-.35a1.1 1.1 0 0 0-.61-2.06 1.06 1.06 0 0 0-.45.13zm0 2.75v.05-.06zm-5.88 19.95a8.45 8.45 0 0 0-2.44 1l-.33.26a2.13 2.13 0 0 0-.72.68 4.22 4.22 0 0 1-.27.36c-.11.23-.21.47-.3.71a3.09 3.09 0 0 0-.15 1v.12a2.71 2.71 0 0 1-.39.17h.1a19.49 19.49 0 0 0-3.79 2 16.13 16.13 0 0 0-2.53 2.13 9.86 9.86 0 0 0-.77.92 5.46 5.46 0 0 0-.68 1.2 1.22 1.22 0 0 0-.13.79 1.08 1.08 0 0 0 .47.63 1 1 0 0 0 .8.12 1.06 1.06 0 0 0 .72-.69l.18-.38a13.34 13.34 0 0 1 .86-1.26l-.09.1.09-.1L68 90l-.08.1c.22-.26.45-.5.69-.74s.61-.55.92-.8A17.9 17.9 0 0 1 72 87c.32-.18.67-.31 1-.47l.42-.17a2.67 2.67 0 0 0 1-.5c.35-.34.64-.68 1-1a10.26 10.26 0 0 1 1.3-.72 7.86 7.86 0 0 1 1.38-.41 4.61 4.61 0 0 1 .52 0c.28 0 .54.07.82.09a1.61 1.61 0 0 0 1.23-.46 1.71 1.71 0 0 0 .53-1.2 1.8 1.8 0 0 0-.51-1.16 1.91 1.91 0 0 0-1.21-.53 9.29 9.29 0 0 0-1.66-.09 2.8 2.8 0 0 0-.57.08zm.75 3.32h-.38.38zm-1.46.46l-.21.08.21-.08zM73 86.55l-.17.06.17-.06zm-3.36 1.88zm-2.53 2.71l-.06.13.06-.13zm.77-1zM49.62 11.53a11.12 11.12 0 0 0-1.21.46 8.39 8.39 0 0 0-1.3.67 10 10 0 0 0-3.65 4.25 12.41 12.41 0 0 0-1.25 5.72 7 7 0 0 0 .54 2.63 8.84 8.84 0 0 0 .43.81l-.18.13a9.34 9.34 0 0 0-1.27 1.4 7.11 7.11 0 0 0-1.07 2.28 5.65 5.65 0 0 0 .06 3.21 12.3 12.3 0 0 0 .66 1.54 1 1 0 0 0 1.27.37 1 1 0 0 0 .37-1.27l-.38-.84a6.48 6.48 0 0 1-.32-1.28 5.71 5.71 0 0 1 .07-1.09v.25a6.66 6.66 0 0 1 .39-1.22 9.21 9.21 0 0 1 .69-1.13 17.08 17.08 0 0 1 1.37-1.32 1.59 1.59 0 0 0 .57-.55 4.91 4.91 0 0 0 .33-1 16.5 16.5 0 0 1 1.07-3.39 1.63 1.63 0 0 0-.11.23l.12-.27c0-.1.09-.2.13-.31 0 .09-.07.18-.11.27a17 17 0 0 1 1.67-2.82c.31-.32.63-.61 1-.9a11 11 0 0 1 1.21-.67 8.86 8.86 0 0 1 1.28-.27h.09a3.3 3.3 0 0 0 2.22-.85 3.19 3.19 0 0 0 1-2.19 3.15 3.15 0 0 0-.87-2.22 3 3 0 0 0-2.18-1 17.21 17.21 0 0 0-2.57.33zm-7.27 20.09v.25a2 2 0 0 1 0-.25zm.33 1.31a.56.56 0 0 1 0 .12.56.56 0 0 0 0-.12zm4.15-10.79v-.08zM34.16 51.81a3.84 3.84 0 0 0-.4.14 3.66 3.66 0 0 0-1.16.56 6 6 0 0 0-1.44 1.26 9.25 9.25 0 0 0-2.08 6.72 2 2 0 0 0 1.42 1.95 2 2 0 0 0 2.27-.85 24.93 24.93 0 0 1 2.16-3.48 6.88 6.88 0 0 1 .54-.54l.26.1a2.92 2.92 0 0 0 3.63-1.94 3 3 0 0 0-2-3.63 7.13 7.13 0 0 0-1.48-.37l-.57-.09a9.9 9.9 0 0 0-1.2.17zM36 57.37h-.23.23zm-.67.15l-.16.06.15-.07zm2.73 63.16a9 9 0 0 0-.4 2.58 1.42 1.42 0 0 0 1 1.34 1.38 1.38 0 0 0 1.71-.92c.14-.71.35-1.42.54-2.14a1.5 1.5 0 0 0-1-1.85 1.32 1.32 0 0 0-.52 0 1.45 1.45 0 0 0-1.33 1zm-5.32 4.76a.93.93 0 0 0-.43.54c-.3.72-.59 1.45-.89 2.18s-.53 1.36-.83 2l-.09.13-.34.09a6.37 6.37 0 0 0-.61.23 4.57 4.57 0 0 0-.62.39 4.51 4.51 0 0 0-.74.71 4 4 0 0 0-1 1.93 3.94 3.94 0 0 0-.06.61.94.94 0 0 0 .91.94 1 1 0 0 0 1-.91v-.31a3 3 0 0 1 .16-.48 2.39 2.39 0 0 1 .34-.51 4.68 4.68 0 0 1 .56-.53l.31-.19.19-.07a4.5 4.5 0 0 0 .63-.17 1.5 1.5 0 0 0 .76-.6c0-.1.12-.19.19-.3s.2-.47.32-.69.18-.48.28-.73c.43-1.08.87-2.14 1.3-3.22a.93.93 0 0 0-.62-1.16 1 1 0 0 0-.34 0 .89.89 0 0 0-.39.12z"/></g></g></svg>