<svg xmlns="http://www.w3.org/2000/svg" viewBox="0 0 512 512"><circle cx="256" cy="256" r="256" fill="#ffc61b"/><path d="M247.853 415.275l84.985 84.985c98.223-30.868 170.915-119.339 178.497-225.82L356.704 119.811 247.853 415.275z" fill="#d48b07"/><path fill="#fcd088" d="M213.333 293.685h85.333v104.296h-85.333z"/><path fill="#ddab62" d="M256.293 293.685h42.379v104.296h-42.379z"/><path d="M347.529 205.44c.459-4.244.698-8.428.698-12.509 0-53.974-41.293-97.728-92.229-97.728s-92.229 43.754-92.229 97.728c0 4.08.24 8.264.698 12.509-8.945 2.326-13.202 16.087-9.506 30.817 3.708 14.776 14.014 24.921 23.018 22.661.821-.205 1.586-.538 2.326-.927 16.667 33.452 44.351 60.594 75.693 60.594s59.027-27.139 75.693-60.594c.74.39 1.505.722 2.326.927 9.004 2.26 19.309-7.885 23.018-22.661 3.697-14.73-.559-28.494-9.506-30.817z" fill="#ffedb5"/><path d="M347.529 205.44c.459-4.244.698-8.428.698-12.509 0-53.872-41.138-97.556-91.941-97.721v223.365c31.223-.165 58.79-27.236 75.405-60.585.74.39 1.505.722 2.326.927 9.004 2.26 19.309-7.885 23.018-22.661 3.697-14.729-.559-28.493-9.506-30.816z" fill="#e8cf89"/><g fill="#71e2ef"><path d="M356.488 364.391l-43.946-12.235-8.289-11.593a5.514 5.514 0 0 0-6.718-1.953l-41.538 17.894-41.289-17.877a5.515 5.515 0 0 0-6.713 1.881l-8.311 11.648-44.247 11.804c-22.883 4.577-39.938 21.854-39.938 45.19v60.276c40.262 26.719 88.557 42.294 140.498 42.294 43.898 0 85.199-11.117 121.242-30.689 6.603-4.087 13.028-8.268 19.256-12.438v-59.445c.002-23.334-17.122-40.18-40.007-44.757z"/><path d="M255.998 356.504l-41.289-17.877a5.515 5.515 0 0 0-6.713 1.881l-8.311 11.648-44.247 11.804c-22.883 4.577-39.938 21.854-39.938 45.19v60.276c40.262 26.719 88.557 42.296 140.498 42.296.097 0 .191-.005.288-.005V356.38l-.288.124z"/></g><g fill="#38c6d9"><path d="M356.488 364.391l-43.946-12.235-8.289-11.593a5.514 5.514 0 0 0-6.718-1.953l-41.25 17.772V511.72c43.791-.048 84.99-11.155 120.954-30.684 6.603-4.089 13.028-8.268 19.256-12.438v-59.445c.002-23.339-17.122-40.185-40.007-44.762z"/><path d="M300.408 401.689L256 357.421l-44.408 44.268-11.905-49.533-14.364 6.273 11.597 146.382a255.04 255.04 0 0 0 59.08 6.911c25.357 0 49.84-3.727 72.952-10.633l-2.282-142.193-14.126-6.74-12.136 49.533z"/></g><path d="M326.668 358.896l-14.126-6.74-12.136 49.533-44.12-43.98v154.009c25.254-.028 49.64-3.748 72.664-10.628l-2.282-142.194z" fill="#2ba8b2"/><path d="M357.762 361.951l-45.22-9.795-56.467 127.378-56.391-127.378-45.451 9.795c-23.023 4.605-39.596 24.821-39.596 48.3v59.194C155.148 496.326 203.74 512 256 512c52.258 0 100.85-15.672 141.359-42.555V410.25c0-23.478-16.572-43.694-39.597-48.299z" fill="#fff"/><path d="M397.359 410.252c0-23.48-16.574-43.696-39.596-48.3l-45.22-9.795-56.256 126.902v32.937c52.15-.057 100.638-15.717 141.072-42.548v-59.196z" fill="#e0e2e2"/><path d="M204.138 170.667s40.081 38.357 121.966 24.566c0 0 7.94-1.998 21.425 10.207 0 0 22.535-32.618 9.175-85.628 0 0-41.374-13.36-60.768-25.428-19.394-12.067-71.111-24.997-82.747 11.205 0 0-37.495-4.741-47.838 34.047-10.343 38.788-.883 65.803-.883 65.803s19.414-46.84 39.67-34.772z" fill="#494948"/><path d="M356.704 119.811s-41.374-13.36-60.768-25.428c-8.809-5.482-24.288-11.124-39.65-12.276v112.509c18.358 3.927 41.605 5.368 69.818.615 0 0 7.94-1.998 21.425 10.207 0 .002 22.535-32.616 9.175-85.627z" fill="#333"/><path d="M312.542 352.156l13.074 18.249a5.46 5.46 0 0 1-.843 7.433l-15.729 13.329c-2.844 2.41-2.489 6.897.696 8.832l11.598 7.042c3.062 1.858 3.534 6.113.955 8.599l-66.219 63.893 56.468-127.377z" fill="#afafaf"/><path d="M199.685 352.156l-13.074 18.249a5.46 5.46 0 0 0 .843 7.433l15.729 13.329c2.844 2.41 2.489 6.897-.696 8.832l-11.598 7.042c-3.062 1.858-3.534 6.113-.955 8.599l66.141 63.893-56.39-127.377z" fill="#e0e2e2"/></svg>